# MagicaVoxel @ ephtracy

# material
mtllib Headphones.mtl
usemtl palette

# normals
vn -1 0 0
vn 1 0 0
vn 0 0 1
vn 0 0 -1
vn 0 -1 0
vn 0 1 0

# texcoords
vt 0.00195313 0.5
vt 0.00976563 0.5
vt 0.0214844 0.5

# verts
v -8.5 0 7.5
v -8.5 0 4.5
v -8.5 1 4.5
v -8.5 1 1.5
v -8.5 2 4.5
v -8.5 2 1.5
v -8.5 3 7.5
v -8.5 3 4.5
v -7.5 1 1.5
v -7.5 1 0.5
v -7.5 2 1.5
v -7.5 2 0.5
v -3.5 0 7.5
v -3.5 0 4.5
v -3.5 1 6.5
v -3.5 1 5.5
v -3.5 1 4.5
v -3.5 1 1.5
v -3.5 2 6.5
v -3.5 2 5.5
v -3.5 2 4.5
v -3.5 2 1.5
v -3.5 3 7.5
v -3.5 3 4.5
v -2.5 1 6.5
v -2.5 1 5.5
v -2.5 2 6.5
v -2.5 2 5.5
v -7.5 1 6.5
v -7.5 1 5.5
v -7.5 2 6.5
v -7.5 2 5.5
v -6.5 0 7.5
v -6.5 0 4.5
v -6.5 1 6.5
v -6.5 1 5.5
v -6.5 1 4.5
v -6.5 1 1.5
v -6.5 2 6.5
v -6.5 2 5.5
v -6.5 2 4.5
v -6.5 2 1.5
v -6.5 3 7.5
v -6.5 3 4.5
v -2.5 1 1.5
v -2.5 1 0.5
v -2.5 2 1.5
v -2.5 2 0.5
v -1.5 0 7.5
v -1.5 0 4.5
v -1.5 1 4.5
v -1.5 1 1.5
v -1.5 2 4.5
v -1.5 2 1.5
v -1.5 3 7.5
v -1.5 3 4.5
v -8.5 0 7.5
v -8.5 3 7.5
v -6.5 0 7.5
v -6.5 3 7.5
v -3.5 0 7.5
v -3.5 3 7.5
v -1.5 0 7.5
v -1.5 3 7.5
v -7.5 1 5.5
v -7.5 2 5.5
v -6.5 1 5.5
v -6.5 2 5.5
v -3.5 1 5.5
v -3.5 2 5.5
v -2.5 1 5.5
v -2.5 2 5.5
v -6.5 1 1.5
v -6.5 2 1.5
v -3.5 1 1.5
v -3.5 2 1.5
v -7.5 1 6.5
v -7.5 2 6.5
v -6.5 1 6.5
v -6.5 2 6.5
v -3.5 1 6.5
v -3.5 2 6.5
v -2.5 1 6.5
v -2.5 2 6.5
v -8.5 0 4.5
v -8.5 1 4.5
v -8.5 2 4.5
v -8.5 3 4.5
v -6.5 0 4.5
v -6.5 1 4.5
v -6.5 2 4.5
v -6.5 3 4.5
v -3.5 0 4.5
v -3.5 1 4.5
v -3.5 2 4.5
v -3.5 3 4.5
v -1.5 0 4.5
v -1.5 1 4.5
v -1.5 2 4.5
v -1.5 3 4.5
v -8.5 1 1.5
v -8.5 2 1.5
v -7.5 1 1.5
v -7.5 2 1.5
v -2.5 1 1.5
v -2.5 2 1.5
v -1.5 1 1.5
v -1.5 2 1.5
v -7.5 1 0.5
v -7.5 2 0.5
v -2.5 1 0.5
v -2.5 2 0.5
v -8.5 0 7.5
v -6.5 0 7.5
v -3.5 0 7.5
v -1.5 0 7.5
v -8.5 0 4.5
v -6.5 0 4.5
v -3.5 0 4.5
v -1.5 0 4.5
v -8.5 1 4.5
v -6.5 1 4.5
v -3.5 1 4.5
v -1.5 1 4.5
v -8.5 1 1.5
v -7.5 1 1.5
v -6.5 1 1.5
v -3.5 1 1.5
v -2.5 1 1.5
v -1.5 1 1.5
v -7.5 1 0.5
v -2.5 1 0.5
v -7.5 2 6.5
v -6.5 2 6.5
v -3.5 2 6.5
v -2.5 2 6.5
v -7.5 2 5.5
v -6.5 2 5.5
v -3.5 2 5.5
v -2.5 2 5.5
v -7.5 1 6.5
v -6.5 1 6.5
v -3.5 1 6.5
v -2.5 1 6.5
v -7.5 1 5.5
v -6.5 1 5.5
v -3.5 1 5.5
v -2.5 1 5.5
v -8.5 2 4.5
v -6.5 2 4.5
v -3.5 2 4.5
v -1.5 2 4.5
v -8.5 2 1.5
v -7.5 2 1.5
v -6.5 2 1.5
v -3.5 2 1.5
v -2.5 2 1.5
v -1.5 2 1.5
v -7.5 2 0.5
v -2.5 2 0.5
v -8.5 3 7.5
v -6.5 3 7.5
v -3.5 3 7.5
v -1.5 3 7.5
v -8.5 3 4.5
v -6.5 3 4.5
v -3.5 3 4.5
v -1.5 3 4.5

# faces
f 3/2/1 2/2/1 1/2/1
f 5/2/1 3/2/1 1/2/1
f 5/1/1 4/1/1 3/1/1
f 6/1/1 4/1/1 5/1/1
f 7/2/1 5/2/1 1/2/1
f 8/2/1 5/2/1 7/2/1
f 11/3/1 10/3/1 9/3/1
f 12/3/1 10/3/1 11/3/1
f 15/2/1 14/2/1 13/2/1
f 16/2/1 14/2/1 15/2/1
f 17/2/1 14/2/1 16/2/1
f 19/2/1 15/2/1 13/2/1
f 20/2/1 17/2/1 16/2/1
f 21/1/1 18/1/1 17/1/1
f 21/2/1 17/2/1 20/2/1
f 22/1/1 18/1/1 21/1/1
f 23/2/1 20/2/1 19/2/1
f 23/2/1 19/2/1 13/2/1
f 23/2/1 21/2/1 20/2/1
f 24/2/1 21/2/1 23/2/1
f 27/2/1 26/2/1 25/2/1
f 28/2/1 26/2/1 27/2/1
f 29/2/2 30/2/2 31/2/2
f 31/2/2 30/2/2 32/2/2
f 33/2/2 34/2/2 35/2/2
f 35/2/2 34/2/2 36/2/2
f 36/2/2 34/2/2 37/2/2
f 33/2/2 35/2/2 39/2/2
f 36/2/2 37/2/2 40/2/2
f 37/1/2 38/1/2 41/1/2
f 40/2/2 37/2/2 41/2/2
f 41/1/2 38/1/2 42/1/2
f 39/2/2 40/2/2 43/2/2
f 33/2/2 39/2/2 43/2/2
f 40/2/2 41/2/2 43/2/2
f 43/2/2 41/2/2 44/2/2
f 45/3/2 46/3/2 47/3/2
f 47/3/2 46/3/2 48/3/2
f 49/2/2 50/2/2 51/2/2
f 49/2/2 51/2/2 53/2/2
f 51/1/2 52/1/2 53/1/2
f 53/1/2 52/1/2 54/1/2
f 49/2/2 53/2/2 55/2/2
f 55/2/2 53/2/2 56/2/2
f 59/2/3 58/2/3 57/2/3
f 60/2/3 58/2/3 59/2/3
f 63/2/3 62/2/3 61/2/3
f 64/2/3 62/2/3 63/2/3
f 67/2/3 66/2/3 65/2/3
f 68/2/3 66/2/3 67/2/3
f 71/2/3 70/2/3 69/2/3
f 72/2/3 70/2/3 71/2/3
f 75/3/3 74/3/3 73/3/3
f 76/3/3 74/3/3 75/3/3
f 77/2/4 78/2/4 79/2/4
f 79/2/4 78/2/4 80/2/4
f 81/2/4 82/2/4 83/2/4
f 83/2/4 82/2/4 84/2/4
f 85/2/4 86/2/4 89/2/4
f 89/2/4 86/2/4 90/2/4
f 87/2/4 88/2/4 91/2/4
f 91/2/4 88/2/4 92/2/4
f 93/2/4 94/2/4 97/2/4
f 97/2/4 94/2/4 98/2/4
f 95/2/4 96/2/4 99/2/4
f 99/2/4 96/2/4 100/2/4
f 101/1/4 102/1/4 103/1/4
f 103/1/4 102/1/4 104/1/4
f 105/1/4 106/1/4 107/1/4
f 107/1/4 106/1/4 108/1/4
f 109/3/4 110/3/4 111/3/4
f 111/3/4 110/3/4 112/3/4
f 117/2/5 114/2/5 113/2/5
f 118/2/5 114/2/5 117/2/5
f 119/2/5 116/2/5 115/2/5
f 120/2/5 116/2/5 119/2/5
f 125/1/5 122/1/5 121/1/5
f 126/1/5 122/1/5 125/1/5
f 127/1/5 122/1/5 126/1/5
f 128/1/5 124/1/5 123/1/5
f 129/1/5 124/1/5 128/1/5
f 130/1/5 124/1/5 129/1/5
f 131/3/5 127/3/5 126/3/5
f 131/3/5 129/3/5 128/3/5
f 131/3/5 128/3/5 127/3/5
f 132/3/5 129/3/5 131/3/5
f 137/2/5 134/2/5 133/2/5
f 138/2/5 134/2/5 137/2/5
f 139/2/5 136/2/5 135/2/5
f 140/2/5 136/2/5 139/2/5
f 141/2/6 142/2/6 145/2/6
f 145/2/6 142/2/6 146/2/6
f 143/2/6 144/2/6 147/2/6
f 147/2/6 144/2/6 148/2/6
f 149/1/6 150/1/6 153/1/6
f 153/1/6 150/1/6 154/1/6
f 154/1/6 150/1/6 155/1/6
f 151/1/6 152/1/6 156/1/6
f 156/1/6 152/1/6 157/1/6
f 157/1/6 152/1/6 158/1/6
f 154/3/6 155/3/6 159/3/6
f 156/3/6 157/3/6 159/3/6
f 155/3/6 156/3/6 159/3/6
f 159/3/6 157/3/6 160/3/6
f 161/2/6 162/2/6 165/2/6
f 165/2/6 162/2/6 166/2/6
f 163/2/6 164/2/6 167/2/6
f 167/2/6 164/2/6 168/2/6
