# MagicaVoxel @ ephtracy

# material
mtllib Keyboard.mtl
usemtl palette

# normals
vn -1 0 0
vn 1 0 0
vn 0 0 1
vn 0 0 -1
vn 0 -1 0
vn 0 1 0

# texcoords
vt 0.00195313 0.5
vt 0.00976563 0.5
vt 0.0136719 0.5
vt 0.0175781 0.5
vt 0.0214844 0.5

# verts
v -7.5 0 8.5
v -7.5 0 4.5
v -7.5 1 8.5
v -7.5 1 4.5
v 7.5 0 8.5
v 7.5 0 4.5
v 7.5 1 8.5
v 7.5 1 4.5
v -7.5 0 8.5
v -7.5 1 8.5
v 7.5 0 8.5
v 7.5 1 8.5
v -7.5 0 4.5
v -7.5 1 4.5
v 7.5 0 4.5
v 7.5 1 4.5
v -7.5 0 8.5
v 7.5 0 8.5
v -6.5 0 7.5
v -5.5 0 7.5
v -4.5 0 7.5
v -3.5 0 7.5
v -2.5 0 7.5
v -1.5 0 7.5
v -0.5 0 7.5
v 0.5 0 7.5
v 1.5 0 7.5
v 2.5 0 7.5
v 3.5 0 7.5
v 4.5 0 7.5
v 5.5 0 7.5
v 6.5 0 7.5
v -6.5 0 6.5
v -5.5 0 6.5
v -4.5 0 6.5
v -3.5 0 6.5
v -2.5 0 6.5
v -1.5 0 6.5
v -0.5 0 6.5
v 0.5 0 6.5
v 1.5 0 6.5
v 2.5 0 6.5
v 3.5 0 6.5
v 4.5 0 6.5
v 5.5 0 6.5
v 6.5 0 6.5
v -6.5 0 5.5
v -5.5 0 5.5
v -4.5 0 5.5
v -3.5 0 5.5
v -2.5 0 5.5
v -1.5 0 5.5
v -0.5 0 5.5
v 0.5 0 5.5
v 1.5 0 5.5
v 2.5 0 5.5
v 3.5 0 5.5
v 4.5 0 5.5
v 5.5 0 5.5
v 6.5 0 5.5
v -7.5 0 4.5
v 7.5 0 4.5
v -7.5 1 8.5
v 7.5 1 8.5
v -6.5 1 7.5
v -5.5 1 7.5
v -4.5 1 7.5
v -3.5 1 7.5
v -2.5 1 7.5
v -1.5 1 7.5
v -0.5 1 7.5
v 0.5 1 7.5
v 1.5 1 7.5
v 2.5 1 7.5
v 3.5 1 7.5
v 4.5 1 7.5
v 5.5 1 7.5
v 6.5 1 7.5
v -6.5 1 6.5
v -5.5 1 6.5
v -4.5 1 6.5
v -3.5 1 6.5
v -2.5 1 6.5
v -1.5 1 6.5
v -0.5 1 6.5
v 0.5 1 6.5
v 1.5 1 6.5
v 2.5 1 6.5
v 3.5 1 6.5
v 4.5 1 6.5
v 5.5 1 6.5
v 6.5 1 6.5
v -6.5 1 5.5
v -5.5 1 5.5
v -4.5 1 5.5
v -3.5 1 5.5
v -2.5 1 5.5
v -1.5 1 5.5
v -0.5 1 5.5
v 0.5 1 5.5
v 1.5 1 5.5
v 2.5 1 5.5
v 3.5 1 5.5
v 4.5 1 5.5
v 5.5 1 5.5
v 6.5 1 5.5
v -7.5 1 4.5
v 7.5 1 4.5

# faces
f 3/1/1 2/1/1 1/1/1
f 4/1/1 2/1/1 3/1/1
f 5/1/2 6/1/2 7/1/2
f 7/1/2 6/1/2 8/1/2
f 11/1/3 10/1/3 9/1/3
f 12/1/3 10/1/3 11/1/3
f 13/1/4 14/1/4 15/1/4
f 15/1/4 14/1/4 16/1/4
f 19/1/5 18/1/5 17/1/5
f 20/1/5 18/1/5 19/1/5
f 21/1/5 18/1/5 20/1/5
f 22/1/5 18/1/5 21/1/5
f 23/1/5 18/1/5 22/1/5
f 24/1/5 18/1/5 23/1/5
f 25/1/5 18/1/5 24/1/5
f 26/1/5 18/1/5 25/1/5
f 27/1/5 18/1/5 26/1/5
f 28/1/5 18/1/5 27/1/5
f 29/1/5 18/1/5 28/1/5
f 30/1/5 18/1/5 29/1/5
f 31/1/5 18/1/5 30/1/5
f 32/1/5 18/1/5 31/1/5
f 33/1/5 19/1/5 17/1/5
f 33/4/5 20/4/5 19/4/5
f 34/5/5 21/5/5 20/5/5
f 34/4/5 20/4/5 33/4/5
f 35/4/5 22/4/5 21/4/5
f 35/5/5 21/5/5 34/5/5
f 36/5/5 23/5/5 22/5/5
f 36/4/5 22/4/5 35/4/5
f 37/4/5 24/4/5 23/4/5
f 37/5/5 23/5/5 36/5/5
f 38/5/5 25/5/5 24/5/5
f 38/4/5 24/4/5 37/4/5
f 39/4/5 26/4/5 25/4/5
f 39/5/5 25/5/5 38/5/5
f 40/5/5 27/5/5 26/5/5
f 40/4/5 26/4/5 39/4/5
f 41/4/5 28/4/5 27/4/5
f 41/5/5 27/5/5 40/5/5
f 42/5/5 29/5/5 28/5/5
f 42/4/5 28/4/5 41/4/5
f 43/4/5 30/4/5 29/4/5
f 43/5/5 29/5/5 42/5/5
f 44/5/5 31/5/5 30/5/5
f 44/4/5 30/4/5 43/4/5
f 45/4/5 32/4/5 31/4/5
f 45/5/5 31/5/5 44/5/5
f 46/1/5 18/1/5 32/1/5
f 46/4/5 32/4/5 45/4/5
f 47/1/5 33/1/5 17/1/5
f 47/2/5 34/2/5 33/2/5
f 48/3/5 35/3/5 34/3/5
f 48/2/5 34/2/5 47/2/5
f 49/2/5 36/2/5 35/2/5
f 49/3/5 35/3/5 48/3/5
f 50/3/5 37/3/5 36/3/5
f 50/2/5 36/2/5 49/2/5
f 51/2/5 38/2/5 37/2/5
f 51/3/5 37/3/5 50/3/5
f 52/3/5 39/3/5 38/3/5
f 52/2/5 38/2/5 51/2/5
f 53/2/5 40/2/5 39/2/5
f 53/3/5 39/3/5 52/3/5
f 54/3/5 41/3/5 40/3/5
f 54/2/5 40/2/5 53/2/5
f 55/2/5 42/2/5 41/2/5
f 55/3/5 41/3/5 54/3/5
f 56/3/5 43/3/5 42/3/5
f 56/2/5 42/2/5 55/2/5
f 57/2/5 44/2/5 43/2/5
f 57/3/5 43/3/5 56/3/5
f 58/3/5 45/3/5 44/3/5
f 58/2/5 44/2/5 57/2/5
f 59/2/5 46/2/5 45/2/5
f 59/3/5 45/3/5 58/3/5
f 60/1/5 18/1/5 46/1/5
f 60/2/5 46/2/5 59/2/5
f 61/1/5 57/1/5 56/1/5
f 61/1/5 56/1/5 55/1/5
f 61/1/5 60/1/5 59/1/5
f 61/1/5 55/1/5 54/1/5
f 61/1/5 54/1/5 53/1/5
f 61/1/5 53/1/5 52/1/5
f 61/1/5 52/1/5 51/1/5
f 61/1/5 51/1/5 50/1/5
f 61/1/5 50/1/5 49/1/5
f 61/1/5 49/1/5 48/1/5
f 61/1/5 48/1/5 47/1/5
f 61/1/5 47/1/5 17/1/5
f 61/1/5 58/1/5 57/1/5
f 61/1/5 59/1/5 58/1/5
f 62/1/5 18/1/5 60/1/5
f 62/1/5 60/1/5 61/1/5
f 63/1/6 64/1/6 65/1/6
f 65/1/6 64/1/6 66/1/6
f 66/1/6 64/1/6 67/1/6
f 67/1/6 64/1/6 68/1/6
f 68/1/6 64/1/6 69/1/6
f 69/1/6 64/1/6 70/1/6
f 70/1/6 64/1/6 71/1/6
f 71/1/6 64/1/6 72/1/6
f 72/1/6 64/1/6 73/1/6
f 73/1/6 64/1/6 74/1/6
f 74/1/6 64/1/6 75/1/6
f 75/1/6 64/1/6 76/1/6
f 76/1/6 64/1/6 77/1/6
f 77/1/6 64/1/6 78/1/6
f 63/1/6 65/1/6 79/1/6
f 65/4/6 66/4/6 79/4/6
f 66/5/6 67/5/6 80/5/6
f 79/4/6 66/4/6 80/4/6
f 67/4/6 68/4/6 81/4/6
f 80/5/6 67/5/6 81/5/6
f 68/5/6 69/5/6 82/5/6
f 81/4/6 68/4/6 82/4/6
f 69/4/6 70/4/6 83/4/6
f 82/5/6 69/5/6 83/5/6
f 70/5/6 71/5/6 84/5/6
f 83/4/6 70/4/6 84/4/6
f 71/4/6 72/4/6 85/4/6
f 84/5/6 71/5/6 85/5/6
f 72/5/6 73/5/6 86/5/6
f 85/4/6 72/4/6 86/4/6
f 73/4/6 74/4/6 87/4/6
f 86/5/6 73/5/6 87/5/6
f 74/5/6 75/5/6 88/5/6
f 87/4/6 74/4/6 88/4/6
f 75/4/6 76/4/6 89/4/6
f 88/5/6 75/5/6 89/5/6
f 76/5/6 77/5/6 90/5/6
f 89/4/6 76/4/6 90/4/6
f 77/4/6 78/4/6 91/4/6
f 90/5/6 77/5/6 91/5/6
f 78/1/6 64/1/6 92/1/6
f 91/4/6 78/4/6 92/4/6
f 63/1/6 79/1/6 93/1/6
f 79/2/6 80/2/6 93/2/6
f 80/3/6 81/3/6 94/3/6
f 93/2/6 80/2/6 94/2/6
f 81/2/6 82/2/6 95/2/6
f 94/3/6 81/3/6 95/3/6
f 82/3/6 83/3/6 96/3/6
f 95/2/6 82/2/6 96/2/6
f 83/2/6 84/2/6 97/2/6
f 96/3/6 83/3/6 97/3/6
f 84/3/6 85/3/6 98/3/6
f 97/2/6 84/2/6 98/2/6
f 85/2/6 86/2/6 99/2/6
f 98/3/6 85/3/6 99/3/6
f 86/3/6 87/3/6 100/3/6
f 99/2/6 86/2/6 100/2/6
f 87/2/6 88/2/6 101/2/6
f 100/3/6 87/3/6 101/3/6
f 88/3/6 89/3/6 102/3/6
f 101/2/6 88/2/6 102/2/6
f 89/2/6 90/2/6 103/2/6
f 102/3/6 89/3/6 103/3/6
f 90/3/6 91/3/6 104/3/6
f 103/2/6 90/2/6 104/2/6
f 91/2/6 92/2/6 105/2/6
f 104/3/6 91/3/6 105/3/6
f 92/1/6 64/1/6 106/1/6
f 105/2/6 92/2/6 106/2/6
f 102/1/6 103/1/6 107/1/6
f 101/1/6 102/1/6 107/1/6
f 105/1/6 106/1/6 107/1/6
f 100/1/6 101/1/6 107/1/6
f 99/1/6 100/1/6 107/1/6
f 98/1/6 99/1/6 107/1/6
f 97/1/6 98/1/6 107/1/6
f 96/1/6 97/1/6 107/1/6
f 95/1/6 96/1/6 107/1/6
f 94/1/6 95/1/6 107/1/6
f 93/1/6 94/1/6 107/1/6
f 63/1/6 93/1/6 107/1/6
f 103/1/6 104/1/6 107/1/6
f 104/1/6 105/1/6 107/1/6
f 106/1/6 64/1/6 108/1/6
f 107/1/6 106/1/6 108/1/6
