# MagicaVoxel @ ephtracy

# material
mtllib LaptopText.mtl
usemtl palette

# normals
vn -1 0 0
vn 1 0 0
vn 0 0 1
vn 0 0 -1
vn 0 -1 0
vn 0 1 0

# texcoords
vt 0.00195313 0.5
vt 0.00976563 0.5
vt 0.0136719 0.5
vt 0.0175781 0.5
vt 0.0214844 0.5
vt 0.0371094 0.5
vt 0.0410156 0.5
vt 0.0449219 0.5

# verts
v -7.5 0 7.5
v -7.5 0 -1.5
v -7.5 1 7.5
v -7.5 1 -0.5
v -7.5 9 -0.5
v -7.5 9 -1.5
v -6.5 1 -1.5
v -6.5 1 -2.5
v -6.5 8 -1.5
v -6.5 8 -2.5
v -2.5 0 -1.5
v -2.5 0 -2.5
v -2.5 1 -1.5
v -2.5 1 -2.5
v 2.5 0 -1.5
v 2.5 0 -2.5
v 2.5 1 -1.5
v 2.5 1 -2.5
v 6.5 1 -1.5
v 6.5 1 -2.5
v 6.5 8 -1.5
v 6.5 8 -2.5
v 7.5 0 7.5
v 7.5 0 -1.5
v 7.5 1 7.5
v 7.5 1 -0.5
v 7.5 9 -0.5
v 7.5 9 -1.5
v -7.5 0 7.5
v -7.5 1 7.5
v 7.5 0 7.5
v 7.5 1 7.5
v -7.5 1 -0.5
v -7.5 9 -0.5
v -6.5 2 -0.5
v -6.5 7 -0.5
v -6.5 8 -0.5
v -5.5 3 -0.5
v -5.5 4 -0.5
v -5.5 5 -0.5
v -5.5 6 -0.5
v -4.5 3 -0.5
v -4.5 4 -0.5
v -3.5 3 -0.5
v -3.5 4 -0.5
v -3.5 5 -0.5
v -3.5 6 -0.5
v -2.5 3 -0.5
v -2.5 4 -0.5
v -2.5 5 -0.5
v -2.5 6 -0.5
v -1.5 3 -0.5
v -1.5 4 -0.5
v 0.5 5 -0.5
v 0.5 6 -0.5
v 1.5 3 -0.5
v 1.5 4 -0.5
v 1.5 5 -0.5
v 1.5 6 -0.5
v 2.5 3 -0.5
v 2.5 4 -0.5
v 3.5 3 -0.5
v 3.5 4 -0.5
v 3.5 5 -0.5
v 3.5 6 -0.5
v 4.5 3 -0.5
v 4.5 4 -0.5
v 4.5 5 -0.5
v 4.5 6 -0.5
v 5.5 3 -0.5
v 5.5 4 -0.5
v 5.5 5 -0.5
v 5.5 6 -0.5
v 6.5 2 -0.5
v 6.5 7 -0.5
v 6.5 8 -0.5
v 7.5 1 -0.5
v 7.5 9 -0.5
v -7.5 0 -1.5
v -7.5 9 -1.5
v -6.5 1 -1.5
v -6.5 8 -1.5
v -2.5 0 -1.5
v -2.5 1 -1.5
v 2.5 0 -1.5
v 2.5 1 -1.5
v 4.5 1 -1.5
v 5.5 1 -1.5
v 6.5 1 -1.5
v 6.5 8 -1.5
v 7.5 0 -1.5
v 7.5 9 -1.5
v -6.5 1 -2.5
v -6.5 8 -2.5
v -2.5 0 -2.5
v -2.5 1 -2.5
v 2.5 0 -2.5
v 2.5 1 -2.5
v 4.5 1 -2.5
v 4.5 2 -2.5
v 5.5 1 -2.5
v 5.5 2 -2.5
v 6.5 1 -2.5
v 6.5 8 -2.5
v -7.5 0 7.5
v 7.5 0 7.5
v -6.5 0 6.5
v -5.5 0 6.5
v -4.5 0 6.5
v -3.5 0 6.5
v -1.5 0 6.5
v -0.5 0 6.5
v 0.5 0 6.5
v 1.5 0 6.5
v 2.5 0 6.5
v 3.5 0 6.5
v 4.5 0 6.5
v 5.5 0 6.5
v 6.5 0 6.5
v -6.5 0 5.5
v -5.5 0 5.5
v -4.5 0 5.5
v -3.5 0 5.5
v -2.5 0 5.5
v -1.5 0 5.5
v -0.5 0 5.5
v 0.5 0 5.5
v 1.5 0 5.5
v 2.5 0 5.5
v 3.5 0 5.5
v 4.5 0 5.5
v 5.5 0 5.5
v 6.5 0 5.5
v -6.5 0 4.5
v -5.5 0 4.5
v -4.5 0 4.5
v -3.5 0 4.5
v -2.5 0 4.5
v -1.5 0 4.5
v -0.5 0 4.5
v 0.5 0 4.5
v 1.5 0 4.5
v 2.5 0 4.5
v 3.5 0 4.5
v 4.5 0 4.5
v 5.5 0 4.5
v 6.5 0 4.5
v -6.5 0 3.5
v -5.5 0 3.5
v -4.5 0 3.5
v -3.5 0 3.5
v -2.5 0 3.5
v -1.5 0 3.5
v -0.5 0 3.5
v 0.5 0 3.5
v 1.5 0 3.5
v 2.5 0 3.5
v 3.5 0 3.5
v 4.5 0 3.5
v 5.5 0 3.5
v 6.5 0 3.5
v -6.5 0 2.5
v -5.5 0 2.5
v -4.5 0 2.5
v -3.5 0 2.5
v -2.5 0 2.5
v -1.5 0 2.5
v -0.5 0 2.5
v 0.5 0 2.5
v 1.5 0 2.5
v 2.5 0 2.5
v 3.5 0 2.5
v 4.5 0 2.5
v 5.5 0 2.5
v 6.5 0 2.5
v -6.5 0 1.5
v -5.5 0 1.5
v -4.5 0 1.5
v -3.5 0 1.5
v -2.5 0 1.5
v -1.5 0 1.5
v -0.5 0 1.5
v 0.5 0 1.5
v 1.5 0 1.5
v 2.5 0 1.5
v 3.5 0 1.5
v 4.5 0 1.5
v 5.5 0 1.5
v 6.5 0 1.5
v -6.5 0 0.5
v -5.5 0 0.5
v -4.5 0 0.5
v -3.5 0 0.5
v -2.5 0 0.5
v -1.5 0 0.5
v -0.5 0 0.5
v 0.5 0 0.5
v 1.5 0 0.5
v 2.5 0 0.5
v 3.5 0 0.5
v 4.5 0 0.5
v 5.5 0 0.5
v 6.5 0 0.5
v -7.5 0 -1.5
v -2.5 0 -1.5
v 2.5 0 -1.5
v 7.5 0 -1.5
v -2.5 0 -2.5
v 2.5 0 -2.5
v -6.5 1 -1.5
v -2.5 1 -1.5
v 2.5 1 -1.5
v 4.5 1 -1.5
v 5.5 1 -1.5
v 6.5 1 -1.5
v -6.5 1 -2.5
v -2.5 1 -2.5
v 2.5 1 -2.5
v 4.5 1 -2.5
v 5.5 1 -2.5
v 6.5 1 -2.5
v -7.5 1 7.5
v 7.5 1 7.5
v -6.5 1 6.5
v -5.5 1 6.5
v -4.5 1 6.5
v -3.5 1 6.5
v -1.5 1 6.5
v -0.5 1 6.5
v 0.5 1 6.5
v 1.5 1 6.5
v 2.5 1 6.5
v 3.5 1 6.5
v 4.5 1 6.5
v 5.5 1 6.5
v 6.5 1 6.5
v -6.5 1 5.5
v -5.5 1 5.5
v -4.5 1 5.5
v -3.5 1 5.5
v -2.5 1 5.5
v -1.5 1 5.5
v -0.5 1 5.5
v 0.5 1 5.5
v 1.5 1 5.5
v 2.5 1 5.5
v 3.5 1 5.5
v 4.5 1 5.5
v 5.5 1 5.5
v 6.5 1 5.5
v -6.5 1 4.5
v -5.5 1 4.5
v -4.5 1 4.5
v -3.5 1 4.5
v -2.5 1 4.5
v -1.5 1 4.5
v -0.5 1 4.5
v 0.5 1 4.5
v 1.5 1 4.5
v 2.5 1 4.5
v 3.5 1 4.5
v 4.5 1 4.5
v 5.5 1 4.5
v 6.5 1 4.5
v -6.5 1 3.5
v -5.5 1 3.5
v -4.5 1 3.5
v -3.5 1 3.5
v -2.5 1 3.5
v -1.5 1 3.5
v -0.5 1 3.5
v 0.5 1 3.5
v 1.5 1 3.5
v 2.5 1 3.5
v 3.5 1 3.5
v 4.5 1 3.5
v 5.5 1 3.5
v 6.5 1 3.5
v -6.5 1 2.5
v -5.5 1 2.5
v -4.5 1 2.5
v -3.5 1 2.5
v -2.5 1 2.5
v -1.5 1 2.5
v -0.5 1 2.5
v 0.5 1 2.5
v 1.5 1 2.5
v 2.5 1 2.5
v 3.5 1 2.5
v 4.5 1 2.5
v 5.5 1 2.5
v 6.5 1 2.5
v -6.5 1 1.5
v -5.5 1 1.5
v -4.5 1 1.5
v -3.5 1 1.5
v -2.5 1 1.5
v -1.5 1 1.5
v -0.5 1 1.5
v 0.5 1 1.5
v 1.5 1 1.5
v 2.5 1 1.5
v 3.5 1 1.5
v 4.5 1 1.5
v 5.5 1 1.5
v 6.5 1 1.5
v -6.5 1 0.5
v -5.5 1 0.5
v -4.5 1 0.5
v -3.5 1 0.5
v -2.5 1 0.5
v -1.5 1 0.5
v -0.5 1 0.5
v 0.5 1 0.5
v 1.5 1 0.5
v 2.5 1 0.5
v 3.5 1 0.5
v 4.5 1 0.5
v 5.5 1 0.5
v 6.5 1 0.5
v -7.5 1 -0.5
v 7.5 1 -0.5
v -6.5 8 -1.5
v 6.5 8 -1.5
v -6.5 8 -2.5
v 6.5 8 -2.5
v -7.5 9 -0.5
v 7.5 9 -0.5
v -7.5 9 -1.5
v 7.5 9 -1.5

# faces
f 3/1/1 2/1/1 1/1/1
f 4/1/1 2/1/1 3/1/1
f 5/1/1 2/1/1 4/1/1
f 6/1/1 2/1/1 5/1/1
f 9/1/1 8/1/1 7/1/1
f 10/1/1 8/1/1 9/1/1
f 13/1/1 12/1/1 11/1/1
f 14/1/1 12/1/1 13/1/1
f 15/1/2 16/1/2 17/1/2
f 17/1/2 16/1/2 18/1/2
f 19/1/2 20/1/2 21/1/2
f 21/1/2 20/1/2 22/1/2
f 23/1/2 24/1/2 25/1/2
f 25/1/2 24/1/2 26/1/2
f 26/1/2 24/1/2 27/1/2
f 27/1/2 24/1/2 28/1/2
f 31/1/3 30/1/3 29/1/3
f 32/1/3 30/1/3 31/1/3
f 35/1/3 34/1/3 33/1/3
f 36/1/3 34/1/3 35/1/3
f 37/1/3 34/1/3 36/1/3
f 38/8/3 36/8/3 35/8/3
f 39/8/3 36/8/3 38/8/3
f 40/8/3 36/8/3 39/8/3
f 41/8/3 36/8/3 40/8/3
f 42/8/3 38/8/3 35/8/3
f 42/2/3 39/2/3 38/2/3
f 43/8/3 40/8/3 39/8/3
f 43/2/3 39/2/3 42/2/3
f 44/8/3 42/8/3 35/8/3
f 44/8/3 43/8/3 42/8/3
f 45/8/3 40/8/3 43/8/3
f 45/8/3 43/8/3 44/8/3
f 46/2/3 41/2/3 40/2/3
f 46/8/3 40/8/3 45/8/3
f 47/8/3 36/8/3 41/8/3
f 47/2/3 41/2/3 46/2/3
f 48/2/3 45/2/3 44/2/3
f 48/8/3 44/8/3 35/8/3
f 49/8/3 46/8/3 45/8/3
f 49/2/3 45/2/3 48/2/3
f 49/8/3 47/8/3 46/8/3
f 50/8/3 47/8/3 49/8/3
f 51/8/3 36/8/3 47/8/3
f 51/8/3 47/8/3 50/8/3
f 52/8/3 48/8/3 35/8/3
f 52/8/3 50/8/3 49/8/3
f 52/8/3 49/8/3 48/8/3
f 53/8/3 50/8/3 52/8/3
f 54/2/3 51/2/3 50/2/3
f 54/8/3 50/8/3 53/8/3
f 55/8/3 36/8/3 51/8/3
f 55/2/3 51/2/3 54/2/3
f 56/2/3 53/2/3 52/2/3
f 56/8/3 52/8/3 35/8/3
f 57/8/3 54/8/3 53/8/3
f 57/2/3 53/2/3 56/2/3
f 57/8/3 55/8/3 54/8/3
f 58/8/3 55/8/3 57/8/3
f 59/8/3 36/8/3 55/8/3
f 59/8/3 55/8/3 58/8/3
f 60/8/3 56/8/3 35/8/3
f 60/8/3 58/8/3 57/8/3
f 60/8/3 57/8/3 56/8/3
f 61/8/3 58/8/3 60/8/3
f 62/8/3 60/8/3 35/8/3
f 62/2/3 61/2/3 60/2/3
f 63/8/3 58/8/3 61/8/3
f 63/2/3 61/2/3 62/2/3
f 64/2/3 59/2/3 58/2/3
f 64/8/3 58/8/3 63/8/3
f 65/8/3 36/8/3 59/8/3
f 65/2/3 59/2/3 64/2/3
f 66/8/3 64/8/3 63/8/3
f 66/8/3 63/8/3 62/8/3
f 66/8/3 65/8/3 64/8/3
f 66/8/3 62/8/3 35/8/3
f 67/8/3 65/8/3 66/8/3
f 68/8/3 65/8/3 67/8/3
f 69/8/3 36/8/3 65/8/3
f 69/8/3 65/8/3 68/8/3
f 70/8/3 66/8/3 35/8/3
f 70/2/3 67/2/3 66/2/3
f 71/8/3 68/8/3 67/8/3
f 71/2/3 67/2/3 70/2/3
f 72/2/3 69/2/3 68/2/3
f 72/8/3 68/8/3 71/8/3
f 73/8/3 36/8/3 69/8/3
f 73/2/3 69/2/3 72/2/3
f 74/1/3 35/1/3 33/1/3
f 74/8/3 70/8/3 35/8/3
f 74/8/3 73/8/3 72/8/3
f 74/8/3 71/8/3 70/8/3
f 74/8/3 72/8/3 71/8/3
f 75/8/3 36/8/3 73/8/3
f 75/8/3 73/8/3 74/8/3
f 75/7/3 37/7/3 36/7/3
f 76/1/3 34/1/3 37/1/3
f 76/7/3 37/7/3 75/7/3
f 77/1/3 74/1/3 33/1/3
f 77/1/3 75/1/3 74/1/3
f 77/1/3 76/1/3 75/1/3
f 78/1/3 34/1/3 76/1/3
f 78/1/3 76/1/3 77/1/3
f 79/1/4 80/1/4 81/1/4
f 81/1/4 80/1/4 82/1/4
f 79/1/4 81/1/4 83/1/4
f 83/1/4 81/1/4 84/1/4
f 85/1/4 86/1/4 87/1/4
f 85/1/4 87/1/4 88/1/4
f 85/1/4 88/1/4 89/1/4
f 82/1/4 80/1/4 90/1/4
f 85/1/4 89/1/4 91/1/4
f 89/1/4 90/1/4 91/1/4
f 90/1/4 80/1/4 92/1/4
f 91/1/4 90/1/4 92/1/4
f 93/1/4 94/1/4 96/1/4
f 95/1/4 96/1/4 97/1/4
f 96/1/4 94/1/4 98/1/4
f 97/1/4 96/1/4 98/1/4
f 98/1/4 94/1/4 99/1/4
f 99/1/4 94/1/4 100/1/4
f 99/6/4 100/6/4 101/6/4
f 100/1/4 94/1/4 102/1/4
f 101/6/4 100/6/4 102/6/4
f 101/1/4 102/1/4 103/1/4
f 102/1/4 94/1/4 104/1/4
f 103/1/4 102/1/4 104/1/4
f 107/1/5 106/1/5 105/1/5
f 108/1/5 106/1/5 107/1/5
f 109/1/5 106/1/5 108/1/5
f 110/1/5 106/1/5 109/1/5
f 111/1/5 106/1/5 110/1/5
f 112/1/5 106/1/5 111/1/5
f 113/1/5 106/1/5 112/1/5
f 114/1/5 106/1/5 113/1/5
f 115/1/5 106/1/5 114/1/5
f 116/1/5 106/1/5 115/1/5
f 117/1/5 106/1/5 116/1/5
f 118/1/5 106/1/5 117/1/5
f 119/1/5 106/1/5 118/1/5
f 120/1/5 107/1/5 105/1/5
f 120/5/5 108/5/5 107/5/5
f 121/4/5 109/4/5 108/4/5
f 121/5/5 108/5/5 120/5/5
f 122/3/5 110/3/5 109/3/5
f 122/4/5 109/4/5 121/4/5
f 123/2/5 111/2/5 110/2/5
f 123/3/5 110/3/5 122/3/5
f 124/2/5 111/2/5 123/2/5
f 125/4/5 112/4/5 111/4/5
f 125/2/5 111/2/5 124/2/5
f 126/5/5 113/5/5 112/5/5
f 126/4/5 112/4/5 125/4/5
f 127/4/5 114/4/5 113/4/5
f 127/5/5 113/5/5 126/5/5
f 128/3/5 115/3/5 114/3/5
f 128/4/5 114/4/5 127/4/5
f 129/2/5 116/2/5 115/2/5
f 129/3/5 115/3/5 128/3/5
f 130/3/5 117/3/5 116/3/5
f 130/2/5 116/2/5 129/2/5
f 131/4/5 118/4/5 117/4/5
f 131/3/5 117/3/5 130/3/5
f 132/5/5 119/5/5 118/5/5
f 132/4/5 118/4/5 131/4/5
f 133/1/5 106/1/5 119/1/5
f 133/5/5 119/5/5 132/5/5
f 134/1/5 120/1/5 105/1/5
f 134/2/5 121/2/5 120/2/5
f 135/3/5 122/3/5 121/3/5
f 135/2/5 121/2/5 134/2/5
f 136/4/5 123/4/5 122/4/5
f 136/3/5 122/3/5 135/3/5
f 137/5/5 124/5/5 123/5/5
f 137/4/5 123/4/5 136/4/5
f 138/4/5 125/4/5 124/4/5
f 138/5/5 124/5/5 137/5/5
f 139/3/5 126/3/5 125/3/5
f 139/4/5 125/4/5 138/4/5
f 140/2/5 127/2/5 126/2/5
f 140/3/5 126/3/5 139/3/5
f 141/3/5 128/3/5 127/3/5
f 141/2/5 127/2/5 140/2/5
f 142/4/5 129/4/5 128/4/5
f 142/3/5 128/3/5 141/3/5
f 143/5/5 130/5/5 129/5/5
f 143/4/5 129/4/5 142/4/5
f 144/4/5 131/4/5 130/4/5
f 144/5/5 130/5/5 143/5/5
f 145/3/5 132/3/5 131/3/5
f 145/4/5 131/4/5 144/4/5
f 146/2/5 133/2/5 132/2/5
f 146/3/5 132/3/5 145/3/5
f 147/1/5 106/1/5 133/1/5
f 147/2/5 133/2/5 146/2/5
f 148/1/5 134/1/5 105/1/5
f 148/5/5 135/5/5 134/5/5
f 149/4/5 136/4/5 135/4/5
f 149/5/5 135/5/5 148/5/5
f 150/3/5 137/3/5 136/3/5
f 150/4/5 136/4/5 149/4/5
f 151/2/5 138/2/5 137/2/5
f 151/3/5 137/3/5 150/3/5
f 152/3/5 139/3/5 138/3/5
f 152/2/5 138/2/5 151/2/5
f 153/4/5 140/4/5 139/4/5
f 153/3/5 139/3/5 152/3/5
f 154/5/5 141/5/5 140/5/5
f 154/4/5 140/4/5 153/4/5
f 155/4/5 142/4/5 141/4/5
f 155/5/5 141/5/5 154/5/5
f 156/3/5 143/3/5 142/3/5
f 156/4/5 142/4/5 155/4/5
f 157/2/5 144/2/5 143/2/5
f 157/3/5 143/3/5 156/3/5
f 158/3/5 145/3/5 144/3/5
f 158/2/5 144/2/5 157/2/5
f 159/4/5 146/4/5 145/4/5
f 159/3/5 145/3/5 158/3/5
f 160/5/5 147/5/5 146/5/5
f 160/4/5 146/4/5 159/4/5
f 161/1/5 106/1/5 147/1/5
f 161/5/5 147/5/5 160/5/5
f 162/1/5 148/1/5 105/1/5
f 162/2/5 149/2/5 148/2/5
f 163/3/5 150/3/5 149/3/5
f 163/2/5 149/2/5 162/2/5
f 164/4/5 151/4/5 150/4/5
f 164/3/5 150/3/5 163/3/5
f 165/5/5 152/5/5 151/5/5
f 165/4/5 151/4/5 164/4/5
f 166/4/5 153/4/5 152/4/5
f 166/5/5 152/5/5 165/5/5
f 167/3/5 154/3/5 153/3/5
f 167/4/5 153/4/5 166/4/5
f 168/2/5 155/2/5 154/2/5
f 168/3/5 154/3/5 167/3/5
f 169/3/5 156/3/5 155/3/5
f 169/2/5 155/2/5 168/2/5
f 170/4/5 157/4/5 156/4/5
f 170/3/5 156/3/5 169/3/5
f 171/5/5 158/5/5 157/5/5
f 171/4/5 157/4/5 170/4/5
f 172/4/5 159/4/5 158/4/5
f 172/5/5 158/5/5 171/5/5
f 173/3/5 160/3/5 159/3/5
f 173/4/5 159/4/5 172/4/5
f 174/2/5 161/2/5 160/2/5
f 174/3/5 160/3/5 173/3/5
f 175/1/5 106/1/5 161/1/5
f 175/2/5 161/2/5 174/2/5
f 176/1/5 162/1/5 105/1/5
f 176/5/5 163/5/5 162/5/5
f 177/4/5 164/4/5 163/4/5
f 177/5/5 163/5/5 176/5/5
f 178/3/5 165/3/5 164/3/5
f 178/4/5 164/4/5 177/4/5
f 179/2/5 166/2/5 165/2/5
f 179/3/5 165/3/5 178/3/5
f 180/3/5 167/3/5 166/3/5
f 180/2/5 166/2/5 179/2/5
f 181/4/5 168/4/5 167/4/5
f 181/3/5 167/3/5 180/3/5
f 182/5/5 169/5/5 168/5/5
f 182/4/5 168/4/5 181/4/5
f 183/4/5 170/4/5 169/4/5
f 183/5/5 169/5/5 182/5/5
f 184/3/5 171/3/5 170/3/5
f 184/4/5 170/4/5 183/4/5
f 185/2/5 172/2/5 171/2/5
f 185/3/5 171/3/5 184/3/5
f 186/3/5 173/3/5 172/3/5
f 186/2/5 172/2/5 185/2/5
f 187/4/5 174/4/5 173/4/5
f 187/3/5 173/3/5 186/3/5
f 188/5/5 175/5/5 174/5/5
f 188/4/5 174/4/5 187/4/5
f 189/1/5 106/1/5 175/1/5
f 189/5/5 175/5/5 188/5/5
f 190/1/5 176/1/5 105/1/5
f 190/2/5 177/2/5 176/2/5
f 191/3/5 178/3/5 177/3/5
f 191/2/5 177/2/5 190/2/5
f 192/4/5 179/4/5 178/4/5
f 192/3/5 178/3/5 191/3/5
f 193/5/5 180/5/5 179/5/5
f 193/4/5 179/4/5 192/4/5
f 194/4/5 181/4/5 180/4/5
f 194/5/5 180/5/5 193/5/5
f 195/3/5 182/3/5 181/3/5
f 195/4/5 181/4/5 194/4/5
f 196/2/5 183/2/5 182/2/5
f 196/3/5 182/3/5 195/3/5
f 197/3/5 184/3/5 183/3/5
f 197/2/5 183/2/5 196/2/5
f 198/4/5 185/4/5 184/4/5
f 198/3/5 184/3/5 197/3/5
f 199/5/5 186/5/5 185/5/5
f 199/4/5 185/4/5 198/4/5
f 200/4/5 187/4/5 186/4/5
f 200/5/5 186/5/5 199/5/5
f 201/3/5 188/3/5 187/3/5
f 201/4/5 187/4/5 200/4/5
f 202/2/5 189/2/5 188/2/5
f 202/3/5 188/3/5 201/3/5
f 203/1/5 106/1/5 189/1/5
f 203/2/5 189/2/5 202/2/5
f 204/1/5 192/1/5 191/1/5
f 204/1/5 191/1/5 190/1/5
f 204/1/5 203/1/5 202/1/5
f 204/1/5 195/1/5 194/1/5
f 204/1/5 190/1/5 105/1/5
f 204/1/5 201/1/5 200/1/5
f 204/1/5 202/1/5 201/1/5
f 204/1/5 199/1/5 198/1/5
f 204/1/5 200/1/5 199/1/5
f 204/1/5 197/1/5 196/1/5
f 204/1/5 198/1/5 197/1/5
f 204/1/5 196/1/5 195/1/5
f 204/1/5 193/1/5 192/1/5
f 204/1/5 194/1/5 193/1/5
f 205/1/5 203/1/5 204/1/5
f 206/1/5 203/1/5 205/1/5
f 207/1/5 106/1/5 203/1/5
f 207/1/5 203/1/5 206/1/5
f 208/1/5 206/1/5 205/1/5
f 209/1/5 206/1/5 208/1/5
f 216/1/5 211/1/5 210/1/5
f 217/1/5 211/1/5 216/1/5
f 218/1/5 213/1/5 212/1/5
f 219/6/5 214/6/5 213/6/5
f 219/1/5 213/1/5 218/1/5
f 220/1/5 215/1/5 214/1/5
f 220/6/5 214/6/5 219/6/5
f 221/1/5 215/1/5 220/1/5
f 222/1/6 223/1/6 224/1/6
f 224/1/6 223/1/6 225/1/6
f 225/1/6 223/1/6 226/1/6
f 226/1/6 223/1/6 227/1/6
f 227/1/6 223/1/6 228/1/6
f 228/1/6 223/1/6 229/1/6
f 229/1/6 223/1/6 230/1/6
f 230/1/6 223/1/6 231/1/6
f 231/1/6 223/1/6 232/1/6
f 232/1/6 223/1/6 233/1/6
f 233/1/6 223/1/6 234/1/6
f 234/1/6 223/1/6 235/1/6
f 235/1/6 223/1/6 236/1/6
f 222/1/6 224/1/6 237/1/6
f 224/5/6 225/5/6 237/5/6
f 225/4/6 226/4/6 238/4/6
f 237/5/6 225/5/6 238/5/6
f 226/3/6 227/3/6 239/3/6
f 238/4/6 226/4/6 239/4/6
f 227/2/6 228/2/6 240/2/6
f 239/3/6 227/3/6 240/3/6
f 240/2/6 228/2/6 241/2/6
f 228/4/6 229/4/6 242/4/6
f 241/2/6 228/2/6 242/2/6
f 229/5/6 230/5/6 243/5/6
f 242/4/6 229/4/6 243/4/6
f 230/4/6 231/4/6 244/4/6
f 243/5/6 230/5/6 244/5/6
f 231/3/6 232/3/6 245/3/6
f 244/4/6 231/4/6 245/4/6
f 232/2/6 233/2/6 246/2/6
f 245/3/6 232/3/6 246/3/6
f 233/3/6 234/3/6 247/3/6
f 246/2/6 233/2/6 247/2/6
f 234/4/6 235/4/6 248/4/6
f 247/3/6 234/3/6 248/3/6
f 235/5/6 236/5/6 249/5/6
f 248/4/6 235/4/6 249/4/6
f 236/1/6 223/1/6 250/1/6
f 249/5/6 236/5/6 250/5/6
f 222/1/6 237/1/6 251/1/6
f 237/2/6 238/2/6 251/2/6
f 238/3/6 239/3/6 252/3/6
f 251/2/6 238/2/6 252/2/6
f 239/4/6 240/4/6 253/4/6
f 252/3/6 239/3/6 253/3/6
f 240/5/6 241/5/6 254/5/6
f 253/4/6 240/4/6 254/4/6
f 241/4/6 242/4/6 255/4/6
f 254/5/6 241/5/6 255/5/6
f 242/3/6 243/3/6 256/3/6
f 255/4/6 242/4/6 256/4/6
f 243/2/6 244/2/6 257/2/6
f 256/3/6 243/3/6 257/3/6
f 244/3/6 245/3/6 258/3/6
f 257/2/6 244/2/6 258/2/6
f 245/4/6 246/4/6 259/4/6
f 258/3/6 245/3/6 259/3/6
f 246/5/6 247/5/6 260/5/6
f 259/4/6 246/4/6 260/4/6
f 247/4/6 248/4/6 261/4/6
f 260/5/6 247/5/6 261/5/6
f 248/3/6 249/3/6 262/3/6
f 261/4/6 248/4/6 262/4/6
f 249/2/6 250/2/6 263/2/6
f 262/3/6 249/3/6 263/3/6
f 250/1/6 223/1/6 264/1/6
f 263/2/6 250/2/6 264/2/6
f 222/1/6 251/1/6 265/1/6
f 251/5/6 252/5/6 265/5/6
f 252/4/6 253/4/6 266/4/6
f 265/5/6 252/5/6 266/5/6
f 253/3/6 254/3/6 267/3/6
f 266/4/6 253/4/6 267/4/6
f 254/2/6 255/2/6 268/2/6
f 267/3/6 254/3/6 268/3/6
f 255/3/6 256/3/6 269/3/6
f 268/2/6 255/2/6 269/2/6
f 256/4/6 257/4/6 270/4/6
f 269/3/6 256/3/6 270/3/6
f 257/5/6 258/5/6 271/5/6
f 270/4/6 257/4/6 271/4/6
f 258/4/6 259/4/6 272/4/6
f 271/5/6 258/5/6 272/5/6
f 259/3/6 260/3/6 273/3/6
f 272/4/6 259/4/6 273/4/6
f 260/2/6 261/2/6 274/2/6
f 273/3/6 260/3/6 274/3/6
f 261/3/6 262/3/6 275/3/6
f 274/2/6 261/2/6 275/2/6
f 262/4/6 263/4/6 276/4/6
f 275/3/6 262/3/6 276/3/6
f 263/5/6 264/5/6 277/5/6
f 276/4/6 263/4/6 277/4/6
f 264/1/6 223/1/6 278/1/6
f 277/5/6 264/5/6 278/5/6
f 222/1/6 265/1/6 279/1/6
f 265/2/6 266/2/6 279/2/6
f 266/3/6 267/3/6 280/3/6
f 279/2/6 266/2/6 280/2/6
f 267/4/6 268/4/6 281/4/6
f 280/3/6 267/3/6 281/3/6
f 268/5/6 269/5/6 282/5/6
f 281/4/6 268/4/6 282/4/6
f 269/4/6 270/4/6 283/4/6
f 282/5/6 269/5/6 283/5/6
f 270/3/6 271/3/6 284/3/6
f 283/4/6 270/4/6 284/4/6
f 271/2/6 272/2/6 285/2/6
f 284/3/6 271/3/6 285/3/6
f 272/3/6 273/3/6 286/3/6
f 285/2/6 272/2/6 286/2/6
f 273/4/6 274/4/6 287/4/6
f 286/3/6 273/3/6 287/3/6
f 274/5/6 275/5/6 288/5/6
f 287/4/6 274/4/6 288/4/6
f 275/4/6 276/4/6 289/4/6
f 288/5/6 275/5/6 289/5/6
f 276/3/6 277/3/6 290/3/6
f 289/4/6 276/4/6 290/4/6
f 277/2/6 278/2/6 291/2/6
f 290/3/6 277/3/6 291/3/6
f 278/1/6 223/1/6 292/1/6
f 291/2/6 278/2/6 292/2/6
f 222/1/6 279/1/6 293/1/6
f 279/5/6 280/5/6 293/5/6
f 280/4/6 281/4/6 294/4/6
f 293/5/6 280/5/6 294/5/6
f 281/3/6 282/3/6 295/3/6
f 294/4/6 281/4/6 295/4/6
f 282/2/6 283/2/6 296/2/6
f 295/3/6 282/3/6 296/3/6
f 283/3/6 284/3/6 297/3/6
f 296/2/6 283/2/6 297/2/6
f 284/4/6 285/4/6 298/4/6
f 297/3/6 284/3/6 298/3/6
f 285/5/6 286/5/6 299/5/6
f 298/4/6 285/4/6 299/4/6
f 286/4/6 287/4/6 300/4/6
f 299/5/6 286/5/6 300/5/6
f 287/3/6 288/3/6 301/3/6
f 300/4/6 287/4/6 301/4/6
f 288/2/6 289/2/6 302/2/6
f 301/3/6 288/3/6 302/3/6
f 289/3/6 290/3/6 303/3/6
f 302/2/6 289/2/6 303/2/6
f 290/4/6 291/4/6 304/4/6
f 303/3/6 290/3/6 304/3/6
f 291/5/6 292/5/6 305/5/6
f 304/4/6 291/4/6 305/4/6
f 292/1/6 223/1/6 306/1/6
f 305/5/6 292/5/6 306/5/6
f 222/1/6 293/1/6 307/1/6
f 293/2/6 294/2/6 307/2/6
f 294/3/6 295/3/6 308/3/6
f 307/2/6 294/2/6 308/2/6
f 295/4/6 296/4/6 309/4/6
f 308/3/6 295/3/6 309/3/6
f 296/5/6 297/5/6 310/5/6
f 309/4/6 296/4/6 310/4/6
f 297/4/6 298/4/6 311/4/6
f 310/5/6 297/5/6 311/5/6
f 298/3/6 299/3/6 312/3/6
f 311/4/6 298/4/6 312/4/6
f 299/2/6 300/2/6 313/2/6
f 312/3/6 299/3/6 313/3/6
f 300/3/6 301/3/6 314/3/6
f 313/2/6 300/2/6 314/2/6
f 301/4/6 302/4/6 315/4/6
f 314/3/6 301/3/6 315/3/6
f 302/5/6 303/5/6 316/5/6
f 315/4/6 302/4/6 316/4/6
f 303/4/6 304/4/6 317/4/6
f 316/5/6 303/5/6 317/5/6
f 304/3/6 305/3/6 318/3/6
f 317/4/6 304/4/6 318/4/6
f 305/2/6 306/2/6 319/2/6
f 318/3/6 305/3/6 319/3/6
f 306/1/6 223/1/6 320/1/6
f 319/2/6 306/2/6 320/2/6
f 308/1/6 309/1/6 321/1/6
f 307/1/6 308/1/6 321/1/6
f 319/1/6 320/1/6 321/1/6
f 311/1/6 312/1/6 321/1/6
f 222/1/6 307/1/6 321/1/6
f 317/1/6 318/1/6 321/1/6
f 318/1/6 319/1/6 321/1/6
f 315/1/6 316/1/6 321/1/6
f 316/1/6 317/1/6 321/1/6
f 313/1/6 314/1/6 321/1/6
f 314/1/6 315/1/6 321/1/6
f 312/1/6 313/1/6 321/1/6
f 309/1/6 310/1/6 321/1/6
f 310/1/6 311/1/6 321/1/6
f 320/1/6 223/1/6 322/1/6
f 321/1/6 320/1/6 322/1/6
f 323/1/6 324/1/6 325/1/6
f 325/1/6 324/1/6 326/1/6
f 327/1/6 328/1/6 329/1/6
f 329/1/6 328/1/6 330/1/6
