# MagicaVoxel @ ephtracy

# material
mtllib LaptopImages.mtl
usemtl palette

# normals
vn -1 0 0
vn 1 0 0
vn 0 0 1
vn 0 0 -1
vn 0 -1 0
vn 0 1 0

# texcoords
vt 0.00195313 0.5
vt 0.00976563 0.5
vt 0.0136719 0.5
vt 0.0175781 0.5
vt 0.0214844 0.5
vt 0.0371094 0.5
vt 0.0410156 0.5
vt 0.0488281 0.5

# verts
v -7.5 0 7.5
v -7.5 0 -1.5
v -7.5 1 7.5
v -7.5 1 -0.5
v -7.5 9 -0.5
v -7.5 9 -1.5
v -6.5 1 -1.5
v -6.5 1 -2.5
v -6.5 8 -1.5
v -6.5 8 -2.5
v -2.5 0 -1.5
v -2.5 0 -2.5
v -2.5 1 -1.5
v -2.5 1 -2.5
v 2.5 0 -1.5
v 2.5 0 -2.5
v 2.5 1 -1.5
v 2.5 1 -2.5
v 6.5 1 -1.5
v 6.5 1 -2.5
v 6.5 8 -1.5
v 6.5 8 -2.5
v 7.5 0 7.5
v 7.5 0 -1.5
v 7.5 1 7.5
v 7.5 1 -0.5
v 7.5 9 -0.5
v 7.5 9 -1.5
v -7.5 0 7.5
v -7.5 1 7.5
v 7.5 0 7.5
v 7.5 1 7.5
v -7.5 1 -0.5
v -7.5 9 -0.5
v -6.5 2 -0.5
v -6.5 8 -0.5
v -5.5 3 -0.5
v -5.5 6 -0.5
v -5.5 7 -0.5
v -1.5 3 -0.5
v -1.5 6 -0.5
v -1.5 7 -0.5
v -0.5 3 -0.5
v -0.5 4 -0.5
v -0.5 5 -0.5
v -0.5 6 -0.5
v 0.5 3 -0.5
v 0.5 4 -0.5
v 0.5 5 -0.5
v 0.5 6 -0.5
v 1.5 3 -0.5
v 1.5 6 -0.5
v 1.5 7 -0.5
v 5.5 3 -0.5
v 5.5 6 -0.5
v 5.5 7 -0.5
v 6.5 2 -0.5
v 6.5 8 -0.5
v 7.5 1 -0.5
v 7.5 9 -0.5
v -7.5 0 -1.5
v -7.5 9 -1.5
v -6.5 1 -1.5
v -6.5 8 -1.5
v -2.5 0 -1.5
v -2.5 1 -1.5
v 2.5 0 -1.5
v 2.5 1 -1.5
v 4.5 1 -1.5
v 5.5 1 -1.5
v 6.5 1 -1.5
v 6.5 8 -1.5
v 7.5 0 -1.5
v 7.5 9 -1.5
v -6.5 1 -2.5
v -6.5 8 -2.5
v -2.5 0 -2.5
v -2.5 1 -2.5
v 2.5 0 -2.5
v 2.5 1 -2.5
v 4.5 1 -2.5
v 4.5 2 -2.5
v 5.5 1 -2.5
v 5.5 2 -2.5
v 6.5 1 -2.5
v 6.5 8 -2.5
v -7.5 0 7.5
v 7.5 0 7.5
v -6.5 0 6.5
v -5.5 0 6.5
v -4.5 0 6.5
v -3.5 0 6.5
v -1.5 0 6.5
v -0.5 0 6.5
v 0.5 0 6.5
v 1.5 0 6.5
v 2.5 0 6.5
v 3.5 0 6.5
v 4.5 0 6.5
v 5.5 0 6.5
v 6.5 0 6.5
v -6.5 0 5.5
v -5.5 0 5.5
v -4.5 0 5.5
v -3.5 0 5.5
v -2.5 0 5.5
v -1.5 0 5.5
v -0.5 0 5.5
v 0.5 0 5.5
v 1.5 0 5.5
v 2.5 0 5.5
v 3.5 0 5.5
v 4.5 0 5.5
v 5.5 0 5.5
v 6.5 0 5.5
v -6.5 0 4.5
v -5.5 0 4.5
v -4.5 0 4.5
v -3.5 0 4.5
v -2.5 0 4.5
v -1.5 0 4.5
v -0.5 0 4.5
v 0.5 0 4.5
v 1.5 0 4.5
v 2.5 0 4.5
v 3.5 0 4.5
v 4.5 0 4.5
v 5.5 0 4.5
v 6.5 0 4.5
v -6.5 0 3.5
v -5.5 0 3.5
v -4.5 0 3.5
v -3.5 0 3.5
v -2.5 0 3.5
v -1.5 0 3.5
v -0.5 0 3.5
v 0.5 0 3.5
v 1.5 0 3.5
v 2.5 0 3.5
v 3.5 0 3.5
v 4.5 0 3.5
v 5.5 0 3.5
v 6.5 0 3.5
v -6.5 0 2.5
v -5.5 0 2.5
v -4.5 0 2.5
v -3.5 0 2.5
v -2.5 0 2.5
v -1.5 0 2.5
v -0.5 0 2.5
v 0.5 0 2.5
v 1.5 0 2.5
v 2.5 0 2.5
v 3.5 0 2.5
v 4.5 0 2.5
v 5.5 0 2.5
v 6.5 0 2.5
v -6.5 0 1.5
v -5.5 0 1.5
v -4.5 0 1.5
v -3.5 0 1.5
v -2.5 0 1.5
v -1.5 0 1.5
v -0.5 0 1.5
v 0.5 0 1.5
v 1.5 0 1.5
v 2.5 0 1.5
v 3.5 0 1.5
v 4.5 0 1.5
v 5.5 0 1.5
v 6.5 0 1.5
v -6.5 0 0.5
v -5.5 0 0.5
v -4.5 0 0.5
v -3.5 0 0.5
v -2.5 0 0.5
v -1.5 0 0.5
v -0.5 0 0.5
v 0.5 0 0.5
v 1.5 0 0.5
v 2.5 0 0.5
v 3.5 0 0.5
v 4.5 0 0.5
v 5.5 0 0.5
v 6.5 0 0.5
v -7.5 0 -1.5
v -2.5 0 -1.5
v 2.5 0 -1.5
v 7.5 0 -1.5
v -2.5 0 -2.5
v 2.5 0 -2.5
v -6.5 1 -1.5
v -2.5 1 -1.5
v 2.5 1 -1.5
v 4.5 1 -1.5
v 5.5 1 -1.5
v 6.5 1 -1.5
v -6.5 1 -2.5
v -2.5 1 -2.5
v 2.5 1 -2.5
v 4.5 1 -2.5
v 5.5 1 -2.5
v 6.5 1 -2.5
v -7.5 1 7.5
v 7.5 1 7.5
v -6.5 1 6.5
v -5.5 1 6.5
v -4.5 1 6.5
v -3.5 1 6.5
v -1.5 1 6.5
v -0.5 1 6.5
v 0.5 1 6.5
v 1.5 1 6.5
v 2.5 1 6.5
v 3.5 1 6.5
v 4.5 1 6.5
v 5.5 1 6.5
v 6.5 1 6.5
v -6.5 1 5.5
v -5.5 1 5.5
v -4.5 1 5.5
v -3.5 1 5.5
v -2.5 1 5.5
v -1.5 1 5.5
v -0.5 1 5.5
v 0.5 1 5.5
v 1.5 1 5.5
v 2.5 1 5.5
v 3.5 1 5.5
v 4.5 1 5.5
v 5.5 1 5.5
v 6.5 1 5.5
v -6.5 1 4.5
v -5.5 1 4.5
v -4.5 1 4.5
v -3.5 1 4.5
v -2.5 1 4.5
v -1.5 1 4.5
v -0.5 1 4.5
v 0.5 1 4.5
v 1.5 1 4.5
v 2.5 1 4.5
v 3.5 1 4.5
v 4.5 1 4.5
v 5.5 1 4.5
v 6.5 1 4.5
v -6.5 1 3.5
v -5.5 1 3.5
v -4.5 1 3.5
v -3.5 1 3.5
v -2.5 1 3.5
v -1.5 1 3.5
v -0.5 1 3.5
v 0.5 1 3.5
v 1.5 1 3.5
v 2.5 1 3.5
v 3.5 1 3.5
v 4.5 1 3.5
v 5.5 1 3.5
v 6.5 1 3.5
v -6.5 1 2.5
v -5.5 1 2.5
v -4.5 1 2.5
v -3.5 1 2.5
v -2.5 1 2.5
v -1.5 1 2.5
v -0.5 1 2.5
v 0.5 1 2.5
v 1.5 1 2.5
v 2.5 1 2.5
v 3.5 1 2.5
v 4.5 1 2.5
v 5.5 1 2.5
v 6.5 1 2.5
v -6.5 1 1.5
v -5.5 1 1.5
v -4.5 1 1.5
v -3.5 1 1.5
v -2.5 1 1.5
v -1.5 1 1.5
v -0.5 1 1.5
v 0.5 1 1.5
v 1.5 1 1.5
v 2.5 1 1.5
v 3.5 1 1.5
v 4.5 1 1.5
v 5.5 1 1.5
v 6.5 1 1.5
v -6.5 1 0.5
v -5.5 1 0.5
v -4.5 1 0.5
v -3.5 1 0.5
v -2.5 1 0.5
v -1.5 1 0.5
v -0.5 1 0.5
v 0.5 1 0.5
v 1.5 1 0.5
v 2.5 1 0.5
v 3.5 1 0.5
v 4.5 1 0.5
v 5.5 1 0.5
v 6.5 1 0.5
v -7.5 1 -0.5
v 7.5 1 -0.5
v -6.5 8 -1.5
v 6.5 8 -1.5
v -6.5 8 -2.5
v 6.5 8 -2.5
v -7.5 9 -0.5
v 7.5 9 -0.5
v -7.5 9 -1.5
v 7.5 9 -1.5

# faces
f 3/1/1 2/1/1 1/1/1
f 4/1/1 2/1/1 3/1/1
f 5/1/1 2/1/1 4/1/1
f 6/1/1 2/1/1 5/1/1
f 9/1/1 8/1/1 7/1/1
f 10/1/1 8/1/1 9/1/1
f 13/1/1 12/1/1 11/1/1
f 14/1/1 12/1/1 13/1/1
f 15/1/2 16/1/2 17/1/2
f 17/1/2 16/1/2 18/1/2
f 19/1/2 20/1/2 21/1/2
f 21/1/2 20/1/2 22/1/2
f 23/1/2 24/1/2 25/1/2
f 25/1/2 24/1/2 26/1/2
f 26/1/2 24/1/2 27/1/2
f 27/1/2 24/1/2 28/1/2
f 31/1/3 30/1/3 29/1/3
f 32/1/3 30/1/3 31/1/3
f 35/1/3 34/1/3 33/1/3
f 36/1/3 34/1/3 35/1/3
f 37/8/3 36/8/3 35/8/3
f 38/8/3 36/8/3 37/8/3
f 39/8/3 36/8/3 38/8/3
f 40/8/3 37/8/3 35/8/3
f 40/6/3 38/6/3 37/6/3
f 41/7/3 39/7/3 38/7/3
f 41/6/3 38/6/3 40/6/3
f 42/8/3 36/8/3 39/8/3
f 42/7/3 39/7/3 41/7/3
f 43/8/3 41/8/3 40/8/3
f 43/8/3 40/8/3 35/8/3
f 43/8/3 42/8/3 41/8/3
f 44/8/3 42/8/3 43/8/3
f 45/8/3 42/8/3 44/8/3
f 46/8/3 42/8/3 45/8/3
f 47/8/3 43/8/3 35/8/3
f 47/2/3 44/2/3 43/2/3
f 48/8/3 45/8/3 44/8/3
f 48/2/3 44/2/3 47/2/3
f 49/2/3 46/2/3 45/2/3
f 49/8/3 45/8/3 48/8/3
f 50/8/3 42/8/3 46/8/3
f 50/2/3 46/2/3 49/2/3
f 51/8/3 49/8/3 48/8/3
f 51/8/3 48/8/3 47/8/3
f 51/8/3 50/8/3 49/8/3
f 51/8/3 47/8/3 35/8/3
f 52/8/3 42/8/3 50/8/3
f 52/8/3 50/8/3 51/8/3
f 53/8/3 36/8/3 42/8/3
f 53/8/3 42/8/3 52/8/3
f 54/6/3 52/6/3 51/6/3
f 54/8/3 51/8/3 35/8/3
f 55/7/3 53/7/3 52/7/3
f 55/6/3 52/6/3 54/6/3
f 56/8/3 36/8/3 53/8/3
f 56/7/3 53/7/3 55/7/3
f 57/1/3 35/1/3 33/1/3
f 57/8/3 55/8/3 54/8/3
f 57/8/3 56/8/3 55/8/3
f 57/8/3 54/8/3 35/8/3
f 58/8/3 36/8/3 56/8/3
f 58/8/3 56/8/3 57/8/3
f 58/1/3 34/1/3 36/1/3
f 59/1/3 57/1/3 33/1/3
f 59/1/3 58/1/3 57/1/3
f 60/1/3 34/1/3 58/1/3
f 60/1/3 58/1/3 59/1/3
f 61/1/4 62/1/4 63/1/4
f 63/1/4 62/1/4 64/1/4
f 61/1/4 63/1/4 65/1/4
f 65/1/4 63/1/4 66/1/4
f 67/1/4 68/1/4 69/1/4
f 67/1/4 69/1/4 70/1/4
f 67/1/4 70/1/4 71/1/4
f 64/1/4 62/1/4 72/1/4
f 67/1/4 71/1/4 73/1/4
f 71/1/4 72/1/4 73/1/4
f 72/1/4 62/1/4 74/1/4
f 73/1/4 72/1/4 74/1/4
f 75/1/4 76/1/4 78/1/4
f 77/1/4 78/1/4 79/1/4
f 78/1/4 76/1/4 80/1/4
f 79/1/4 78/1/4 80/1/4
f 80/1/4 76/1/4 81/1/4
f 81/1/4 76/1/4 82/1/4
f 81/6/4 82/6/4 83/6/4
f 82/1/4 76/1/4 84/1/4
f 83/6/4 82/6/4 84/6/4
f 83/1/4 84/1/4 85/1/4
f 84/1/4 76/1/4 86/1/4
f 85/1/4 84/1/4 86/1/4
f 89/1/5 88/1/5 87/1/5
f 90/1/5 88/1/5 89/1/5
f 91/1/5 88/1/5 90/1/5
f 92/1/5 88/1/5 91/1/5
f 93/1/5 88/1/5 92/1/5
f 94/1/5 88/1/5 93/1/5
f 95/1/5 88/1/5 94/1/5
f 96/1/5 88/1/5 95/1/5
f 97/1/5 88/1/5 96/1/5
f 98/1/5 88/1/5 97/1/5
f 99/1/5 88/1/5 98/1/5
f 100/1/5 88/1/5 99/1/5
f 101/1/5 88/1/5 100/1/5
f 102/1/5 89/1/5 87/1/5
f 102/5/5 90/5/5 89/5/5
f 103/4/5 91/4/5 90/4/5
f 103/5/5 90/5/5 102/5/5
f 104/3/5 92/3/5 91/3/5
f 104/4/5 91/4/5 103/4/5
f 105/2/5 93/2/5 92/2/5
f 105/3/5 92/3/5 104/3/5
f 106/2/5 93/2/5 105/2/5
f 107/4/5 94/4/5 93/4/5
f 107/2/5 93/2/5 106/2/5
f 108/5/5 95/5/5 94/5/5
f 108/4/5 94/4/5 107/4/5
f 109/4/5 96/4/5 95/4/5
f 109/5/5 95/5/5 108/5/5
f 110/3/5 97/3/5 96/3/5
f 110/4/5 96/4/5 109/4/5
f 111/2/5 98/2/5 97/2/5
f 111/3/5 97/3/5 110/3/5
f 112/3/5 99/3/5 98/3/5
f 112/2/5 98/2/5 111/2/5
f 113/4/5 100/4/5 99/4/5
f 113/3/5 99/3/5 112/3/5
f 114/5/5 101/5/5 100/5/5
f 114/4/5 100/4/5 113/4/5
f 115/1/5 88/1/5 101/1/5
f 115/5/5 101/5/5 114/5/5
f 116/1/5 102/1/5 87/1/5
f 116/2/5 103/2/5 102/2/5
f 117/3/5 104/3/5 103/3/5
f 117/2/5 103/2/5 116/2/5
f 118/4/5 105/4/5 104/4/5
f 118/3/5 104/3/5 117/3/5
f 119/5/5 106/5/5 105/5/5
f 119/4/5 105/4/5 118/4/5
f 120/4/5 107/4/5 106/4/5
f 120/5/5 106/5/5 119/5/5
f 121/3/5 108/3/5 107/3/5
f 121/4/5 107/4/5 120/4/5
f 122/2/5 109/2/5 108/2/5
f 122/3/5 108/3/5 121/3/5
f 123/3/5 110/3/5 109/3/5
f 123/2/5 109/2/5 122/2/5
f 124/4/5 111/4/5 110/4/5
f 124/3/5 110/3/5 123/3/5
f 125/5/5 112/5/5 111/5/5
f 125/4/5 111/4/5 124/4/5
f 126/4/5 113/4/5 112/4/5
f 126/5/5 112/5/5 125/5/5
f 127/3/5 114/3/5 113/3/5
f 127/4/5 113/4/5 126/4/5
f 128/2/5 115/2/5 114/2/5
f 128/3/5 114/3/5 127/3/5
f 129/1/5 88/1/5 115/1/5
f 129/2/5 115/2/5 128/2/5
f 130/1/5 116/1/5 87/1/5
f 130/5/5 117/5/5 116/5/5
f 131/4/5 118/4/5 117/4/5
f 131/5/5 117/5/5 130/5/5
f 132/3/5 119/3/5 118/3/5
f 132/4/5 118/4/5 131/4/5
f 133/2/5 120/2/5 119/2/5
f 133/3/5 119/3/5 132/3/5
f 134/3/5 121/3/5 120/3/5
f 134/2/5 120/2/5 133/2/5
f 135/4/5 122/4/5 121/4/5
f 135/3/5 121/3/5 134/3/5
f 136/5/5 123/5/5 122/5/5
f 136/4/5 122/4/5 135/4/5
f 137/4/5 124/4/5 123/4/5
f 137/5/5 123/5/5 136/5/5
f 138/3/5 125/3/5 124/3/5
f 138/4/5 124/4/5 137/4/5
f 139/2/5 126/2/5 125/2/5
f 139/3/5 125/3/5 138/3/5
f 140/3/5 127/3/5 126/3/5
f 140/2/5 126/2/5 139/2/5
f 141/4/5 128/4/5 127/4/5
f 141/3/5 127/3/5 140/3/5
f 142/5/5 129/5/5 128/5/5
f 142/4/5 128/4/5 141/4/5
f 143/1/5 88/1/5 129/1/5
f 143/5/5 129/5/5 142/5/5
f 144/1/5 130/1/5 87/1/5
f 144/2/5 131/2/5 130/2/5
f 145/3/5 132/3/5 131/3/5
f 145/2/5 131/2/5 144/2/5
f 146/4/5 133/4/5 132/4/5
f 146/3/5 132/3/5 145/3/5
f 147/5/5 134/5/5 133/5/5
f 147/4/5 133/4/5 146/4/5
f 148/4/5 135/4/5 134/4/5
f 148/5/5 134/5/5 147/5/5
f 149/3/5 136/3/5 135/3/5
f 149/4/5 135/4/5 148/4/5
f 150/2/5 137/2/5 136/2/5
f 150/3/5 136/3/5 149/3/5
f 151/3/5 138/3/5 137/3/5
f 151/2/5 137/2/5 150/2/5
f 152/4/5 139/4/5 138/4/5
f 152/3/5 138/3/5 151/3/5
f 153/5/5 140/5/5 139/5/5
f 153/4/5 139/4/5 152/4/5
f 154/4/5 141/4/5 140/4/5
f 154/5/5 140/5/5 153/5/5
f 155/3/5 142/3/5 141/3/5
f 155/4/5 141/4/5 154/4/5
f 156/2/5 143/2/5 142/2/5
f 156/3/5 142/3/5 155/3/5
f 157/1/5 88/1/5 143/1/5
f 157/2/5 143/2/5 156/2/5
f 158/1/5 144/1/5 87/1/5
f 158/5/5 145/5/5 144/5/5
f 159/4/5 146/4/5 145/4/5
f 159/5/5 145/5/5 158/5/5
f 160/3/5 147/3/5 146/3/5
f 160/4/5 146/4/5 159/4/5
f 161/2/5 148/2/5 147/2/5
f 161/3/5 147/3/5 160/3/5
f 162/3/5 149/3/5 148/3/5
f 162/2/5 148/2/5 161/2/5
f 163/4/5 150/4/5 149/4/5
f 163/3/5 149/3/5 162/3/5
f 164/5/5 151/5/5 150/5/5
f 164/4/5 150/4/5 163/4/5
f 165/4/5 152/4/5 151/4/5
f 165/5/5 151/5/5 164/5/5
f 166/3/5 153/3/5 152/3/5
f 166/4/5 152/4/5 165/4/5
f 167/2/5 154/2/5 153/2/5
f 167/3/5 153/3/5 166/3/5
f 168/3/5 155/3/5 154/3/5
f 168/2/5 154/2/5 167/2/5
f 169/4/5 156/4/5 155/4/5
f 169/3/5 155/3/5 168/3/5
f 170/5/5 157/5/5 156/5/5
f 170/4/5 156/4/5 169/4/5
f 171/1/5 88/1/5 157/1/5
f 171/5/5 157/5/5 170/5/5
f 172/1/5 158/1/5 87/1/5
f 172/2/5 159/2/5 158/2/5
f 173/3/5 160/3/5 159/3/5
f 173/2/5 159/2/5 172/2/5
f 174/4/5 161/4/5 160/4/5
f 174/3/5 160/3/5 173/3/5
f 175/5/5 162/5/5 161/5/5
f 175/4/5 161/4/5 174/4/5
f 176/4/5 163/4/5 162/4/5
f 176/5/5 162/5/5 175/5/5
f 177/3/5 164/3/5 163/3/5
f 177/4/5 163/4/5 176/4/5
f 178/2/5 165/2/5 164/2/5
f 178/3/5 164/3/5 177/3/5
f 179/3/5 166/3/5 165/3/5
f 179/2/5 165/2/5 178/2/5
f 180/4/5 167/4/5 166/4/5
f 180/3/5 166/3/5 179/3/5
f 181/5/5 168/5/5 167/5/5
f 181/4/5 167/4/5 180/4/5
f 182/4/5 169/4/5 168/4/5
f 182/5/5 168/5/5 181/5/5
f 183/3/5 170/3/5 169/3/5
f 183/4/5 169/4/5 182/4/5
f 184/2/5 171/2/5 170/2/5
f 184/3/5 170/3/5 183/3/5
f 185/1/5 88/1/5 171/1/5
f 185/2/5 171/2/5 184/2/5
f 186/1/5 174/1/5 173/1/5
f 186/1/5 173/1/5 172/1/5
f 186/1/5 185/1/5 184/1/5
f 186/1/5 177/1/5 176/1/5
f 186/1/5 172/1/5 87/1/5
f 186/1/5 183/1/5 182/1/5
f 186/1/5 184/1/5 183/1/5
f 186/1/5 181/1/5 180/1/5
f 186/1/5 182/1/5 181/1/5
f 186/1/5 179/1/5 178/1/5
f 186/1/5 180/1/5 179/1/5
f 186/1/5 178/1/5 177/1/5
f 186/1/5 175/1/5 174/1/5
f 186/1/5 176/1/5 175/1/5
f 187/1/5 185/1/5 186/1/5
f 188/1/5 185/1/5 187/1/5
f 189/1/5 88/1/5 185/1/5
f 189/1/5 185/1/5 188/1/5
f 190/1/5 188/1/5 187/1/5
f 191/1/5 188/1/5 190/1/5
f 198/1/5 193/1/5 192/1/5
f 199/1/5 193/1/5 198/1/5
f 200/1/5 195/1/5 194/1/5
f 201/6/5 196/6/5 195/6/5
f 201/1/5 195/1/5 200/1/5
f 202/1/5 197/1/5 196/1/5
f 202/6/5 196/6/5 201/6/5
f 203/1/5 197/1/5 202/1/5
f 204/1/6 205/1/6 206/1/6
f 206/1/6 205/1/6 207/1/6
f 207/1/6 205/1/6 208/1/6
f 208/1/6 205/1/6 209/1/6
f 209/1/6 205/1/6 210/1/6
f 210/1/6 205/1/6 211/1/6
f 211/1/6 205/1/6 212/1/6
f 212/1/6 205/1/6 213/1/6
f 213/1/6 205/1/6 214/1/6
f 214/1/6 205/1/6 215/1/6
f 215/1/6 205/1/6 216/1/6
f 216/1/6 205/1/6 217/1/6
f 217/1/6 205/1/6 218/1/6
f 204/1/6 206/1/6 219/1/6
f 206/5/6 207/5/6 219/5/6
f 207/4/6 208/4/6 220/4/6
f 219/5/6 207/5/6 220/5/6
f 208/3/6 209/3/6 221/3/6
f 220/4/6 208/4/6 221/4/6
f 209/2/6 210/2/6 222/2/6
f 221/3/6 209/3/6 222/3/6
f 222/2/6 210/2/6 223/2/6
f 210/4/6 211/4/6 224/4/6
f 223/2/6 210/2/6 224/2/6
f 211/5/6 212/5/6 225/5/6
f 224/4/6 211/4/6 225/4/6
f 212/4/6 213/4/6 226/4/6
f 225/5/6 212/5/6 226/5/6
f 213/3/6 214/3/6 227/3/6
f 226/4/6 213/4/6 227/4/6
f 214/2/6 215/2/6 228/2/6
f 227/3/6 214/3/6 228/3/6
f 215/3/6 216/3/6 229/3/6
f 228/2/6 215/2/6 229/2/6
f 216/4/6 217/4/6 230/4/6
f 229/3/6 216/3/6 230/3/6
f 217/5/6 218/5/6 231/5/6
f 230/4/6 217/4/6 231/4/6
f 218/1/6 205/1/6 232/1/6
f 231/5/6 218/5/6 232/5/6
f 204/1/6 219/1/6 233/1/6
f 219/2/6 220/2/6 233/2/6
f 220/3/6 221/3/6 234/3/6
f 233/2/6 220/2/6 234/2/6
f 221/4/6 222/4/6 235/4/6
f 234/3/6 221/3/6 235/3/6
f 222/5/6 223/5/6 236/5/6
f 235/4/6 222/4/6 236/4/6
f 223/4/6 224/4/6 237/4/6
f 236/5/6 223/5/6 237/5/6
f 224/3/6 225/3/6 238/3/6
f 237/4/6 224/4/6 238/4/6
f 225/2/6 226/2/6 239/2/6
f 238/3/6 225/3/6 239/3/6
f 226/3/6 227/3/6 240/3/6
f 239/2/6 226/2/6 240/2/6
f 227/4/6 228/4/6 241/4/6
f 240/3/6 227/3/6 241/3/6
f 228/5/6 229/5/6 242/5/6
f 241/4/6 228/4/6 242/4/6
f 229/4/6 230/4/6 243/4/6
f 242/5/6 229/5/6 243/5/6
f 230/3/6 231/3/6 244/3/6
f 243/4/6 230/4/6 244/4/6
f 231/2/6 232/2/6 245/2/6
f 244/3/6 231/3/6 245/3/6
f 232/1/6 205/1/6 246/1/6
f 245/2/6 232/2/6 246/2/6
f 204/1/6 233/1/6 247/1/6
f 233/5/6 234/5/6 247/5/6
f 234/4/6 235/4/6 248/4/6
f 247/5/6 234/5/6 248/5/6
f 235/3/6 236/3/6 249/3/6
f 248/4/6 235/4/6 249/4/6
f 236/2/6 237/2/6 250/2/6
f 249/3/6 236/3/6 250/3/6
f 237/3/6 238/3/6 251/3/6
f 250/2/6 237/2/6 251/2/6
f 238/4/6 239/4/6 252/4/6
f 251/3/6 238/3/6 252/3/6
f 239/5/6 240/5/6 253/5/6
f 252/4/6 239/4/6 253/4/6
f 240/4/6 241/4/6 254/4/6
f 253/5/6 240/5/6 254/5/6
f 241/3/6 242/3/6 255/3/6
f 254/4/6 241/4/6 255/4/6
f 242/2/6 243/2/6 256/2/6
f 255/3/6 242/3/6 256/3/6
f 243/3/6 244/3/6 257/3/6
f 256/2/6 243/2/6 257/2/6
f 244/4/6 245/4/6 258/4/6
f 257/3/6 244/3/6 258/3/6
f 245/5/6 246/5/6 259/5/6
f 258/4/6 245/4/6 259/4/6
f 246/1/6 205/1/6 260/1/6
f 259/5/6 246/5/6 260/5/6
f 204/1/6 247/1/6 261/1/6
f 247/2/6 248/2/6 261/2/6
f 248/3/6 249/3/6 262/3/6
f 261/2/6 248/2/6 262/2/6
f 249/4/6 250/4/6 263/4/6
f 262/3/6 249/3/6 263/3/6
f 250/5/6 251/5/6 264/5/6
f 263/4/6 250/4/6 264/4/6
f 251/4/6 252/4/6 265/4/6
f 264/5/6 251/5/6 265/5/6
f 252/3/6 253/3/6 266/3/6
f 265/4/6 252/4/6 266/4/6
f 253/2/6 254/2/6 267/2/6
f 266/3/6 253/3/6 267/3/6
f 254/3/6 255/3/6 268/3/6
f 267/2/6 254/2/6 268/2/6
f 255/4/6 256/4/6 269/4/6
f 268/3/6 255/3/6 269/3/6
f 256/5/6 257/5/6 270/5/6
f 269/4/6 256/4/6 270/4/6
f 257/4/6 258/4/6 271/4/6
f 270/5/6 257/5/6 271/5/6
f 258/3/6 259/3/6 272/3/6
f 271/4/6 258/4/6 272/4/6
f 259/2/6 260/2/6 273/2/6
f 272/3/6 259/3/6 273/3/6
f 260/1/6 205/1/6 274/1/6
f 273/2/6 260/2/6 274/2/6
f 204/1/6 261/1/6 275/1/6
f 261/5/6 262/5/6 275/5/6
f 262/4/6 263/4/6 276/4/6
f 275/5/6 262/5/6 276/5/6
f 263/3/6 264/3/6 277/3/6
f 276/4/6 263/4/6 277/4/6
f 264/2/6 265/2/6 278/2/6
f 277/3/6 264/3/6 278/3/6
f 265/3/6 266/3/6 279/3/6
f 278/2/6 265/2/6 279/2/6
f 266/4/6 267/4/6 280/4/6
f 279/3/6 266/3/6 280/3/6
f 267/5/6 268/5/6 281/5/6
f 280/4/6 267/4/6 281/4/6
f 268/4/6 269/4/6 282/4/6
f 281/5/6 268/5/6 282/5/6
f 269/3/6 270/3/6 283/3/6
f 282/4/6 269/4/6 283/4/6
f 270/2/6 271/2/6 284/2/6
f 283/3/6 270/3/6 284/3/6
f 271/3/6 272/3/6 285/3/6
f 284/2/6 271/2/6 285/2/6
f 272/4/6 273/4/6 286/4/6
f 285/3/6 272/3/6 286/3/6
f 273/5/6 274/5/6 287/5/6
f 286/4/6 273/4/6 287/4/6
f 274/1/6 205/1/6 288/1/6
f 287/5/6 274/5/6 288/5/6
f 204/1/6 275/1/6 289/1/6
f 275/2/6 276/2/6 289/2/6
f 276/3/6 277/3/6 290/3/6
f 289/2/6 276/2/6 290/2/6
f 277/4/6 278/4/6 291/4/6
f 290/3/6 277/3/6 291/3/6
f 278/5/6 279/5/6 292/5/6
f 291/4/6 278/4/6 292/4/6
f 279/4/6 280/4/6 293/4/6
f 292/5/6 279/5/6 293/5/6
f 280/3/6 281/3/6 294/3/6
f 293/4/6 280/4/6 294/4/6
f 281/2/6 282/2/6 295/2/6
f 294/3/6 281/3/6 295/3/6
f 282/3/6 283/3/6 296/3/6
f 295/2/6 282/2/6 296/2/6
f 283/4/6 284/4/6 297/4/6
f 296/3/6 283/3/6 297/3/6
f 284/5/6 285/5/6 298/5/6
f 297/4/6 284/4/6 298/4/6
f 285/4/6 286/4/6 299/4/6
f 298/5/6 285/5/6 299/5/6
f 286/3/6 287/3/6 300/3/6
f 299/4/6 286/4/6 300/4/6
f 287/2/6 288/2/6 301/2/6
f 300/3/6 287/3/6 301/3/6
f 288/1/6 205/1/6 302/1/6
f 301/2/6 288/2/6 302/2/6
f 290/1/6 291/1/6 303/1/6
f 289/1/6 290/1/6 303/1/6
f 301/1/6 302/1/6 303/1/6
f 293/1/6 294/1/6 303/1/6
f 204/1/6 289/1/6 303/1/6
f 299/1/6 300/1/6 303/1/6
f 300/1/6 301/1/6 303/1/6
f 297/1/6 298/1/6 303/1/6
f 298/1/6 299/1/6 303/1/6
f 295/1/6 296/1/6 303/1/6
f 296/1/6 297/1/6 303/1/6
f 294/1/6 295/1/6 303/1/6
f 291/1/6 292/1/6 303/1/6
f 292/1/6 293/1/6 303/1/6
f 302/1/6 205/1/6 304/1/6
f 303/1/6 302/1/6 304/1/6
f 305/1/6 306/1/6 307/1/6
f 307/1/6 306/1/6 308/1/6
f 309/1/6 310/1/6 311/1/6
f 311/1/6 310/1/6 312/1/6
