# MagicaVoxel @ ephtracy

# material
mtllib LaptopOff.mtl
usemtl palette

# normals
vn -1 0 0
vn 1 0 0
vn 0 0 1
vn 0 0 -1
vn 0 -1 0
vn 0 1 0

# texcoords
vt 0.00195313 0.5
vt 0.00585938 0.5
vt 0.00976563 0.5
vt 0.0136719 0.5
vt 0.0175781 0.5
vt 0.0214844 0.5
vt 0.0371094 0.5

# verts
v -7.5 0 7.5
v -7.5 0 -1.5
v -7.5 1 7.5
v -7.5 1 -0.5
v -7.5 9 -0.5
v -7.5 9 -1.5
v -6.5 1 -1.5
v -6.5 1 -2.5
v -6.5 8 -1.5
v -6.5 8 -2.5
v -2.5 0 -1.5
v -2.5 0 -2.5
v -2.5 1 -1.5
v -2.5 1 -2.5
v 2.5 0 -1.5
v 2.5 0 -2.5
v 2.5 1 -1.5
v 2.5 1 -2.5
v 6.5 1 -1.5
v 6.5 1 -2.5
v 6.5 8 -1.5
v 6.5 8 -2.5
v 7.5 0 7.5
v 7.5 0 -1.5
v 7.5 1 7.5
v 7.5 1 -0.5
v 7.5 9 -0.5
v 7.5 9 -1.5
v -7.5 0 7.5
v -7.5 1 7.5
v 7.5 0 7.5
v 7.5 1 7.5
v -7.5 1 -0.5
v -7.5 9 -0.5
v -6.5 2 -0.5
v -6.5 8 -0.5
v 6.5 2 -0.5
v 6.5 8 -0.5
v 7.5 1 -0.5
v 7.5 9 -0.5
v -7.5 0 -1.5
v -7.5 9 -1.5
v -6.5 1 -1.5
v -6.5 8 -1.5
v -2.5 0 -1.5
v -2.5 1 -1.5
v 2.5 0 -1.5
v 2.5 1 -1.5
v 4.5 1 -1.5
v 5.5 1 -1.5
v 6.5 1 -1.5
v 6.5 8 -1.5
v 7.5 0 -1.5
v 7.5 9 -1.5
v -6.5 1 -2.5
v -6.5 8 -2.5
v -2.5 0 -2.5
v -2.5 1 -2.5
v 2.5 0 -2.5
v 2.5 1 -2.5
v 4.5 1 -2.5
v 4.5 2 -2.5
v 5.5 1 -2.5
v 5.5 2 -2.5
v 6.5 1 -2.5
v 6.5 8 -2.5
v -7.5 0 7.5
v 7.5 0 7.5
v -6.5 0 6.5
v -5.5 0 6.5
v -4.5 0 6.5
v -3.5 0 6.5
v -1.5 0 6.5
v -0.5 0 6.5
v 0.5 0 6.5
v 1.5 0 6.5
v 2.5 0 6.5
v 3.5 0 6.5
v 4.5 0 6.5
v 5.5 0 6.5
v 6.5 0 6.5
v -6.5 0 5.5
v -5.5 0 5.5
v -4.5 0 5.5
v -3.5 0 5.5
v -2.5 0 5.5
v -1.5 0 5.5
v -0.5 0 5.5
v 0.5 0 5.5
v 1.5 0 5.5
v 2.5 0 5.5
v 3.5 0 5.5
v 4.5 0 5.5
v 5.5 0 5.5
v 6.5 0 5.5
v -6.5 0 4.5
v -5.5 0 4.5
v -4.5 0 4.5
v -3.5 0 4.5
v -2.5 0 4.5
v -1.5 0 4.5
v -0.5 0 4.5
v 0.5 0 4.5
v 1.5 0 4.5
v 2.5 0 4.5
v 3.5 0 4.5
v 4.5 0 4.5
v 5.5 0 4.5
v 6.5 0 4.5
v -6.5 0 3.5
v -5.5 0 3.5
v -4.5 0 3.5
v -3.5 0 3.5
v -2.5 0 3.5
v -1.5 0 3.5
v -0.5 0 3.5
v 0.5 0 3.5
v 1.5 0 3.5
v 2.5 0 3.5
v 3.5 0 3.5
v 4.5 0 3.5
v 5.5 0 3.5
v 6.5 0 3.5
v -6.5 0 2.5
v -5.5 0 2.5
v -4.5 0 2.5
v -3.5 0 2.5
v -2.5 0 2.5
v -1.5 0 2.5
v -0.5 0 2.5
v 0.5 0 2.5
v 1.5 0 2.5
v 2.5 0 2.5
v 3.5 0 2.5
v 4.5 0 2.5
v 5.5 0 2.5
v 6.5 0 2.5
v -6.5 0 1.5
v -5.5 0 1.5
v -4.5 0 1.5
v -3.5 0 1.5
v -2.5 0 1.5
v -1.5 0 1.5
v -0.5 0 1.5
v 0.5 0 1.5
v 1.5 0 1.5
v 2.5 0 1.5
v 3.5 0 1.5
v 4.5 0 1.5
v 5.5 0 1.5
v 6.5 0 1.5
v -6.5 0 0.5
v -5.5 0 0.5
v -4.5 0 0.5
v -3.5 0 0.5
v -2.5 0 0.5
v -1.5 0 0.5
v -0.5 0 0.5
v 0.5 0 0.5
v 1.5 0 0.5
v 2.5 0 0.5
v 3.5 0 0.5
v 4.5 0 0.5
v 5.5 0 0.5
v 6.5 0 0.5
v -7.5 0 -1.5
v -2.5 0 -1.5
v 2.5 0 -1.5
v 7.5 0 -1.5
v -2.5 0 -2.5
v 2.5 0 -2.5
v -6.5 1 -1.5
v -2.5 1 -1.5
v 2.5 1 -1.5
v 4.5 1 -1.5
v 5.5 1 -1.5
v 6.5 1 -1.5
v -6.5 1 -2.5
v -2.5 1 -2.5
v 2.5 1 -2.5
v 4.5 1 -2.5
v 5.5 1 -2.5
v 6.5 1 -2.5
v -7.5 1 7.5
v 7.5 1 7.5
v -6.5 1 6.5
v -5.5 1 6.5
v -4.5 1 6.5
v -3.5 1 6.5
v -1.5 1 6.5
v -0.5 1 6.5
v 0.5 1 6.5
v 1.5 1 6.5
v 2.5 1 6.5
v 3.5 1 6.5
v 4.5 1 6.5
v 5.5 1 6.5
v 6.5 1 6.5
v -6.5 1 5.5
v -5.5 1 5.5
v -4.5 1 5.5
v -3.5 1 5.5
v -2.5 1 5.5
v -1.5 1 5.5
v -0.5 1 5.5
v 0.5 1 5.5
v 1.5 1 5.5
v 2.5 1 5.5
v 3.5 1 5.5
v 4.5 1 5.5
v 5.5 1 5.5
v 6.5 1 5.5
v -6.5 1 4.5
v -5.5 1 4.5
v -4.5 1 4.5
v -3.5 1 4.5
v -2.5 1 4.5
v -1.5 1 4.5
v -0.5 1 4.5
v 0.5 1 4.5
v 1.5 1 4.5
v 2.5 1 4.5
v 3.5 1 4.5
v 4.5 1 4.5
v 5.5 1 4.5
v 6.5 1 4.5
v -6.5 1 3.5
v -5.5 1 3.5
v -4.5 1 3.5
v -3.5 1 3.5
v -2.5 1 3.5
v -1.5 1 3.5
v -0.5 1 3.5
v 0.5 1 3.5
v 1.5 1 3.5
v 2.5 1 3.5
v 3.5 1 3.5
v 4.5 1 3.5
v 5.5 1 3.5
v 6.5 1 3.5
v -6.5 1 2.5
v -5.5 1 2.5
v -4.5 1 2.5
v -3.5 1 2.5
v -2.5 1 2.5
v -1.5 1 2.5
v -0.5 1 2.5
v 0.5 1 2.5
v 1.5 1 2.5
v 2.5 1 2.5
v 3.5 1 2.5
v 4.5 1 2.5
v 5.5 1 2.5
v 6.5 1 2.5
v -6.5 1 1.5
v -5.5 1 1.5
v -4.5 1 1.5
v -3.5 1 1.5
v -2.5 1 1.5
v -1.5 1 1.5
v -0.5 1 1.5
v 0.5 1 1.5
v 1.5 1 1.5
v 2.5 1 1.5
v 3.5 1 1.5
v 4.5 1 1.5
v 5.5 1 1.5
v 6.5 1 1.5
v -6.5 1 0.5
v -5.5 1 0.5
v -4.5 1 0.5
v -3.5 1 0.5
v -2.5 1 0.5
v -1.5 1 0.5
v -0.5 1 0.5
v 0.5 1 0.5
v 1.5 1 0.5
v 2.5 1 0.5
v 3.5 1 0.5
v 4.5 1 0.5
v 5.5 1 0.5
v 6.5 1 0.5
v -7.5 1 -0.5
v 7.5 1 -0.5
v -6.5 8 -1.5
v 6.5 8 -1.5
v -6.5 8 -2.5
v 6.5 8 -2.5
v -7.5 9 -0.5
v 7.5 9 -0.5
v -7.5 9 -1.5
v 7.5 9 -1.5

# faces
f 3/1/1 2/1/1 1/1/1
f 4/1/1 2/1/1 3/1/1
f 5/1/1 2/1/1 4/1/1
f 6/1/1 2/1/1 5/1/1
f 9/1/1 8/1/1 7/1/1
f 10/1/1 8/1/1 9/1/1
f 13/1/1 12/1/1 11/1/1
f 14/1/1 12/1/1 13/1/1
f 15/1/2 16/1/2 17/1/2
f 17/1/2 16/1/2 18/1/2
f 19/1/2 20/1/2 21/1/2
f 21/1/2 20/1/2 22/1/2
f 23/1/2 24/1/2 25/1/2
f 25/1/2 24/1/2 26/1/2
f 26/1/2 24/1/2 27/1/2
f 27/1/2 24/1/2 28/1/2
f 31/1/3 30/1/3 29/1/3
f 32/1/3 30/1/3 31/1/3
f 35/1/3 34/1/3 33/1/3
f 36/1/3 34/1/3 35/1/3
f 37/1/3 35/1/3 33/1/3
f 37/2/3 36/2/3 35/2/3
f 38/1/3 34/1/3 36/1/3
f 38/2/3 36/2/3 37/2/3
f 39/1/3 37/1/3 33/1/3
f 39/1/3 38/1/3 37/1/3
f 40/1/3 34/1/3 38/1/3
f 40/1/3 38/1/3 39/1/3
f 41/1/4 42/1/4 43/1/4
f 43/1/4 42/1/4 44/1/4
f 41/1/4 43/1/4 45/1/4
f 45/1/4 43/1/4 46/1/4
f 47/1/4 48/1/4 49/1/4
f 47/1/4 49/1/4 50/1/4
f 47/1/4 50/1/4 51/1/4
f 44/1/4 42/1/4 52/1/4
f 47/1/4 51/1/4 53/1/4
f 51/1/4 52/1/4 53/1/4
f 52/1/4 42/1/4 54/1/4
f 53/1/4 52/1/4 54/1/4
f 55/1/4 56/1/4 58/1/4
f 57/1/4 58/1/4 59/1/4
f 58/1/4 56/1/4 60/1/4
f 59/1/4 58/1/4 60/1/4
f 60/1/4 56/1/4 61/1/4
f 61/1/4 56/1/4 62/1/4
f 61/7/4 62/7/4 63/7/4
f 62/1/4 56/1/4 64/1/4
f 63/7/4 62/7/4 64/7/4
f 63/1/4 64/1/4 65/1/4
f 64/1/4 56/1/4 66/1/4
f 65/1/4 64/1/4 66/1/4
f 69/1/5 68/1/5 67/1/5
f 70/1/5 68/1/5 69/1/5
f 71/1/5 68/1/5 70/1/5
f 72/1/5 68/1/5 71/1/5
f 73/1/5 68/1/5 72/1/5
f 74/1/5 68/1/5 73/1/5
f 75/1/5 68/1/5 74/1/5
f 76/1/5 68/1/5 75/1/5
f 77/1/5 68/1/5 76/1/5
f 78/1/5 68/1/5 77/1/5
f 79/1/5 68/1/5 78/1/5
f 80/1/5 68/1/5 79/1/5
f 81/1/5 68/1/5 80/1/5
f 82/1/5 69/1/5 67/1/5
f 82/6/5 70/6/5 69/6/5
f 83/5/5 71/5/5 70/5/5
f 83/6/5 70/6/5 82/6/5
f 84/4/5 72/4/5 71/4/5
f 84/5/5 71/5/5 83/5/5
f 85/3/5 73/3/5 72/3/5
f 85/4/5 72/4/5 84/4/5
f 86/3/5 73/3/5 85/3/5
f 87/5/5 74/5/5 73/5/5
f 87/3/5 73/3/5 86/3/5
f 88/6/5 75/6/5 74/6/5
f 88/5/5 74/5/5 87/5/5
f 89/5/5 76/5/5 75/5/5
f 89/6/5 75/6/5 88/6/5
f 90/4/5 77/4/5 76/4/5
f 90/5/5 76/5/5 89/5/5
f 91/3/5 78/3/5 77/3/5
f 91/4/5 77/4/5 90/4/5
f 92/4/5 79/4/5 78/4/5
f 92/3/5 78/3/5 91/3/5
f 93/5/5 80/5/5 79/5/5
f 93/4/5 79/4/5 92/4/5
f 94/6/5 81/6/5 80/6/5
f 94/5/5 80/5/5 93/5/5
f 95/1/5 68/1/5 81/1/5
f 95/6/5 81/6/5 94/6/5
f 96/1/5 82/1/5 67/1/5
f 96/3/5 83/3/5 82/3/5
f 97/4/5 84/4/5 83/4/5
f 97/3/5 83/3/5 96/3/5
f 98/5/5 85/5/5 84/5/5
f 98/4/5 84/4/5 97/4/5
f 99/6/5 86/6/5 85/6/5
f 99/5/5 85/5/5 98/5/5
f 100/5/5 87/5/5 86/5/5
f 100/6/5 86/6/5 99/6/5
f 101/4/5 88/4/5 87/4/5
f 101/5/5 87/5/5 100/5/5
f 102/3/5 89/3/5 88/3/5
f 102/4/5 88/4/5 101/4/5
f 103/4/5 90/4/5 89/4/5
f 103/3/5 89/3/5 102/3/5
f 104/5/5 91/5/5 90/5/5
f 104/4/5 90/4/5 103/4/5
f 105/6/5 92/6/5 91/6/5
f 105/5/5 91/5/5 104/5/5
f 106/5/5 93/5/5 92/5/5
f 106/6/5 92/6/5 105/6/5
f 107/4/5 94/4/5 93/4/5
f 107/5/5 93/5/5 106/5/5
f 108/3/5 95/3/5 94/3/5
f 108/4/5 94/4/5 107/4/5
f 109/1/5 68/1/5 95/1/5
f 109/3/5 95/3/5 108/3/5
f 110/1/5 96/1/5 67/1/5
f 110/6/5 97/6/5 96/6/5
f 111/5/5 98/5/5 97/5/5
f 111/6/5 97/6/5 110/6/5
f 112/4/5 99/4/5 98/4/5
f 112/5/5 98/5/5 111/5/5
f 113/3/5 100/3/5 99/3/5
f 113/4/5 99/4/5 112/4/5
f 114/4/5 101/4/5 100/4/5
f 114/3/5 100/3/5 113/3/5
f 115/5/5 102/5/5 101/5/5
f 115/4/5 101/4/5 114/4/5
f 116/6/5 103/6/5 102/6/5
f 116/5/5 102/5/5 115/5/5
f 117/5/5 104/5/5 103/5/5
f 117/6/5 103/6/5 116/6/5
f 118/4/5 105/4/5 104/4/5
f 118/5/5 104/5/5 117/5/5
f 119/3/5 106/3/5 105/3/5
f 119/4/5 105/4/5 118/4/5
f 120/4/5 107/4/5 106/4/5
f 120/3/5 106/3/5 119/3/5
f 121/5/5 108/5/5 107/5/5
f 121/4/5 107/4/5 120/4/5
f 122/6/5 109/6/5 108/6/5
f 122/5/5 108/5/5 121/5/5
f 123/1/5 68/1/5 109/1/5
f 123/6/5 109/6/5 122/6/5
f 124/1/5 110/1/5 67/1/5
f 124/3/5 111/3/5 110/3/5
f 125/4/5 112/4/5 111/4/5
f 125/3/5 111/3/5 124/3/5
f 126/5/5 113/5/5 112/5/5
f 126/4/5 112/4/5 125/4/5
f 127/6/5 114/6/5 113/6/5
f 127/5/5 113/5/5 126/5/5
f 128/5/5 115/5/5 114/5/5
f 128/6/5 114/6/5 127/6/5
f 129/4/5 116/4/5 115/4/5
f 129/5/5 115/5/5 128/5/5
f 130/3/5 117/3/5 116/3/5
f 130/4/5 116/4/5 129/4/5
f 131/4/5 118/4/5 117/4/5
f 131/3/5 117/3/5 130/3/5
f 132/5/5 119/5/5 118/5/5
f 132/4/5 118/4/5 131/4/5
f 133/6/5 120/6/5 119/6/5
f 133/5/5 119/5/5 132/5/5
f 134/5/5 121/5/5 120/5/5
f 134/6/5 120/6/5 133/6/5
f 135/4/5 122/4/5 121/4/5
f 135/5/5 121/5/5 134/5/5
f 136/3/5 123/3/5 122/3/5
f 136/4/5 122/4/5 135/4/5
f 137/1/5 68/1/5 123/1/5
f 137/3/5 123/3/5 136/3/5
f 138/1/5 124/1/5 67/1/5
f 138/6/5 125/6/5 124/6/5
f 139/5/5 126/5/5 125/5/5
f 139/6/5 125/6/5 138/6/5
f 140/4/5 127/4/5 126/4/5
f 140/5/5 126/5/5 139/5/5
f 141/3/5 128/3/5 127/3/5
f 141/4/5 127/4/5 140/4/5
f 142/4/5 129/4/5 128/4/5
f 142/3/5 128/3/5 141/3/5
f 143/5/5 130/5/5 129/5/5
f 143/4/5 129/4/5 142/4/5
f 144/6/5 131/6/5 130/6/5
f 144/5/5 130/5/5 143/5/5
f 145/5/5 132/5/5 131/5/5
f 145/6/5 131/6/5 144/6/5
f 146/4/5 133/4/5 132/4/5
f 146/5/5 132/5/5 145/5/5
f 147/3/5 134/3/5 133/3/5
f 147/4/5 133/4/5 146/4/5
f 148/4/5 135/4/5 134/4/5
f 148/3/5 134/3/5 147/3/5
f 149/5/5 136/5/5 135/5/5
f 149/4/5 135/4/5 148/4/5
f 150/6/5 137/6/5 136/6/5
f 150/5/5 136/5/5 149/5/5
f 151/1/5 68/1/5 137/1/5
f 151/6/5 137/6/5 150/6/5
f 152/1/5 138/1/5 67/1/5
f 152/3/5 139/3/5 138/3/5
f 153/4/5 140/4/5 139/4/5
f 153/3/5 139/3/5 152/3/5
f 154/5/5 141/5/5 140/5/5
f 154/4/5 140/4/5 153/4/5
f 155/6/5 142/6/5 141/6/5
f 155/5/5 141/5/5 154/5/5
f 156/5/5 143/5/5 142/5/5
f 156/6/5 142/6/5 155/6/5
f 157/4/5 144/4/5 143/4/5
f 157/5/5 143/5/5 156/5/5
f 158/3/5 145/3/5 144/3/5
f 158/4/5 144/4/5 157/4/5
f 159/4/5 146/4/5 145/4/5
f 159/3/5 145/3/5 158/3/5
f 160/5/5 147/5/5 146/5/5
f 160/4/5 146/4/5 159/4/5
f 161/6/5 148/6/5 147/6/5
f 161/5/5 147/5/5 160/5/5
f 162/5/5 149/5/5 148/5/5
f 162/6/5 148/6/5 161/6/5
f 163/4/5 150/4/5 149/4/5
f 163/5/5 149/5/5 162/5/5
f 164/3/5 151/3/5 150/3/5
f 164/4/5 150/4/5 163/4/5
f 165/1/5 68/1/5 151/1/5
f 165/3/5 151/3/5 164/3/5
f 166/1/5 154/1/5 153/1/5
f 166/1/5 153/1/5 152/1/5
f 166/1/5 165/1/5 164/1/5
f 166/1/5 157/1/5 156/1/5
f 166/1/5 152/1/5 67/1/5
f 166/1/5 163/1/5 162/1/5
f 166/1/5 164/1/5 163/1/5
f 166/1/5 161/1/5 160/1/5
f 166/1/5 162/1/5 161/1/5
f 166/1/5 159/1/5 158/1/5
f 166/1/5 160/1/5 159/1/5
f 166/1/5 158/1/5 157/1/5
f 166/1/5 155/1/5 154/1/5
f 166/1/5 156/1/5 155/1/5
f 167/1/5 165/1/5 166/1/5
f 168/1/5 165/1/5 167/1/5
f 169/1/5 68/1/5 165/1/5
f 169/1/5 165/1/5 168/1/5
f 170/1/5 168/1/5 167/1/5
f 171/1/5 168/1/5 170/1/5
f 178/1/5 173/1/5 172/1/5
f 179/1/5 173/1/5 178/1/5
f 180/1/5 175/1/5 174/1/5
f 181/7/5 176/7/5 175/7/5
f 181/1/5 175/1/5 180/1/5
f 182/1/5 177/1/5 176/1/5
f 182/7/5 176/7/5 181/7/5
f 183/1/5 177/1/5 182/1/5
f 184/1/6 185/1/6 186/1/6
f 186/1/6 185/1/6 187/1/6
f 187/1/6 185/1/6 188/1/6
f 188/1/6 185/1/6 189/1/6
f 189/1/6 185/1/6 190/1/6
f 190/1/6 185/1/6 191/1/6
f 191/1/6 185/1/6 192/1/6
f 192/1/6 185/1/6 193/1/6
f 193/1/6 185/1/6 194/1/6
f 194/1/6 185/1/6 195/1/6
f 195/1/6 185/1/6 196/1/6
f 196/1/6 185/1/6 197/1/6
f 197/1/6 185/1/6 198/1/6
f 184/1/6 186/1/6 199/1/6
f 186/6/6 187/6/6 199/6/6
f 187/5/6 188/5/6 200/5/6
f 199/6/6 187/6/6 200/6/6
f 188/4/6 189/4/6 201/4/6
f 200/5/6 188/5/6 201/5/6
f 189/3/6 190/3/6 202/3/6
f 201/4/6 189/4/6 202/4/6
f 202/3/6 190/3/6 203/3/6
f 190/5/6 191/5/6 204/5/6
f 203/3/6 190/3/6 204/3/6
f 191/6/6 192/6/6 205/6/6
f 204/5/6 191/5/6 205/5/6
f 192/5/6 193/5/6 206/5/6
f 205/6/6 192/6/6 206/6/6
f 193/4/6 194/4/6 207/4/6
f 206/5/6 193/5/6 207/5/6
f 194/3/6 195/3/6 208/3/6
f 207/4/6 194/4/6 208/4/6
f 195/4/6 196/4/6 209/4/6
f 208/3/6 195/3/6 209/3/6
f 196/5/6 197/5/6 210/5/6
f 209/4/6 196/4/6 210/4/6
f 197/6/6 198/6/6 211/6/6
f 210/5/6 197/5/6 211/5/6
f 198/1/6 185/1/6 212/1/6
f 211/6/6 198/6/6 212/6/6
f 184/1/6 199/1/6 213/1/6
f 199/3/6 200/3/6 213/3/6
f 200/4/6 201/4/6 214/4/6
f 213/3/6 200/3/6 214/3/6
f 201/5/6 202/5/6 215/5/6
f 214/4/6 201/4/6 215/4/6
f 202/6/6 203/6/6 216/6/6
f 215/5/6 202/5/6 216/5/6
f 203/5/6 204/5/6 217/5/6
f 216/6/6 203/6/6 217/6/6
f 204/4/6 205/4/6 218/4/6
f 217/5/6 204/5/6 218/5/6
f 205/3/6 206/3/6 219/3/6
f 218/4/6 205/4/6 219/4/6
f 206/4/6 207/4/6 220/4/6
f 219/3/6 206/3/6 220/3/6
f 207/5/6 208/5/6 221/5/6
f 220/4/6 207/4/6 221/4/6
f 208/6/6 209/6/6 222/6/6
f 221/5/6 208/5/6 222/5/6
f 209/5/6 210/5/6 223/5/6
f 222/6/6 209/6/6 223/6/6
f 210/4/6 211/4/6 224/4/6
f 223/5/6 210/5/6 224/5/6
f 211/3/6 212/3/6 225/3/6
f 224/4/6 211/4/6 225/4/6
f 212/1/6 185/1/6 226/1/6
f 225/3/6 212/3/6 226/3/6
f 184/1/6 213/1/6 227/1/6
f 213/6/6 214/6/6 227/6/6
f 214/5/6 215/5/6 228/5/6
f 227/6/6 214/6/6 228/6/6
f 215/4/6 216/4/6 229/4/6
f 228/5/6 215/5/6 229/5/6
f 216/3/6 217/3/6 230/3/6
f 229/4/6 216/4/6 230/4/6
f 217/4/6 218/4/6 231/4/6
f 230/3/6 217/3/6 231/3/6
f 218/5/6 219/5/6 232/5/6
f 231/4/6 218/4/6 232/4/6
f 219/6/6 220/6/6 233/6/6
f 232/5/6 219/5/6 233/5/6
f 220/5/6 221/5/6 234/5/6
f 233/6/6 220/6/6 234/6/6
f 221/4/6 222/4/6 235/4/6
f 234/5/6 221/5/6 235/5/6
f 222/3/6 223/3/6 236/3/6
f 235/4/6 222/4/6 236/4/6
f 223/4/6 224/4/6 237/4/6
f 236/3/6 223/3/6 237/3/6
f 224/5/6 225/5/6 238/5/6
f 237/4/6 224/4/6 238/4/6
f 225/6/6 226/6/6 239/6/6
f 238/5/6 225/5/6 239/5/6
f 226/1/6 185/1/6 240/1/6
f 239/6/6 226/6/6 240/6/6
f 184/1/6 227/1/6 241/1/6
f 227/3/6 228/3/6 241/3/6
f 228/4/6 229/4/6 242/4/6
f 241/3/6 228/3/6 242/3/6
f 229/5/6 230/5/6 243/5/6
f 242/4/6 229/4/6 243/4/6
f 230/6/6 231/6/6 244/6/6
f 243/5/6 230/5/6 244/5/6
f 231/5/6 232/5/6 245/5/6
f 244/6/6 231/6/6 245/6/6
f 232/4/6 233/4/6 246/4/6
f 245/5/6 232/5/6 246/5/6
f 233/3/6 234/3/6 247/3/6
f 246/4/6 233/4/6 247/4/6
f 234/4/6 235/4/6 248/4/6
f 247/3/6 234/3/6 248/3/6
f 235/5/6 236/5/6 249/5/6
f 248/4/6 235/4/6 249/4/6
f 236/6/6 237/6/6 250/6/6
f 249/5/6 236/5/6 250/5/6
f 237/5/6 238/5/6 251/5/6
f 250/6/6 237/6/6 251/6/6
f 238/4/6 239/4/6 252/4/6
f 251/5/6 238/5/6 252/5/6
f 239/3/6 240/3/6 253/3/6
f 252/4/6 239/4/6 253/4/6
f 240/1/6 185/1/6 254/1/6
f 253/3/6 240/3/6 254/3/6
f 184/1/6 241/1/6 255/1/6
f 241/6/6 242/6/6 255/6/6
f 242/5/6 243/5/6 256/5/6
f 255/6/6 242/6/6 256/6/6
f 243/4/6 244/4/6 257/4/6
f 256/5/6 243/5/6 257/5/6
f 244/3/6 245/3/6 258/3/6
f 257/4/6 244/4/6 258/4/6
f 245/4/6 246/4/6 259/4/6
f 258/3/6 245/3/6 259/3/6
f 246/5/6 247/5/6 260/5/6
f 259/4/6 246/4/6 260/4/6
f 247/6/6 248/6/6 261/6/6
f 260/5/6 247/5/6 261/5/6
f 248/5/6 249/5/6 262/5/6
f 261/6/6 248/6/6 262/6/6
f 249/4/6 250/4/6 263/4/6
f 262/5/6 249/5/6 263/5/6
f 250/3/6 251/3/6 264/3/6
f 263/4/6 250/4/6 264/4/6
f 251/4/6 252/4/6 265/4/6
f 264/3/6 251/3/6 265/3/6
f 252/5/6 253/5/6 266/5/6
f 265/4/6 252/4/6 266/4/6
f 253/6/6 254/6/6 267/6/6
f 266/5/6 253/5/6 267/5/6
f 254/1/6 185/1/6 268/1/6
f 267/6/6 254/6/6 268/6/6
f 184/1/6 255/1/6 269/1/6
f 255/3/6 256/3/6 269/3/6
f 256/4/6 257/4/6 270/4/6
f 269/3/6 256/3/6 270/3/6
f 257/5/6 258/5/6 271/5/6
f 270/4/6 257/4/6 271/4/6
f 258/6/6 259/6/6 272/6/6
f 271/5/6 258/5/6 272/5/6
f 259/5/6 260/5/6 273/5/6
f 272/6/6 259/6/6 273/6/6
f 260/4/6 261/4/6 274/4/6
f 273/5/6 260/5/6 274/5/6
f 261/3/6 262/3/6 275/3/6
f 274/4/6 261/4/6 275/4/6
f 262/4/6 263/4/6 276/4/6
f 275/3/6 262/3/6 276/3/6
f 263/5/6 264/5/6 277/5/6
f 276/4/6 263/4/6 277/4/6
f 264/6/6 265/6/6 278/6/6
f 277/5/6 264/5/6 278/5/6
f 265/5/6 266/5/6 279/5/6
f 278/6/6 265/6/6 279/6/6
f 266/4/6 267/4/6 280/4/6
f 279/5/6 266/5/6 280/5/6
f 267/3/6 268/3/6 281/3/6
f 280/4/6 267/4/6 281/4/6
f 268/1/6 185/1/6 282/1/6
f 281/3/6 268/3/6 282/3/6
f 270/1/6 271/1/6 283/1/6
f 269/1/6 270/1/6 283/1/6
f 281/1/6 282/1/6 283/1/6
f 273/1/6 274/1/6 283/1/6
f 184/1/6 269/1/6 283/1/6
f 279/1/6 280/1/6 283/1/6
f 280/1/6 281/1/6 283/1/6
f 277/1/6 278/1/6 283/1/6
f 278/1/6 279/1/6 283/1/6
f 275/1/6 276/1/6 283/1/6
f 276/1/6 277/1/6 283/1/6
f 274/1/6 275/1/6 283/1/6
f 271/1/6 272/1/6 283/1/6
f 272/1/6 273/1/6 283/1/6
f 282/1/6 185/1/6 284/1/6
f 283/1/6 282/1/6 284/1/6
f 285/1/6 286/1/6 287/1/6
f 287/1/6 286/1/6 288/1/6
f 289/1/6 290/1/6 291/1/6
f 291/1/6 290/1/6 292/1/6
