# MagicaVoxel @ ephtracy

# material
mtllib LaptopLoading.mtl
usemtl palette

# normals
vn -1 0 0
vn 1 0 0
vn 0 0 1
vn 0 0 -1
vn 0 -1 0
vn 0 1 0

# texcoords
vt 0.00195313 0.5
vt 0.00976563 0.5
vt 0.0136719 0.5
vt 0.0175781 0.5
vt 0.0214844 0.5
vt 0.0371094 0.5
vt 0.0410156 0.5
vt 0.0449219 0.5

# verts
v -7.5 0 7.5
v -7.5 0 -1.5
v -7.5 1 7.5
v -7.5 1 -0.5
v -7.5 9 -0.5
v -7.5 9 -1.5
v -6.5 1 -1.5
v -6.5 1 -2.5
v -6.5 8 -1.5
v -6.5 8 -2.5
v -2.5 0 -1.5
v -2.5 0 -2.5
v -2.5 1 -1.5
v -2.5 1 -2.5
v 2.5 0 -1.5
v 2.5 0 -2.5
v 2.5 1 -1.5
v 2.5 1 -2.5
v 6.5 1 -1.5
v 6.5 1 -2.5
v 6.5 8 -1.5
v 6.5 8 -2.5
v 7.5 0 7.5
v 7.5 0 -1.5
v 7.5 1 7.5
v 7.5 1 -0.5
v 7.5 9 -0.5
v 7.5 9 -1.5
v -7.5 0 7.5
v -7.5 1 7.5
v 7.5 0 7.5
v 7.5 1 7.5
v -7.5 1 -0.5
v -7.5 9 -0.5
v -6.5 2 -0.5
v -6.5 8 -0.5
v -4.5 4 -0.5
v -4.5 5 -0.5
v -0.5 4 -0.5
v -0.5 5 -0.5
v 2.5 4 -0.5
v 2.5 5 -0.5
v 4.5 4 -0.5
v 4.5 5 -0.5
v 6.5 2 -0.5
v 6.5 8 -0.5
v 7.5 1 -0.5
v 7.5 9 -0.5
v -7.5 0 -1.5
v -7.5 9 -1.5
v -6.5 1 -1.5
v -6.5 8 -1.5
v -2.5 0 -1.5
v -2.5 1 -1.5
v 2.5 0 -1.5
v 2.5 1 -1.5
v 4.5 1 -1.5
v 5.5 1 -1.5
v 6.5 1 -1.5
v 6.5 8 -1.5
v 7.5 0 -1.5
v 7.5 9 -1.5
v -6.5 1 -2.5
v -6.5 8 -2.5
v -2.5 0 -2.5
v -2.5 1 -2.5
v 2.5 0 -2.5
v 2.5 1 -2.5
v 4.5 1 -2.5
v 4.5 2 -2.5
v 5.5 1 -2.5
v 5.5 2 -2.5
v 6.5 1 -2.5
v 6.5 8 -2.5
v -7.5 0 7.5
v 7.5 0 7.5
v -6.5 0 6.5
v -5.5 0 6.5
v -4.5 0 6.5
v -3.5 0 6.5
v -1.5 0 6.5
v -0.5 0 6.5
v 0.5 0 6.5
v 1.5 0 6.5
v 2.5 0 6.5
v 3.5 0 6.5
v 4.5 0 6.5
v 5.5 0 6.5
v 6.5 0 6.5
v -6.5 0 5.5
v -5.5 0 5.5
v -4.5 0 5.5
v -3.5 0 5.5
v -2.5 0 5.5
v -1.5 0 5.5
v -0.5 0 5.5
v 0.5 0 5.5
v 1.5 0 5.5
v 2.5 0 5.5
v 3.5 0 5.5
v 4.5 0 5.5
v 5.5 0 5.5
v 6.5 0 5.5
v -6.5 0 4.5
v -5.5 0 4.5
v -4.5 0 4.5
v -3.5 0 4.5
v -2.5 0 4.5
v -1.5 0 4.5
v -0.5 0 4.5
v 0.5 0 4.5
v 1.5 0 4.5
v 2.5 0 4.5
v 3.5 0 4.5
v 4.5 0 4.5
v 5.5 0 4.5
v 6.5 0 4.5
v -6.5 0 3.5
v -5.5 0 3.5
v -4.5 0 3.5
v -3.5 0 3.5
v -2.5 0 3.5
v -1.5 0 3.5
v -0.5 0 3.5
v 0.5 0 3.5
v 1.5 0 3.5
v 2.5 0 3.5
v 3.5 0 3.5
v 4.5 0 3.5
v 5.5 0 3.5
v 6.5 0 3.5
v -6.5 0 2.5
v -5.5 0 2.5
v -4.5 0 2.5
v -3.5 0 2.5
v -2.5 0 2.5
v -1.5 0 2.5
v -0.5 0 2.5
v 0.5 0 2.5
v 1.5 0 2.5
v 2.5 0 2.5
v 3.5 0 2.5
v 4.5 0 2.5
v 5.5 0 2.5
v 6.5 0 2.5
v -6.5 0 1.5
v -5.5 0 1.5
v -4.5 0 1.5
v -3.5 0 1.5
v -2.5 0 1.5
v -1.5 0 1.5
v -0.5 0 1.5
v 0.5 0 1.5
v 1.5 0 1.5
v 2.5 0 1.5
v 3.5 0 1.5
v 4.5 0 1.5
v 5.5 0 1.5
v 6.5 0 1.5
v -6.5 0 0.5
v -5.5 0 0.5
v -4.5 0 0.5
v -3.5 0 0.5
v -2.5 0 0.5
v -1.5 0 0.5
v -0.5 0 0.5
v 0.5 0 0.5
v 1.5 0 0.5
v 2.5 0 0.5
v 3.5 0 0.5
v 4.5 0 0.5
v 5.5 0 0.5
v 6.5 0 0.5
v -7.5 0 -1.5
v -2.5 0 -1.5
v 2.5 0 -1.5
v 7.5 0 -1.5
v -2.5 0 -2.5
v 2.5 0 -2.5
v -6.5 1 -1.5
v -2.5 1 -1.5
v 2.5 1 -1.5
v 4.5 1 -1.5
v 5.5 1 -1.5
v 6.5 1 -1.5
v -6.5 1 -2.5
v -2.5 1 -2.5
v 2.5 1 -2.5
v 4.5 1 -2.5
v 5.5 1 -2.5
v 6.5 1 -2.5
v -7.5 1 7.5
v 7.5 1 7.5
v -6.5 1 6.5
v -5.5 1 6.5
v -4.5 1 6.5
v -3.5 1 6.5
v -1.5 1 6.5
v -0.5 1 6.5
v 0.5 1 6.5
v 1.5 1 6.5
v 2.5 1 6.5
v 3.5 1 6.5
v 4.5 1 6.5
v 5.5 1 6.5
v 6.5 1 6.5
v -6.5 1 5.5
v -5.5 1 5.5
v -4.5 1 5.5
v -3.5 1 5.5
v -2.5 1 5.5
v -1.5 1 5.5
v -0.5 1 5.5
v 0.5 1 5.5
v 1.5 1 5.5
v 2.5 1 5.5
v 3.5 1 5.5
v 4.5 1 5.5
v 5.5 1 5.5
v 6.5 1 5.5
v -6.5 1 4.5
v -5.5 1 4.5
v -4.5 1 4.5
v -3.5 1 4.5
v -2.5 1 4.5
v -1.5 1 4.5
v -0.5 1 4.5
v 0.5 1 4.5
v 1.5 1 4.5
v 2.5 1 4.5
v 3.5 1 4.5
v 4.5 1 4.5
v 5.5 1 4.5
v 6.5 1 4.5
v -6.5 1 3.5
v -5.5 1 3.5
v -4.5 1 3.5
v -3.5 1 3.5
v -2.5 1 3.5
v -1.5 1 3.5
v -0.5 1 3.5
v 0.5 1 3.5
v 1.5 1 3.5
v 2.5 1 3.5
v 3.5 1 3.5
v 4.5 1 3.5
v 5.5 1 3.5
v 6.5 1 3.5
v -6.5 1 2.5
v -5.5 1 2.5
v -4.5 1 2.5
v -3.5 1 2.5
v -2.5 1 2.5
v -1.5 1 2.5
v -0.5 1 2.5
v 0.5 1 2.5
v 1.5 1 2.5
v 2.5 1 2.5
v 3.5 1 2.5
v 4.5 1 2.5
v 5.5 1 2.5
v 6.5 1 2.5
v -6.5 1 1.5
v -5.5 1 1.5
v -4.5 1 1.5
v -3.5 1 1.5
v -2.5 1 1.5
v -1.5 1 1.5
v -0.5 1 1.5
v 0.5 1 1.5
v 1.5 1 1.5
v 2.5 1 1.5
v 3.5 1 1.5
v 4.5 1 1.5
v 5.5 1 1.5
v 6.5 1 1.5
v -6.5 1 0.5
v -5.5 1 0.5
v -4.5 1 0.5
v -3.5 1 0.5
v -2.5 1 0.5
v -1.5 1 0.5
v -0.5 1 0.5
v 0.5 1 0.5
v 1.5 1 0.5
v 2.5 1 0.5
v 3.5 1 0.5
v 4.5 1 0.5
v 5.5 1 0.5
v 6.5 1 0.5
v -7.5 1 -0.5
v 7.5 1 -0.5
v -6.5 8 -1.5
v 6.5 8 -1.5
v -6.5 8 -2.5
v 6.5 8 -2.5
v -7.5 9 -0.5
v 7.5 9 -0.5
v -7.5 9 -1.5
v 7.5 9 -1.5

# faces
f 3/1/1 2/1/1 1/1/1
f 4/1/1 2/1/1 3/1/1
f 5/1/1 2/1/1 4/1/1
f 6/1/1 2/1/1 5/1/1
f 9/1/1 8/1/1 7/1/1
f 10/1/1 8/1/1 9/1/1
f 13/1/1 12/1/1 11/1/1
f 14/1/1 12/1/1 13/1/1
f 15/1/2 16/1/2 17/1/2
f 17/1/2 16/1/2 18/1/2
f 19/1/2 20/1/2 21/1/2
f 21/1/2 20/1/2 22/1/2
f 23/1/2 24/1/2 25/1/2
f 25/1/2 24/1/2 26/1/2
f 26/1/2 24/1/2 27/1/2
f 27/1/2 24/1/2 28/1/2
f 31/1/3 30/1/3 29/1/3
f 32/1/3 30/1/3 31/1/3
f 35/1/3 34/1/3 33/1/3
f 36/1/3 34/1/3 35/1/3
f 37/7/3 36/7/3 35/7/3
f 38/7/3 36/7/3 37/7/3
f 39/7/3 37/7/3 35/7/3
f 39/8/3 38/8/3 37/8/3
f 40/7/3 36/7/3 38/7/3
f 40/8/3 38/8/3 39/8/3
f 41/7/3 39/7/3 35/7/3
f 41/7/3 40/7/3 39/7/3
f 42/7/3 36/7/3 40/7/3
f 42/7/3 40/7/3 41/7/3
f 43/7/3 41/7/3 35/7/3
f 43/8/3 42/8/3 41/8/3
f 44/7/3 36/7/3 42/7/3
f 44/8/3 42/8/3 43/8/3
f 45/1/3 35/1/3 33/1/3
f 45/7/3 43/7/3 35/7/3
f 45/7/3 44/7/3 43/7/3
f 46/7/3 36/7/3 44/7/3
f 46/7/3 44/7/3 45/7/3
f 46/1/3 34/1/3 36/1/3
f 47/1/3 45/1/3 33/1/3
f 47/1/3 46/1/3 45/1/3
f 48/1/3 34/1/3 46/1/3
f 48/1/3 46/1/3 47/1/3
f 49/1/4 50/1/4 51/1/4
f 51/1/4 50/1/4 52/1/4
f 49/1/4 51/1/4 53/1/4
f 53/1/4 51/1/4 54/1/4
f 55/1/4 56/1/4 57/1/4
f 55/1/4 57/1/4 58/1/4
f 55/1/4 58/1/4 59/1/4
f 52/1/4 50/1/4 60/1/4
f 55/1/4 59/1/4 61/1/4
f 59/1/4 60/1/4 61/1/4
f 60/1/4 50/1/4 62/1/4
f 61/1/4 60/1/4 62/1/4
f 63/1/4 64/1/4 66/1/4
f 65/1/4 66/1/4 67/1/4
f 66/1/4 64/1/4 68/1/4
f 67/1/4 66/1/4 68/1/4
f 68/1/4 64/1/4 69/1/4
f 69/1/4 64/1/4 70/1/4
f 69/6/4 70/6/4 71/6/4
f 70/1/4 64/1/4 72/1/4
f 71/6/4 70/6/4 72/6/4
f 71/1/4 72/1/4 73/1/4
f 72/1/4 64/1/4 74/1/4
f 73/1/4 72/1/4 74/1/4
f 77/1/5 76/1/5 75/1/5
f 78/1/5 76/1/5 77/1/5
f 79/1/5 76/1/5 78/1/5
f 80/1/5 76/1/5 79/1/5
f 81/1/5 76/1/5 80/1/5
f 82/1/5 76/1/5 81/1/5
f 83/1/5 76/1/5 82/1/5
f 84/1/5 76/1/5 83/1/5
f 85/1/5 76/1/5 84/1/5
f 86/1/5 76/1/5 85/1/5
f 87/1/5 76/1/5 86/1/5
f 88/1/5 76/1/5 87/1/5
f 89/1/5 76/1/5 88/1/5
f 90/1/5 77/1/5 75/1/5
f 90/5/5 78/5/5 77/5/5
f 91/4/5 79/4/5 78/4/5
f 91/5/5 78/5/5 90/5/5
f 92/3/5 80/3/5 79/3/5
f 92/4/5 79/4/5 91/4/5
f 93/2/5 81/2/5 80/2/5
f 93/3/5 80/3/5 92/3/5
f 94/2/5 81/2/5 93/2/5
f 95/4/5 82/4/5 81/4/5
f 95/2/5 81/2/5 94/2/5
f 96/5/5 83/5/5 82/5/5
f 96/4/5 82/4/5 95/4/5
f 97/4/5 84/4/5 83/4/5
f 97/5/5 83/5/5 96/5/5
f 98/3/5 85/3/5 84/3/5
f 98/4/5 84/4/5 97/4/5
f 99/2/5 86/2/5 85/2/5
f 99/3/5 85/3/5 98/3/5
f 100/3/5 87/3/5 86/3/5
f 100/2/5 86/2/5 99/2/5
f 101/4/5 88/4/5 87/4/5
f 101/3/5 87/3/5 100/3/5
f 102/5/5 89/5/5 88/5/5
f 102/4/5 88/4/5 101/4/5
f 103/1/5 76/1/5 89/1/5
f 103/5/5 89/5/5 102/5/5
f 104/1/5 90/1/5 75/1/5
f 104/2/5 91/2/5 90/2/5
f 105/3/5 92/3/5 91/3/5
f 105/2/5 91/2/5 104/2/5
f 106/4/5 93/4/5 92/4/5
f 106/3/5 92/3/5 105/3/5
f 107/5/5 94/5/5 93/5/5
f 107/4/5 93/4/5 106/4/5
f 108/4/5 95/4/5 94/4/5
f 108/5/5 94/5/5 107/5/5
f 109/3/5 96/3/5 95/3/5
f 109/4/5 95/4/5 108/4/5
f 110/2/5 97/2/5 96/2/5
f 110/3/5 96/3/5 109/3/5
f 111/3/5 98/3/5 97/3/5
f 111/2/5 97/2/5 110/2/5
f 112/4/5 99/4/5 98/4/5
f 112/3/5 98/3/5 111/3/5
f 113/5/5 100/5/5 99/5/5
f 113/4/5 99/4/5 112/4/5
f 114/4/5 101/4/5 100/4/5
f 114/5/5 100/5/5 113/5/5
f 115/3/5 102/3/5 101/3/5
f 115/4/5 101/4/5 114/4/5
f 116/2/5 103/2/5 102/2/5
f 116/3/5 102/3/5 115/3/5
f 117/1/5 76/1/5 103/1/5
f 117/2/5 103/2/5 116/2/5
f 118/1/5 104/1/5 75/1/5
f 118/5/5 105/5/5 104/5/5
f 119/4/5 106/4/5 105/4/5
f 119/5/5 105/5/5 118/5/5
f 120/3/5 107/3/5 106/3/5
f 120/4/5 106/4/5 119/4/5
f 121/2/5 108/2/5 107/2/5
f 121/3/5 107/3/5 120/3/5
f 122/3/5 109/3/5 108/3/5
f 122/2/5 108/2/5 121/2/5
f 123/4/5 110/4/5 109/4/5
f 123/3/5 109/3/5 122/3/5
f 124/5/5 111/5/5 110/5/5
f 124/4/5 110/4/5 123/4/5
f 125/4/5 112/4/5 111/4/5
f 125/5/5 111/5/5 124/5/5
f 126/3/5 113/3/5 112/3/5
f 126/4/5 112/4/5 125/4/5
f 127/2/5 114/2/5 113/2/5
f 127/3/5 113/3/5 126/3/5
f 128/3/5 115/3/5 114/3/5
f 128/2/5 114/2/5 127/2/5
f 129/4/5 116/4/5 115/4/5
f 129/3/5 115/3/5 128/3/5
f 130/5/5 117/5/5 116/5/5
f 130/4/5 116/4/5 129/4/5
f 131/1/5 76/1/5 117/1/5
f 131/5/5 117/5/5 130/5/5
f 132/1/5 118/1/5 75/1/5
f 132/2/5 119/2/5 118/2/5
f 133/3/5 120/3/5 119/3/5
f 133/2/5 119/2/5 132/2/5
f 134/4/5 121/4/5 120/4/5
f 134/3/5 120/3/5 133/3/5
f 135/5/5 122/5/5 121/5/5
f 135/4/5 121/4/5 134/4/5
f 136/4/5 123/4/5 122/4/5
f 136/5/5 122/5/5 135/5/5
f 137/3/5 124/3/5 123/3/5
f 137/4/5 123/4/5 136/4/5
f 138/2/5 125/2/5 124/2/5
f 138/3/5 124/3/5 137/3/5
f 139/3/5 126/3/5 125/3/5
f 139/2/5 125/2/5 138/2/5
f 140/4/5 127/4/5 126/4/5
f 140/3/5 126/3/5 139/3/5
f 141/5/5 128/5/5 127/5/5
f 141/4/5 127/4/5 140/4/5
f 142/4/5 129/4/5 128/4/5
f 142/5/5 128/5/5 141/5/5
f 143/3/5 130/3/5 129/3/5
f 143/4/5 129/4/5 142/4/5
f 144/2/5 131/2/5 130/2/5
f 144/3/5 130/3/5 143/3/5
f 145/1/5 76/1/5 131/1/5
f 145/2/5 131/2/5 144/2/5
f 146/1/5 132/1/5 75/1/5
f 146/5/5 133/5/5 132/5/5
f 147/4/5 134/4/5 133/4/5
f 147/5/5 133/5/5 146/5/5
f 148/3/5 135/3/5 134/3/5
f 148/4/5 134/4/5 147/4/5
f 149/2/5 136/2/5 135/2/5
f 149/3/5 135/3/5 148/3/5
f 150/3/5 137/3/5 136/3/5
f 150/2/5 136/2/5 149/2/5
f 151/4/5 138/4/5 137/4/5
f 151/3/5 137/3/5 150/3/5
f 152/5/5 139/5/5 138/5/5
f 152/4/5 138/4/5 151/4/5
f 153/4/5 140/4/5 139/4/5
f 153/5/5 139/5/5 152/5/5
f 154/3/5 141/3/5 140/3/5
f 154/4/5 140/4/5 153/4/5
f 155/2/5 142/2/5 141/2/5
f 155/3/5 141/3/5 154/3/5
f 156/3/5 143/3/5 142/3/5
f 156/2/5 142/2/5 155/2/5
f 157/4/5 144/4/5 143/4/5
f 157/3/5 143/3/5 156/3/5
f 158/5/5 145/5/5 144/5/5
f 158/4/5 144/4/5 157/4/5
f 159/1/5 76/1/5 145/1/5
f 159/5/5 145/5/5 158/5/5
f 160/1/5 146/1/5 75/1/5
f 160/2/5 147/2/5 146/2/5
f 161/3/5 148/3/5 147/3/5
f 161/2/5 147/2/5 160/2/5
f 162/4/5 149/4/5 148/4/5
f 162/3/5 148/3/5 161/3/5
f 163/5/5 150/5/5 149/5/5
f 163/4/5 149/4/5 162/4/5
f 164/4/5 151/4/5 150/4/5
f 164/5/5 150/5/5 163/5/5
f 165/3/5 152/3/5 151/3/5
f 165/4/5 151/4/5 164/4/5
f 166/2/5 153/2/5 152/2/5
f 166/3/5 152/3/5 165/3/5
f 167/3/5 154/3/5 153/3/5
f 167/2/5 153/2/5 166/2/5
f 168/4/5 155/4/5 154/4/5
f 168/3/5 154/3/5 167/3/5
f 169/5/5 156/5/5 155/5/5
f 169/4/5 155/4/5 168/4/5
f 170/4/5 157/4/5 156/4/5
f 170/5/5 156/5/5 169/5/5
f 171/3/5 158/3/5 157/3/5
f 171/4/5 157/4/5 170/4/5
f 172/2/5 159/2/5 158/2/5
f 172/3/5 158/3/5 171/3/5
f 173/1/5 76/1/5 159/1/5
f 173/2/5 159/2/5 172/2/5
f 174/1/5 162/1/5 161/1/5
f 174/1/5 161/1/5 160/1/5
f 174/1/5 173/1/5 172/1/5
f 174/1/5 165/1/5 164/1/5
f 174/1/5 160/1/5 75/1/5
f 174/1/5 171/1/5 170/1/5
f 174/1/5 172/1/5 171/1/5
f 174/1/5 169/1/5 168/1/5
f 174/1/5 170/1/5 169/1/5
f 174/1/5 167/1/5 166/1/5
f 174/1/5 168/1/5 167/1/5
f 174/1/5 166/1/5 165/1/5
f 174/1/5 163/1/5 162/1/5
f 174/1/5 164/1/5 163/1/5
f 175/1/5 173/1/5 174/1/5
f 176/1/5 173/1/5 175/1/5
f 177/1/5 76/1/5 173/1/5
f 177/1/5 173/1/5 176/1/5
f 178/1/5 176/1/5 175/1/5
f 179/1/5 176/1/5 178/1/5
f 186/1/5 181/1/5 180/1/5
f 187/1/5 181/1/5 186/1/5
f 188/1/5 183/1/5 182/1/5
f 189/6/5 184/6/5 183/6/5
f 189/1/5 183/1/5 188/1/5
f 190/1/5 185/1/5 184/1/5
f 190/6/5 184/6/5 189/6/5
f 191/1/5 185/1/5 190/1/5
f 192/1/6 193/1/6 194/1/6
f 194/1/6 193/1/6 195/1/6
f 195/1/6 193/1/6 196/1/6
f 196/1/6 193/1/6 197/1/6
f 197/1/6 193/1/6 198/1/6
f 198/1/6 193/1/6 199/1/6
f 199/1/6 193/1/6 200/1/6
f 200/1/6 193/1/6 201/1/6
f 201/1/6 193/1/6 202/1/6
f 202/1/6 193/1/6 203/1/6
f 203/1/6 193/1/6 204/1/6
f 204/1/6 193/1/6 205/1/6
f 205/1/6 193/1/6 206/1/6
f 192/1/6 194/1/6 207/1/6
f 194/5/6 195/5/6 207/5/6
f 195/4/6 196/4/6 208/4/6
f 207/5/6 195/5/6 208/5/6
f 196/3/6 197/3/6 209/3/6
f 208/4/6 196/4/6 209/4/6
f 197/2/6 198/2/6 210/2/6
f 209/3/6 197/3/6 210/3/6
f 210/2/6 198/2/6 211/2/6
f 198/4/6 199/4/6 212/4/6
f 211/2/6 198/2/6 212/2/6
f 199/5/6 200/5/6 213/5/6
f 212/4/6 199/4/6 213/4/6
f 200/4/6 201/4/6 214/4/6
f 213/5/6 200/5/6 214/5/6
f 201/3/6 202/3/6 215/3/6
f 214/4/6 201/4/6 215/4/6
f 202/2/6 203/2/6 216/2/6
f 215/3/6 202/3/6 216/3/6
f 203/3/6 204/3/6 217/3/6
f 216/2/6 203/2/6 217/2/6
f 204/4/6 205/4/6 218/4/6
f 217/3/6 204/3/6 218/3/6
f 205/5/6 206/5/6 219/5/6
f 218/4/6 205/4/6 219/4/6
f 206/1/6 193/1/6 220/1/6
f 219/5/6 206/5/6 220/5/6
f 192/1/6 207/1/6 221/1/6
f 207/2/6 208/2/6 221/2/6
f 208/3/6 209/3/6 222/3/6
f 221/2/6 208/2/6 222/2/6
f 209/4/6 210/4/6 223/4/6
f 222/3/6 209/3/6 223/3/6
f 210/5/6 211/5/6 224/5/6
f 223/4/6 210/4/6 224/4/6
f 211/4/6 212/4/6 225/4/6
f 224/5/6 211/5/6 225/5/6
f 212/3/6 213/3/6 226/3/6
f 225/4/6 212/4/6 226/4/6
f 213/2/6 214/2/6 227/2/6
f 226/3/6 213/3/6 227/3/6
f 214/3/6 215/3/6 228/3/6
f 227/2/6 214/2/6 228/2/6
f 215/4/6 216/4/6 229/4/6
f 228/3/6 215/3/6 229/3/6
f 216/5/6 217/5/6 230/5/6
f 229/4/6 216/4/6 230/4/6
f 217/4/6 218/4/6 231/4/6
f 230/5/6 217/5/6 231/5/6
f 218/3/6 219/3/6 232/3/6
f 231/4/6 218/4/6 232/4/6
f 219/2/6 220/2/6 233/2/6
f 232/3/6 219/3/6 233/3/6
f 220/1/6 193/1/6 234/1/6
f 233/2/6 220/2/6 234/2/6
f 192/1/6 221/1/6 235/1/6
f 221/5/6 222/5/6 235/5/6
f 222/4/6 223/4/6 236/4/6
f 235/5/6 222/5/6 236/5/6
f 223/3/6 224/3/6 237/3/6
f 236/4/6 223/4/6 237/4/6
f 224/2/6 225/2/6 238/2/6
f 237/3/6 224/3/6 238/3/6
f 225/3/6 226/3/6 239/3/6
f 238/2/6 225/2/6 239/2/6
f 226/4/6 227/4/6 240/4/6
f 239/3/6 226/3/6 240/3/6
f 227/5/6 228/5/6 241/5/6
f 240/4/6 227/4/6 241/4/6
f 228/4/6 229/4/6 242/4/6
f 241/5/6 228/5/6 242/5/6
f 229/3/6 230/3/6 243/3/6
f 242/4/6 229/4/6 243/4/6
f 230/2/6 231/2/6 244/2/6
f 243/3/6 230/3/6 244/3/6
f 231/3/6 232/3/6 245/3/6
f 244/2/6 231/2/6 245/2/6
f 232/4/6 233/4/6 246/4/6
f 245/3/6 232/3/6 246/3/6
f 233/5/6 234/5/6 247/5/6
f 246/4/6 233/4/6 247/4/6
f 234/1/6 193/1/6 248/1/6
f 247/5/6 234/5/6 248/5/6
f 192/1/6 235/1/6 249/1/6
f 235/2/6 236/2/6 249/2/6
f 236/3/6 237/3/6 250/3/6
f 249/2/6 236/2/6 250/2/6
f 237/4/6 238/4/6 251/4/6
f 250/3/6 237/3/6 251/3/6
f 238/5/6 239/5/6 252/5/6
f 251/4/6 238/4/6 252/4/6
f 239/4/6 240/4/6 253/4/6
f 252/5/6 239/5/6 253/5/6
f 240/3/6 241/3/6 254/3/6
f 253/4/6 240/4/6 254/4/6
f 241/2/6 242/2/6 255/2/6
f 254/3/6 241/3/6 255/3/6
f 242/3/6 243/3/6 256/3/6
f 255/2/6 242/2/6 256/2/6
f 243/4/6 244/4/6 257/4/6
f 256/3/6 243/3/6 257/3/6
f 244/5/6 245/5/6 258/5/6
f 257/4/6 244/4/6 258/4/6
f 245/4/6 246/4/6 259/4/6
f 258/5/6 245/5/6 259/5/6
f 246/3/6 247/3/6 260/3/6
f 259/4/6 246/4/6 260/4/6
f 247/2/6 248/2/6 261/2/6
f 260/3/6 247/3/6 261/3/6
f 248/1/6 193/1/6 262/1/6
f 261/2/6 248/2/6 262/2/6
f 192/1/6 249/1/6 263/1/6
f 249/5/6 250/5/6 263/5/6
f 250/4/6 251/4/6 264/4/6
f 263/5/6 250/5/6 264/5/6
f 251/3/6 252/3/6 265/3/6
f 264/4/6 251/4/6 265/4/6
f 252/2/6 253/2/6 266/2/6
f 265/3/6 252/3/6 266/3/6
f 253/3/6 254/3/6 267/3/6
f 266/2/6 253/2/6 267/2/6
f 254/4/6 255/4/6 268/4/6
f 267/3/6 254/3/6 268/3/6
f 255/5/6 256/5/6 269/5/6
f 268/4/6 255/4/6 269/4/6
f 256/4/6 257/4/6 270/4/6
f 269/5/6 256/5/6 270/5/6
f 257/3/6 258/3/6 271/3/6
f 270/4/6 257/4/6 271/4/6
f 258/2/6 259/2/6 272/2/6
f 271/3/6 258/3/6 272/3/6
f 259/3/6 260/3/6 273/3/6
f 272/2/6 259/2/6 273/2/6
f 260/4/6 261/4/6 274/4/6
f 273/3/6 260/3/6 274/3/6
f 261/5/6 262/5/6 275/5/6
f 274/4/6 261/4/6 275/4/6
f 262/1/6 193/1/6 276/1/6
f 275/5/6 262/5/6 276/5/6
f 192/1/6 263/1/6 277/1/6
f 263/2/6 264/2/6 277/2/6
f 264/3/6 265/3/6 278/3/6
f 277/2/6 264/2/6 278/2/6
f 265/4/6 266/4/6 279/4/6
f 278/3/6 265/3/6 279/3/6
f 266/5/6 267/5/6 280/5/6
f 279/4/6 266/4/6 280/4/6
f 267/4/6 268/4/6 281/4/6
f 280/5/6 267/5/6 281/5/6
f 268/3/6 269/3/6 282/3/6
f 281/4/6 268/4/6 282/4/6
f 269/2/6 270/2/6 283/2/6
f 282/3/6 269/3/6 283/3/6
f 270/3/6 271/3/6 284/3/6
f 283/2/6 270/2/6 284/2/6
f 271/4/6 272/4/6 285/4/6
f 284/3/6 271/3/6 285/3/6
f 272/5/6 273/5/6 286/5/6
f 285/4/6 272/4/6 286/4/6
f 273/4/6 274/4/6 287/4/6
f 286/5/6 273/5/6 287/5/6
f 274/3/6 275/3/6 288/3/6
f 287/4/6 274/4/6 288/4/6
f 275/2/6 276/2/6 289/2/6
f 288/3/6 275/3/6 289/3/6
f 276/1/6 193/1/6 290/1/6
f 289/2/6 276/2/6 290/2/6
f 278/1/6 279/1/6 291/1/6
f 277/1/6 278/1/6 291/1/6
f 289/1/6 290/1/6 291/1/6
f 281/1/6 282/1/6 291/1/6
f 192/1/6 277/1/6 291/1/6
f 287/1/6 288/1/6 291/1/6
f 288/1/6 289/1/6 291/1/6
f 285/1/6 286/1/6 291/1/6
f 286/1/6 287/1/6 291/1/6
f 283/1/6 284/1/6 291/1/6
f 284/1/6 285/1/6 291/1/6
f 282/1/6 283/1/6 291/1/6
f 279/1/6 280/1/6 291/1/6
f 280/1/6 281/1/6 291/1/6
f 290/1/6 193/1/6 292/1/6
f 291/1/6 290/1/6 292/1/6
f 293/1/6 294/1/6 295/1/6
f 295/1/6 294/1/6 296/1/6
f 297/1/6 298/1/6 299/1/6
f 299/1/6 298/1/6 300/1/6
