# MagicaVoxel @ ephtracy

# material
mtllib MonitorOff.mtl
usemtl palette

# normals
vn -1 0 0
vn 1 0 0
vn 0 0 1
vn 0 0 -1
vn 0 -1 0
vn 0 1 0

# texcoords
vt 0.00195313 0.5
vt 0.00585938 0.5
vt 0.0332031 0.5
vt 0.0371094 0.5

# verts
v -9.5 3 1.5
v -9.5 3 0.5
v -9.5 12 1.5
v -9.5 12 0.5
v -8.5 4 0.5
v -8.5 4 -0.5
v -8.5 11 0.5
v -8.5 11 -0.5
v -5.5 0 2.5
v -5.5 0 -2.5
v -5.5 1 2.5
v -5.5 1 -2.5
v -2.5 1 0.5
v -2.5 1 -1.5
v -2.5 3 0.5
v -2.5 4 0.5
v -2.5 4 -0.5
v -2.5 5 -0.5
v -2.5 5 -1.5
v 2.5 1 0.5
v 2.5 1 -1.5
v 2.5 3 0.5
v 2.5 4 0.5
v 2.5 4 -0.5
v 2.5 5 -0.5
v 2.5 5 -1.5
v 5.5 0 2.5
v 5.5 0 -2.5
v 5.5 1 2.5
v 5.5 1 -2.5
v 8.5 4 0.5
v 8.5 4 -0.5
v 8.5 11 0.5
v 8.5 11 -0.5
v 9.5 3 1.5
v 9.5 3 0.5
v 9.5 12 1.5
v 9.5 12 0.5
v -5.5 0 2.5
v -5.5 1 2.5
v 5.5 0 2.5
v 5.5 1 2.5
v -9.5 3 1.5
v -9.5 12 1.5
v -8.5 4 1.5
v -8.5 11 1.5
v 8.5 4 1.5
v 8.5 11 1.5
v 9.5 3 1.5
v 9.5 12 1.5
v -2.5 1 0.5
v -2.5 3 0.5
v 2.5 1 0.5
v 2.5 3 0.5
v -9.5 3 0.5
v -9.5 12 0.5
v -8.5 4 0.5
v -8.5 11 0.5
v -2.5 3 0.5
v -2.5 4 0.5
v 2.5 3 0.5
v 2.5 4 0.5
v 4.5 4 0.5
v 5.5 4 0.5
v 6.5 4 0.5
v 7.5 4 0.5
v 8.5 4 0.5
v 8.5 11 0.5
v 9.5 3 0.5
v 9.5 12 0.5
v -8.5 4 -0.5
v -8.5 11 -0.5
v -2.5 4 -0.5
v -2.5 5 -0.5
v 2.5 4 -0.5
v 2.5 5 -0.5
v 4.5 4 -0.5
v 4.5 5 -0.5
v 5.5 4 -0.5
v 5.5 5 -0.5
v 6.5 4 -0.5
v 6.5 5 -0.5
v 7.5 4 -0.5
v 7.5 5 -0.5
v 8.5 4 -0.5
v 8.5 11 -0.5
v -2.5 1 -1.5
v -2.5 5 -1.5
v 2.5 1 -1.5
v 2.5 5 -1.5
v -5.5 0 -2.5
v -5.5 1 -2.5
v 5.5 0 -2.5
v 5.5 1 -2.5
v -5.5 0 2.5
v 5.5 0 2.5
v -5.5 0 -2.5
v 5.5 0 -2.5
v -9.5 3 1.5
v 9.5 3 1.5
v -9.5 3 0.5
v -2.5 3 0.5
v 2.5 3 0.5
v 9.5 3 0.5
v -8.5 4 0.5
v -2.5 4 0.5
v 2.5 4 0.5
v 4.5 4 0.5
v 5.5 4 0.5
v 6.5 4 0.5
v 7.5 4 0.5
v 8.5 4 0.5
v -8.5 4 -0.5
v -2.5 4 -0.5
v 2.5 4 -0.5
v 4.5 4 -0.5
v 5.5 4 -0.5
v 6.5 4 -0.5
v 7.5 4 -0.5
v 8.5 4 -0.5
v -5.5 1 2.5
v 5.5 1 2.5
v -2.5 1 0.5
v 2.5 1 0.5
v -2.5 1 -1.5
v 2.5 1 -1.5
v -5.5 1 -2.5
v 5.5 1 -2.5
v -2.5 5 -0.5
v 2.5 5 -0.5
v -2.5 5 -1.5
v 2.5 5 -1.5
v -8.5 11 0.5
v 8.5 11 0.5
v -8.5 11 -0.5
v 8.5 11 -0.5
v -9.5 12 1.5
v 9.5 12 1.5
v -9.5 12 0.5
v 9.5 12 0.5

# faces
f 3/1/1 2/1/1 1/1/1
f 4/1/1 2/1/1 3/1/1
f 7/1/1 6/1/1 5/1/1
f 8/1/1 6/1/1 7/1/1
f 11/1/1 10/1/1 9/1/1
f 12/1/1 10/1/1 11/1/1
f 15/1/1 14/1/1 13/1/1
f 16/1/1 14/1/1 15/1/1
f 17/1/1 14/1/1 16/1/1
f 18/1/1 14/1/1 17/1/1
f 19/1/1 14/1/1 18/1/1
f 20/1/2 21/1/2 22/1/2
f 22/1/2 21/1/2 23/1/2
f 23/1/2 21/1/2 24/1/2
f 24/1/2 21/1/2 25/1/2
f 25/1/2 21/1/2 26/1/2
f 27/1/2 28/1/2 29/1/2
f 29/1/2 28/1/2 30/1/2
f 31/1/2 32/1/2 33/1/2
f 33/1/2 32/1/2 34/1/2
f 35/1/2 36/1/2 37/1/2
f 37/1/2 36/1/2 38/1/2
f 41/1/3 40/1/3 39/1/3
f 42/1/3 40/1/3 41/1/3
f 45/1/3 44/1/3 43/1/3
f 46/1/3 44/1/3 45/1/3
f 47/1/3 45/1/3 43/1/3
f 47/2/3 46/2/3 45/2/3
f 48/1/3 44/1/3 46/1/3
f 48/2/3 46/2/3 47/2/3
f 49/1/3 47/1/3 43/1/3
f 49/1/3 48/1/3 47/1/3
f 50/1/3 44/1/3 48/1/3
f 50/1/3 48/1/3 49/1/3
f 53/1/3 52/1/3 51/1/3
f 54/1/3 52/1/3 53/1/3
f 55/1/4 56/1/4 57/1/4
f 57/1/4 56/1/4 58/1/4
f 55/1/4 57/1/4 59/1/4
f 59/1/4 57/1/4 60/1/4
f 61/1/4 62/1/4 63/1/4
f 61/1/4 63/1/4 64/1/4
f 61/1/4 64/1/4 65/1/4
f 61/1/4 65/1/4 66/1/4
f 61/1/4 66/1/4 67/1/4
f 58/1/4 56/1/4 68/1/4
f 61/1/4 67/1/4 69/1/4
f 67/1/4 68/1/4 69/1/4
f 68/1/4 56/1/4 70/1/4
f 69/1/4 68/1/4 70/1/4
f 71/1/4 72/1/4 73/1/4
f 73/1/4 72/1/4 74/1/4
f 74/1/4 72/1/4 76/1/4
f 75/1/4 76/1/4 77/1/4
f 76/1/4 72/1/4 78/1/4
f 77/1/4 76/1/4 78/1/4
f 77/4/4 78/4/4 79/4/4
f 78/1/4 72/1/4 80/1/4
f 79/4/4 78/4/4 80/4/4
f 79/1/4 80/1/4 81/1/4
f 80/1/4 72/1/4 82/1/4
f 81/1/4 80/1/4 82/1/4
f 81/3/4 82/3/4 83/3/4
f 82/1/4 72/1/4 84/1/4
f 83/3/4 82/3/4 84/3/4
f 83/1/4 84/1/4 85/1/4
f 84/1/4 72/1/4 86/1/4
f 85/1/4 84/1/4 86/1/4
f 87/1/4 88/1/4 89/1/4
f 89/1/4 88/1/4 90/1/4
f 91/1/4 92/1/4 93/1/4
f 93/1/4 92/1/4 94/1/4
f 97/1/5 96/1/5 95/1/5
f 98/1/5 96/1/5 97/1/5
f 101/1/5 100/1/5 99/1/5
f 102/1/5 100/1/5 101/1/5
f 103/1/5 100/1/5 102/1/5
f 104/1/5 100/1/5 103/1/5
f 113/1/5 106/1/5 105/1/5
f 114/1/5 106/1/5 113/1/5
f 115/1/5 108/1/5 107/1/5
f 116/4/5 109/4/5 108/4/5
f 116/1/5 108/1/5 115/1/5
f 117/1/5 110/1/5 109/1/5
f 117/4/5 109/4/5 116/4/5
f 118/3/5 111/3/5 110/3/5
f 118/1/5 110/1/5 117/1/5
f 119/1/5 112/1/5 111/1/5
f 119/3/5 111/3/5 118/3/5
f 120/1/5 112/1/5 119/1/5
f 121/1/6 122/1/6 123/1/6
f 123/1/6 122/1/6 124/1/6
f 121/1/6 123/1/6 125/1/6
f 124/1/6 122/1/6 126/1/6
f 121/1/6 125/1/6 127/1/6
f 125/1/6 126/1/6 127/1/6
f 126/1/6 122/1/6 128/1/6
f 127/1/6 126/1/6 128/1/6
f 129/1/6 130/1/6 131/1/6
f 131/1/6 130/1/6 132/1/6
f 133/1/6 134/1/6 135/1/6
f 135/1/6 134/1/6 136/1/6
f 137/1/6 138/1/6 139/1/6
f 139/1/6 138/1/6 140/1/6
