# MagicaVoxel @ ephtracy

# material
mtllib Mouse.mtl
usemtl palette

# normals
vn -1 0 0
vn 1 0 0
vn 0 0 1
vn 0 0 -1
vn 0 -1 0
vn 0 1 0

# texcoords
vt 0.00195313 0.5
vt 0.0644531 0.5
vt 0.0683594 0.5

# verts
v 6.5 0 6.5
v 6.5 0 4.5
v 6.5 0 3.5
v 6.5 1 6.5
v 6.5 1 4.5
v 6.5 1 3.5
v 8.5 0 6.5
v 8.5 0 4.5
v 8.5 0 3.5
v 8.5 1 6.5
v 8.5 1 4.5
v 8.5 1 3.5
v 6.5 0 6.5
v 6.5 1 6.5
v 8.5 0 6.5
v 8.5 1 6.5
v 6.5 0 3.5
v 6.5 1 3.5
v 7.5 0 3.5
v 7.5 1 3.5
v 8.5 0 3.5
v 8.5 1 3.5
v 6.5 0 6.5
v 8.5 0 6.5
v 6.5 0 4.5
v 7.5 0 4.5
v 8.5 0 4.5
v 6.5 0 3.5
v 7.5 0 3.5
v 8.5 0 3.5
v 6.5 1 6.5
v 8.5 1 6.5
v 6.5 1 4.5
v 7.5 1 4.5
v 8.5 1 4.5
v 6.5 1 3.5
v 7.5 1 3.5
v 8.5 1 3.5

# faces
f 4/1/1 2/1/1 1/1/1
f 5/2/1 3/2/1 2/2/1
f 5/1/1 2/1/1 4/1/1
f 6/2/1 3/2/1 5/2/1
f 7/1/2 8/1/2 10/1/2
f 8/3/2 9/3/2 11/3/2
f 10/1/2 8/1/2 11/1/2
f 11/3/2 9/3/2 12/3/2
f 15/1/3 14/1/3 13/1/3
f 16/1/3 14/1/3 15/1/3
f 17/2/4 18/2/4 19/2/4
f 19/2/4 18/2/4 20/2/4
f 19/3/4 20/3/4 21/3/4
f 21/3/4 20/3/4 22/3/4
f 25/1/5 24/1/5 23/1/5
f 26/1/5 24/1/5 25/1/5
f 27/1/5 24/1/5 26/1/5
f 28/2/5 26/2/5 25/2/5
f 29/3/5 27/3/5 26/3/5
f 29/2/5 26/2/5 28/2/5
f 30/3/5 27/3/5 29/3/5
f 31/1/6 32/1/6 33/1/6
f 33/1/6 32/1/6 34/1/6
f 34/1/6 32/1/6 35/1/6
f 33/2/6 34/2/6 36/2/6
f 34/3/6 35/3/6 37/3/6
f 36/2/6 34/2/6 37/2/6
f 37/3/6 35/3/6 38/3/6
