# MagicaVoxel @ ephtracy

# material
mtllib Table.mtl
usemtl palette

# normals
vn -1 0 0
vn 1 0 0
vn 0 0 1
vn 0 0 -1
vn 0 -1 0
vn 0 1 0

# texcoords
vt 0.0214844 0.5
vt 0.0683594 0.5
vt 0.0957031 0.5

# verts
v -20 16 20
v -20 16 -4
v -20 17 20
v -20 17 -4
v -19 0 19
v -19 0 16
v -19 0 -0
v -19 0 -3
v -19 1 19
v -19 1 16
v -19 1 -0
v -19 1 -3
v -19 16 19
v -19 16 16
v -19 16 -0
v -19 16 -3
v -18 15 16
v -18 15 -0
v -18 16 16
v -18 16 -0
v 16 0 19
v 16 0 17
v 16 0 -1
v 16 0 -3
v 16 1 19
v 16 1 17
v 16 1 -1
v 16 1 -3
v 16 15 18
v 16 15 17
v 16 15 -1
v 16 15 -2
v 16 16 19
v 16 16 18
v 16 16 -2
v 16 16 -3
v 17 0 17
v 17 0 16
v 17 0 -0
v 17 0 -1
v 17 1 17
v 17 1 16
v 17 1 -0
v 17 1 -1
v 17 15 17
v 17 15 16
v 17 15 -0
v 17 15 -1
v -17 0 17
v -17 0 16
v -17 0 -0
v -17 0 -1
v -17 1 17
v -17 1 16
v -17 1 -0
v -17 1 -1
v -17 15 17
v -17 15 16
v -17 15 -0
v -17 15 -1
v -16 0 19
v -16 0 17
v -16 0 -1
v -16 0 -3
v -16 1 19
v -16 1 17
v -16 1 -1
v -16 1 -3
v -16 15 18
v -16 15 17
v -16 15 -1
v -16 15 -2
v -16 16 19
v -16 16 18
v -16 16 -2
v -16 16 -3
v 18 15 16
v 18 15 -0
v 18 16 16
v 18 16 -0
v 19 0 19
v 19 0 16
v 19 0 -0
v 19 0 -3
v 19 1 19
v 19 1 16
v 19 1 -0
v 19 1 -3
v 19 16 19
v 19 16 16
v 19 16 -0
v 19 16 -3
v 20 16 20
v 20 16 -4
v 20 17 20
v 20 17 -4
v -20 16 20
v -20 17 20
v 20 16 20
v 20 17 20
v -19 0 19
v -19 1 19
v -19 16 19
v -16 0 19
v -16 1 19
v -16 16 19
v 16 0 19
v 16 1 19
v 16 16 19
v 19 0 19
v 19 1 19
v 19 16 19
v -16 15 18
v -16 16 18
v 16 15 18
v 16 16 18
v -19 0 -0
v -19 1 -0
v -19 16 -0
v -18 15 -0
v -18 16 -0
v -17 0 -0
v -17 1 -0
v -17 15 -0
v 17 0 -0
v 17 1 -0
v 17 15 -0
v 18 15 -0
v 18 16 -0
v 19 0 -0
v 19 1 -0
v 19 16 -0
v -17 0 -1
v -17 1 -1
v -17 15 -1
v -16 0 -1
v -16 1 -1
v -16 15 -1
v 16 0 -1
v 16 1 -1
v 16 15 -1
v 17 0 -1
v 17 1 -1
v 17 15 -1
v -17 0 17
v -17 1 17
v -17 15 17
v -16 0 17
v -16 1 17
v -16 15 17
v 16 0 17
v 16 1 17
v 16 15 17
v 17 0 17
v 17 1 17
v 17 15 17
v -19 0 16
v -19 1 16
v -19 16 16
v -18 15 16
v -18 16 16
v -17 0 16
v -17 1 16
v -17 15 16
v 17 0 16
v 17 1 16
v 17 15 16
v 18 15 16
v 18 16 16
v 19 0 16
v 19 1 16
v 19 16 16
v -16 15 -2
v -16 16 -2
v 16 15 -2
v 16 16 -2
v -19 0 -3
v -19 1 -3
v -19 16 -3
v -16 0 -3
v -16 1 -3
v -16 16 -3
v 16 0 -3
v 16 1 -3
v 16 16 -3
v 19 0 -3
v 19 1 -3
v 19 16 -3
v -20 16 -4
v -20 17 -4
v 20 16 -4
v 20 17 -4
v -19 0 19
v -16 0 19
v 16 0 19
v 19 0 19
v -18 0 18
v -17 0 18
v 17 0 18
v 18 0 18
v -18 0 17
v -17 0 17
v -16 0 17
v 16 0 17
v 17 0 17
v 18 0 17
v -19 0 16
v -17 0 16
v 17 0 16
v 19 0 16
v -19 0 -0
v -17 0 -0
v 17 0 -0
v 19 0 -0
v -18 0 -1
v -17 0 -1
v -16 0 -1
v 16 0 -1
v 17 0 -1
v 18 0 -1
v -18 0 -2
v -17 0 -2
v 17 0 -2
v 18 0 -2
v -19 0 -3
v -16 0 -3
v 16 0 -3
v 19 0 -3
v -16 15 18
v 16 15 18
v -17 15 17
v -16 15 17
v 16 15 17
v 17 15 17
v -18 15 16
v -17 15 16
v 17 15 16
v 18 15 16
v -18 15 -0
v -17 15 -0
v 17 15 -0
v 18 15 -0
v -17 15 -1
v -16 15 -1
v 16 15 -1
v 17 15 -1
v -16 15 -2
v 16 15 -2
v -20 16 20
v 20 16 20
v -19 16 19
v -16 16 19
v 16 16 19
v 19 16 19
v -16 16 18
v 16 16 18
v -19 16 16
v -18 16 16
v 18 16 16
v 19 16 16
v -19 16 -0
v -18 16 -0
v 18 16 -0
v 19 16 -0
v -16 16 -2
v 16 16 -2
v -19 16 -3
v -16 16 -3
v 16 16 -3
v 19 16 -3
v -20 16 -4
v 20 16 -4
v -20 17 20
v 20 17 20
v -20 17 -4
v 20 17 -4

# faces
f 3/3/1 2/3/1 1/3/1
f 4/3/1 2/3/1 3/3/1
f 9/1/1 6/1/1 5/1/1
f 10/1/1 6/1/1 9/1/1
f 11/1/1 8/1/1 7/1/1
f 12/1/1 8/1/1 11/1/1
f 13/2/1 10/2/1 9/2/1
f 14/2/1 10/2/1 13/2/1
f 15/2/1 12/2/1 11/2/1
f 16/2/1 12/2/1 15/2/1
f 19/3/1 18/3/1 17/3/1
f 20/3/1 18/3/1 19/3/1
f 25/1/1 22/1/1 21/1/1
f 26/1/1 22/1/1 25/1/1
f 27/1/1 24/1/1 23/1/1
f 28/1/1 24/1/1 27/1/1
f 29/2/1 26/2/1 25/2/1
f 30/2/1 26/2/1 29/2/1
f 31/2/1 28/2/1 27/2/1
f 32/2/1 28/2/1 31/2/1
f 33/2/1 29/2/1 25/2/1
f 34/2/1 29/2/1 33/2/1
f 35/2/1 28/2/1 32/2/1
f 36/2/1 28/2/1 35/2/1
f 41/1/1 38/1/1 37/1/1
f 42/1/1 38/1/1 41/1/1
f 43/1/1 40/1/1 39/1/1
f 44/1/1 40/1/1 43/1/1
f 45/2/1 42/2/1 41/2/1
f 46/2/1 42/2/1 45/2/1
f 47/2/1 44/2/1 43/2/1
f 48/2/1 44/2/1 47/2/1
f 49/1/2 50/1/2 53/1/2
f 53/1/2 50/1/2 54/1/2
f 51/1/2 52/1/2 55/1/2
f 55/1/2 52/1/2 56/1/2
f 53/2/2 54/2/2 57/2/2
f 57/2/2 54/2/2 58/2/2
f 55/2/2 56/2/2 59/2/2
f 59/2/2 56/2/2 60/2/2
f 61/1/2 62/1/2 65/1/2
f 65/1/2 62/1/2 66/1/2
f 63/1/2 64/1/2 67/1/2
f 67/1/2 64/1/2 68/1/2
f 65/2/2 66/2/2 69/2/2
f 69/2/2 66/2/2 70/2/2
f 67/2/2 68/2/2 71/2/2
f 71/2/2 68/2/2 72/2/2
f 65/2/2 69/2/2 73/2/2
f 73/2/2 69/2/2 74/2/2
f 72/2/2 68/2/2 75/2/2
f 75/2/2 68/2/2 76/2/2
f 77/3/2 78/3/2 79/3/2
f 79/3/2 78/3/2 80/3/2
f 81/1/2 82/1/2 85/1/2
f 85/1/2 82/1/2 86/1/2
f 83/1/2 84/1/2 87/1/2
f 87/1/2 84/1/2 88/1/2
f 85/2/2 86/2/2 89/2/2
f 89/2/2 86/2/2 90/2/2
f 87/2/2 88/2/2 91/2/2
f 91/2/2 88/2/2 92/2/2
f 93/3/2 94/3/2 95/3/2
f 95/3/2 94/3/2 96/3/2
f 99/3/3 98/3/3 97/3/3
f 100/3/3 98/3/3 99/3/3
f 104/1/3 102/1/3 101/1/3
f 105/2/3 103/2/3 102/2/3
f 105/1/3 102/1/3 104/1/3
f 106/2/3 103/2/3 105/2/3
f 110/1/3 108/1/3 107/1/3
f 111/2/3 109/2/3 108/2/3
f 111/1/3 108/1/3 110/1/3
f 112/2/3 109/2/3 111/2/3
f 115/3/3 114/3/3 113/3/3
f 116/3/3 114/3/3 115/3/3
f 120/2/3 119/2/3 118/2/3
f 121/2/3 119/2/3 120/2/3
f 122/1/3 118/1/3 117/1/3
f 123/2/3 120/2/3 118/2/3
f 123/1/3 118/1/3 122/1/3
f 124/2/3 120/2/3 123/2/3
f 128/2/3 127/2/3 126/2/3
f 130/1/3 126/1/3 125/1/3
f 131/2/3 128/2/3 126/2/3
f 131/1/3 126/1/3 130/1/3
f 131/2/3 129/2/3 128/2/3
f 132/2/3 129/2/3 131/2/3
f 136/1/3 134/1/3 133/1/3
f 137/2/3 135/2/3 134/2/3
f 137/1/3 134/1/3 136/1/3
f 138/2/3 135/2/3 137/2/3
f 142/1/3 140/1/3 139/1/3
f 143/2/3 141/2/3 140/2/3
f 143/1/3 140/1/3 142/1/3
f 144/2/3 141/2/3 143/2/3
f 145/1/4 146/1/4 148/1/4
f 146/2/4 147/2/4 149/2/4
f 148/1/4 146/1/4 149/1/4
f 149/2/4 147/2/4 150/2/4
f 151/1/4 152/1/4 154/1/4
f 152/2/4 153/2/4 155/2/4
f 154/1/4 152/1/4 155/1/4
f 155/2/4 153/2/4 156/2/4
f 158/2/4 159/2/4 160/2/4
f 160/2/4 159/2/4 161/2/4
f 157/1/4 158/1/4 162/1/4
f 158/2/4 160/2/4 163/2/4
f 162/1/4 158/1/4 163/1/4
f 163/2/4 160/2/4 164/2/4
f 166/2/4 167/2/4 168/2/4
f 165/1/4 166/1/4 170/1/4
f 166/2/4 168/2/4 171/2/4
f 170/1/4 166/1/4 171/1/4
f 168/2/4 169/2/4 171/2/4
f 171/2/4 169/2/4 172/2/4
f 173/3/4 174/3/4 175/3/4
f 175/3/4 174/3/4 176/3/4
f 177/1/4 178/1/4 180/1/4
f 178/2/4 179/2/4 181/2/4
f 180/1/4 178/1/4 181/1/4
f 181/2/4 179/2/4 182/2/4
f 183/1/4 184/1/4 186/1/4
f 184/2/4 185/2/4 187/2/4
f 186/1/4 184/1/4 187/1/4
f 187/2/4 185/2/4 188/2/4
f 189/3/4 190/3/4 191/3/4
f 191/3/4 190/3/4 192/3/4
f 197/1/5 194/1/5 193/1/5
f 198/1/5 194/1/5 197/1/5
f 199/1/5 196/1/5 195/1/5
f 200/1/5 196/1/5 199/1/5
f 201/1/5 197/1/5 193/1/5
f 201/2/5 198/2/5 197/2/5
f 202/1/5 194/1/5 198/1/5
f 202/2/5 198/2/5 201/2/5
f 203/1/5 194/1/5 202/1/5
f 204/1/5 199/1/5 195/1/5
f 205/2/5 200/2/5 199/2/5
f 205/1/5 199/1/5 204/1/5
f 206/1/5 196/1/5 200/1/5
f 206/2/5 200/2/5 205/2/5
f 207/1/5 201/1/5 193/1/5
f 207/1/5 202/1/5 201/1/5
f 208/1/5 202/1/5 207/1/5
f 209/1/5 206/1/5 205/1/5
f 210/1/5 196/1/5 206/1/5
f 210/1/5 206/1/5 209/1/5
f 215/1/5 212/1/5 211/1/5
f 216/1/5 212/1/5 215/1/5
f 219/1/5 214/1/5 213/1/5
f 220/1/5 214/1/5 219/1/5
f 221/1/5 215/1/5 211/1/5
f 221/2/5 216/2/5 215/2/5
f 222/1/5 217/1/5 216/1/5
f 222/2/5 216/2/5 221/2/5
f 223/2/5 220/2/5 219/2/5
f 223/1/5 219/1/5 218/1/5
f 224/1/5 214/1/5 220/1/5
f 224/2/5 220/2/5 223/2/5
f 225/1/5 221/1/5 211/1/5
f 225/1/5 222/1/5 221/1/5
f 226/1/5 217/1/5 222/1/5
f 226/1/5 222/1/5 225/1/5
f 227/1/5 223/1/5 218/1/5
f 227/1/5 224/1/5 223/1/5
f 228/1/5 214/1/5 224/1/5
f 228/1/5 224/1/5 227/1/5
f 232/3/5 230/3/5 229/3/5
f 233/3/5 230/3/5 232/3/5
f 236/3/5 232/3/5 231/3/5
f 236/3/5 234/3/5 233/3/5
f 236/3/5 233/3/5 232/3/5
f 237/3/5 234/3/5 236/3/5
f 239/3/5 236/3/5 235/3/5
f 239/3/5 238/3/5 237/3/5
f 239/3/5 237/3/5 236/3/5
f 240/3/5 238/3/5 239/3/5
f 241/3/5 238/3/5 240/3/5
f 242/3/5 238/3/5 241/3/5
f 243/3/5 241/3/5 240/3/5
f 244/3/5 241/3/5 243/3/5
f 245/3/5 241/3/5 244/3/5
f 246/3/5 241/3/5 245/3/5
f 247/3/5 245/3/5 244/3/5
f 248/3/5 245/3/5 247/3/5
f 251/3/5 250/3/5 249/3/5
f 252/3/5 250/3/5 251/3/5
f 253/3/5 250/3/5 252/3/5
f 254/3/5 250/3/5 253/3/5
f 255/3/5 253/3/5 252/3/5
f 256/3/5 253/3/5 255/3/5
f 257/3/5 251/3/5 249/3/5
f 260/3/5 250/3/5 254/3/5
f 261/3/5 258/3/5 257/3/5
f 261/3/5 257/3/5 249/3/5
f 262/3/5 258/3/5 261/3/5
f 263/3/5 260/3/5 259/3/5
f 264/3/5 250/3/5 260/3/5
f 264/3/5 260/3/5 263/3/5
f 267/3/5 261/3/5 249/3/5
f 268/3/5 266/3/5 265/3/5
f 269/3/5 266/3/5 268/3/5
f 270/3/5 250/3/5 264/3/5
f 271/3/5 269/3/5 268/3/5
f 271/3/5 270/3/5 269/3/5
f 271/3/5 267/3/5 249/3/5
f 271/3/5 268/3/5 267/3/5
f 272/3/5 250/3/5 270/3/5
f 272/3/5 270/3/5 271/3/5
f 273/3/6 274/3/6 275/3/6
f 275/3/6 274/3/6 276/3/6
