# MagicaVoxel @ ephtracy

# material
mtllib TowerHorizontal.mtl
usemtl palette

# normals
vn -1 0 0
vn 1 0 0
vn 0 0 1
vn 0 0 -1
vn 0 -1 0
vn 0 1 0

# texcoords
vt 0.0332031 0.5
vt 0.0371094 0.5
vt 0.0644531 0.5
vt 0.0683594 0.5
vt 0.0761719 0.5

# verts
v -4.5 0 7.5
v -4.5 0 -5.5
v -4.5 4 7.5
v -4.5 4 -5.5
v 3.5 2 7.5
v 3.5 2 6.5
v 3.5 3 7.5
v 3.5 3 6.5
v 2.5 2 7.5
v 2.5 2 6.5
v 2.5 3 7.5
v 2.5 3 6.5
v 4.5 0 7.5
v 4.5 0 -5.5
v 4.5 4 7.5
v 4.5 4 -5.5
v -4.5 0 7.5
v -4.5 4 7.5
v -3.5 1 7.5
v -3.5 3 7.5
v 1.5 1 7.5
v 1.5 3 7.5
v 2.5 1 7.5
v 2.5 2 7.5
v 2.5 3 7.5
v 3.5 1 7.5
v 3.5 2 7.5
v 3.5 3 7.5
v 4.5 0 7.5
v 4.5 4 7.5
v 2.5 2 6.5
v 2.5 3 6.5
v 3.5 2 6.5
v 3.5 3 6.5
v -4.5 0 -5.5
v -4.5 4 -5.5
v -3.5 1 -5.5
v -3.5 3 -5.5
v 3.5 1 -5.5
v 3.5 3 -5.5
v 4.5 0 -5.5
v 4.5 4 -5.5
v -4.5 0 7.5
v 4.5 0 7.5
v -4.5 0 -5.5
v 4.5 0 -5.5
v 2.5 3 7.5
v 3.5 3 7.5
v 2.5 3 6.5
v 3.5 3 6.5
v 2.5 2 7.5
v 3.5 2 7.5
v 2.5 2 6.5
v 3.5 2 6.5
v -4.5 4 7.5
v 4.5 4 7.5
v -3.5 4 -1.5
v -2.5 4 -1.5
v -1.5 4 -1.5
v -0.5 4 -1.5
v -1.5 4 -2.5
v -0.5 4 -2.5
v -1.5 4 -3.5
v -0.5 4 -3.5
v -3.5 4 -4.5
v -2.5 4 -4.5
v -1.5 4 -4.5
v -0.5 4 -4.5
v -4.5 4 -5.5
v 4.5 4 -5.5

# faces
f 3/4/1 2/4/1 1/4/1
f 4/4/1 2/4/1 3/4/1
f 7/4/1 6/4/1 5/4/1
f 8/4/1 6/4/1 7/4/1
f 9/4/2 10/4/2 11/4/2
f 11/4/2 10/4/2 12/4/2
f 13/4/2 14/4/2 15/4/2
f 15/4/2 14/4/2 16/4/2
f 19/4/3 18/4/3 17/4/3
f 20/4/3 18/4/3 19/4/3
f 21/4/3 19/4/3 17/4/3
f 21/3/3 20/3/3 19/3/3
f 22/4/3 18/4/3 20/4/3
f 22/3/3 20/3/3 21/3/3
f 23/4/3 21/4/3 17/4/3
f 23/4/3 22/4/3 21/4/3
f 24/4/3 22/4/3 23/4/3
f 25/4/3 18/4/3 22/4/3
f 25/4/3 22/4/3 24/4/3
f 26/5/3 24/5/3 23/5/3
f 26/4/3 23/4/3 17/4/3
f 27/5/3 24/5/3 26/5/3
f 28/4/3 18/4/3 25/4/3
f 29/4/3 27/4/3 26/4/3
f 29/4/3 28/4/3 27/4/3
f 29/4/3 26/4/3 17/4/3
f 30/4/3 18/4/3 28/4/3
f 30/4/3 28/4/3 29/4/3
f 33/4/3 32/4/3 31/4/3
f 34/4/3 32/4/3 33/4/3
f 35/4/4 36/4/4 37/4/4
f 37/4/4 36/4/4 38/4/4
f 35/4/4 37/4/4 39/4/4
f 37/3/4 38/3/4 39/3/4
f 38/4/4 36/4/4 40/4/4
f 39/3/4 38/3/4 40/3/4
f 35/4/4 39/4/4 41/4/4
f 39/4/4 40/4/4 41/4/4
f 40/4/4 36/4/4 42/4/4
f 41/4/4 40/4/4 42/4/4
f 45/4/5 44/4/5 43/4/5
f 46/4/5 44/4/5 45/4/5
f 49/4/5 48/4/5 47/4/5
f 50/4/5 48/4/5 49/4/5
f 51/5/6 52/5/6 53/5/6
f 53/5/6 52/5/6 54/5/6
f 55/4/6 56/4/6 57/4/6
f 57/4/6 56/4/6 58/4/6
f 58/4/6 56/4/6 59/4/6
f 59/4/6 56/4/6 60/4/6
f 58/4/6 59/4/6 61/4/6
f 59/2/6 60/2/6 61/2/6
f 60/4/6 56/4/6 62/4/6
f 61/2/6 60/2/6 62/2/6
f 58/4/6 61/4/6 63/4/6
f 61/4/6 62/4/6 63/4/6
f 62/4/6 56/4/6 64/4/6
f 63/4/6 62/4/6 64/4/6
f 55/4/6 57/4/6 65/4/6
f 57/3/6 58/3/6 65/3/6
f 58/4/6 63/4/6 66/4/6
f 65/3/6 58/3/6 66/3/6
f 63/1/6 64/1/6 67/1/6
f 66/4/6 63/4/6 67/4/6
f 64/4/6 56/4/6 68/4/6
f 67/1/6 64/1/6 68/1/6
f 66/4/6 67/4/6 69/4/6
f 65/4/6 66/4/6 69/4/6
f 67/4/6 68/4/6 69/4/6
f 55/4/6 65/4/6 69/4/6
f 68/4/6 56/4/6 70/4/6
f 69/4/6 68/4/6 70/4/6
