# MagicaVoxel @ ephtracy

# material
mtllib WaterCooler.mtl
usemtl palette

# normals
vn -1 0 0
vn 1 0 0
vn 0 0 1
vn 0 0 -1
vn 0 -1 0
vn 0 1 0

# texcoords
vt 0.0332031 0.5
vt 0.0371094 0.5
vt 0.0488281 0.5
vt 0.0566406 0.5
vt 0.0800781 0.5

# verts
v -7 15 20
v -7 15 11
v -7 25 20
v -7 25 11
v -6 0 19
v -6 0 12
v -6 15 21
v -6 15 20
v -6 15 19
v -6 15 12
v -6 15 11
v -6 15 10
v -6 25 21
v -6 25 20
v -6 25 11
v -6 25 10
v -5 0 20
v -5 0 19
v -5 0 12
v -5 0 11
v -5 15 20
v -5 15 19
v -5 15 12
v -5 15 11
v 0 12 20
v 0 12 19
v 0 13 20
v 0 13 19
v 1 10 20
v 1 10 19
v 1 12 20
v 1 12 19
v 1 13 20
v 1 13 19
v 1 14 20
v 1 14 19
v 5 12 17
v 5 12 16
v 5 12 15
v 5 12 14
v 5 15 17
v 5 15 16
v 5 15 15
v 5 15 14
v 6 12 16
v 6 12 15
v 6 19 16
v 6 19 15
v -3 10 20
v -3 10 19
v -3 12 20
v -3 12 19
v -3 13 20
v -3 13 19
v -3 14 20
v -3 14 19
v -2 12 20
v -2 12 19
v -2 13 20
v -2 13 19
v 3 0 20
v 3 0 19
v 3 0 12
v 3 0 11
v 3 15 20
v 3 15 19
v 3 15 12
v 3 15 11
v 4 0 19
v 4 0 12
v 4 12 16
v 4 12 15
v 4 15 21
v 4 15 20
v 4 15 19
v 4 15 16
v 4 15 15
v 4 15 12
v 4 15 11
v 4 15 10
v 4 25 21
v 4 25 20
v 4 25 11
v 4 25 10
v 5 12 16
v 5 12 15
v 5 15 20
v 5 15 17
v 5 15 16
v 5 15 15
v 5 15 14
v 5 15 11
v 5 19 17
v 5 19 16
v 5 19 15
v 5 19 14
v 5 20 16
v 5 20 15
v 5 25 20
v 5 25 11
v 6 12 17
v 6 12 16
v 6 12 15
v 6 12 14
v 6 19 17
v 6 19 16
v 6 19 15
v 6 19 14
v 7 12 16
v 7 12 15
v 7 20 16
v 7 20 15
v -6 15 21
v -6 25 21
v 4 15 21
v 4 25 21
v -7 15 20
v -7 25 20
v -6 15 20
v -6 25 20
v -5 0 20
v -5 15 20
v -3 10 20
v -3 12 20
v -3 13 20
v -3 14 20
v -2 12 20
v -2 13 20
v 0 12 20
v 0 13 20
v 1 10 20
v 1 12 20
v 1 13 20
v 1 14 20
v 3 0 20
v 3 15 20
v 4 15 20
v 4 25 20
v 5 15 20
v 5 25 20
v -6 0 19
v -6 15 19
v -5 0 19
v -5 15 19
v -3 10 19
v -3 12 19
v -3 13 19
v -3 14 19
v -2 12 19
v -2 13 19
v 0 12 19
v 0 13 19
v 1 10 19
v 1 12 19
v 1 13 19
v 1 14 19
v 3 0 19
v 3 15 19
v 4 0 19
v 4 15 19
v 5 12 17
v 5 15 17
v 5 19 17
v 6 12 17
v 6 19 17
v 4 12 16
v 4 15 16
v 5 12 16
v 5 15 16
v 5 19 16
v 5 20 16
v 6 12 16
v 6 19 16
v 7 12 16
v 7 20 16
v 5 12 15
v 5 15 15
v 5 19 15
v 6 12 15
v 6 19 15
v 5 12 16
v 5 15 16
v 5 19 16
v 6 12 16
v 6 19 16
v 4 12 15
v 4 15 15
v 5 12 15
v 5 15 15
v 5 19 15
v 5 20 15
v 6 12 15
v 6 19 15
v 7 12 15
v 7 20 15
v 5 12 14
v 5 15 14
v 5 19 14
v 6 12 14
v 6 19 14
v -6 0 12
v -6 15 12
v -5 0 12
v -5 15 12
v 3 0 12
v 3 15 12
v 4 0 12
v 4 15 12
v -7 15 11
v -7 25 11
v -6 15 11
v -6 25 11
v -5 0 11
v -5 15 11
v 3 0 11
v 3 15 11
v 4 15 11
v 4 25 11
v 5 15 11
v 5 25 11
v -6 15 10
v -6 25 10
v 4 15 10
v 4 25 10
v -5 0 20
v 3 0 20
v -6 0 19
v -5 0 19
v 3 0 19
v 4 0 19
v -6 0 12
v -5 0 12
v 3 0 12
v 4 0 12
v -5 0 11
v 3 0 11
v -3 12 20
v -2 12 20
v 0 12 20
v 1 12 20
v -3 12 19
v -2 12 19
v 0 12 19
v 1 12 19
v 5 12 17
v 6 12 17
v 4 12 16
v 5 12 16
v 6 12 16
v 7 12 16
v 4 12 15
v 5 12 15
v 6 12 15
v 7 12 15
v 5 12 14
v 6 12 14
v -3 14 20
v 1 14 20
v -3 14 19
v 1 14 19
v -6 15 21
v 4 15 21
v -7 15 20
v -6 15 20
v -5 15 20
v 3 15 20
v 4 15 20
v 5 15 20
v -6 15 19
v -5 15 19
v 3 15 19
v 4 15 19
v 5 15 17
v 4 15 16
v 5 15 16
v 4 15 15
v 5 15 15
v 5 15 14
v -6 15 12
v -5 15 12
v 3 15 12
v 4 15 12
v -7 15 11
v -6 15 11
v -5 15 11
v 3 15 11
v 4 15 11
v 5 15 11
v -6 15 10
v 4 15 10
v 5 19 16
v 6 19 16
v 5 19 15
v 6 19 15
v -3 10 20
v 1 10 20
v -3 10 19
v 1 10 19
v -3 13 20
v -2 13 20
v 0 13 20
v 1 13 20
v -3 13 19
v -2 13 19
v 0 13 19
v 1 13 19
v 5 19 17
v 6 19 17
v 5 19 16
v 6 19 16
v 5 19 15
v 6 19 15
v 5 19 14
v 6 19 14
v 5 20 16
v 7 20 16
v 5 20 15
v 7 20 15
v -6 25 21
v 4 25 21
v -7 25 20
v -6 25 20
v 4 25 20
v 5 25 20
v -7 25 11
v -6 25 11
v 4 25 11
v 5 25 11
v -6 25 10
v 4 25 10

# faces
f 3/5/1 2/5/1 1/5/1
f 4/5/1 2/5/1 3/5/1
f 9/3/1 6/3/1 5/3/1
f 10/3/1 6/3/1 9/3/1
f 13/5/1 8/5/1 7/5/1
f 14/5/1 8/5/1 13/5/1
f 15/5/1 12/5/1 11/5/1
f 16/5/1 12/5/1 15/5/1
f 21/3/1 18/3/1 17/3/1
f 22/3/1 18/3/1 21/3/1
f 23/3/1 20/3/1 19/3/1
f 24/3/1 20/3/1 23/3/1
f 27/1/1 26/1/1 25/1/1
f 28/1/1 26/1/1 27/1/1
f 31/3/1 30/3/1 29/3/1
f 32/3/1 30/3/1 31/3/1
f 35/3/1 34/3/1 33/3/1
f 36/3/1 34/3/1 35/3/1
f 41/4/1 38/4/1 37/4/1
f 42/4/1 38/4/1 41/4/1
f 43/4/1 40/4/1 39/4/1
f 44/4/1 40/4/1 43/4/1
f 47/4/1 46/4/1 45/4/1
f 48/4/1 46/4/1 47/4/1
f 49/3/2 50/3/2 51/3/2
f 51/3/2 50/3/2 52/3/2
f 53/3/2 54/3/2 55/3/2
f 55/3/2 54/3/2 56/3/2
f 57/2/2 58/2/2 59/2/2
f 59/2/2 58/2/2 60/2/2
f 61/3/2 62/3/2 65/3/2
f 65/3/2 62/3/2 66/3/2
f 63/3/2 64/3/2 67/3/2
f 67/3/2 64/3/2 68/3/2
f 69/3/2 70/3/2 71/3/2
f 71/3/2 70/3/2 72/3/2
f 69/3/2 71/3/2 75/3/2
f 75/3/2 71/3/2 76/3/2
f 72/3/2 70/3/2 77/3/2
f 77/3/2 70/3/2 78/3/2
f 73/5/2 74/5/2 81/5/2
f 81/5/2 74/5/2 82/5/2
f 79/5/2 80/5/2 83/5/2
f 83/5/2 80/5/2 84/5/2
f 85/4/2 86/4/2 89/4/2
f 89/4/2 86/4/2 90/4/2
f 87/5/2 88/5/2 93/5/2
f 89/5/2 90/5/2 94/5/2
f 94/5/2 90/5/2 95/5/2
f 91/5/2 92/5/2 96/5/2
f 93/5/2 94/5/2 97/5/2
f 95/5/2 96/5/2 98/5/2
f 93/5/2 97/5/2 99/5/2
f 97/5/2 98/5/2 99/5/2
f 87/5/2 93/5/2 99/5/2
f 98/5/2 96/5/2 100/5/2
f 99/5/2 98/5/2 100/5/2
f 96/5/2 92/5/2 100/5/2
f 101/4/2 102/4/2 105/4/2
f 105/4/2 102/4/2 106/4/2
f 103/4/2 104/4/2 107/4/2
f 107/4/2 104/4/2 108/4/2
f 109/4/2 110/4/2 111/4/2
f 111/4/2 110/4/2 112/4/2
f 115/5/3 114/5/3 113/5/3
f 116/5/3 114/5/3 115/5/3
f 119/5/3 118/5/3 117/5/3
f 120/5/3 118/5/3 119/5/3
f 123/3/3 122/3/3 121/3/3
f 124/3/3 122/3/3 123/3/3
f 125/3/3 122/3/3 124/3/3
f 126/3/3 122/3/3 125/3/3
f 127/2/3 125/2/3 124/2/3
f 128/2/3 125/2/3 127/2/3
f 131/3/3 123/3/3 121/3/3
f 132/1/3 130/1/3 129/1/3
f 133/1/3 130/1/3 132/1/3
f 134/3/3 122/3/3 126/3/3
f 135/3/3 131/3/3 121/3/3
f 135/3/3 134/3/3 133/3/3
f 135/3/3 133/3/3 132/3/3
f 135/3/3 132/3/3 131/3/3
f 136/3/3 122/3/3 134/3/3
f 136/3/3 134/3/3 135/3/3
f 139/5/3 138/5/3 137/5/3
f 140/5/3 138/5/3 139/5/3
f 143/3/3 142/3/3 141/3/3
f 144/3/3 142/3/3 143/3/3
f 149/3/3 146/3/3 145/3/3
f 150/3/3 148/3/3 147/3/3
f 151/3/3 149/3/3 145/3/3
f 151/3/3 150/3/3 149/3/3
f 152/3/3 148/3/3 150/3/3
f 152/3/3 150/3/3 151/3/3
f 153/3/3 151/3/3 145/3/3
f 154/3/3 151/3/3 153/3/3
f 155/3/3 148/3/3 152/3/3
f 156/3/3 148/3/3 155/3/3
f 159/3/3 158/3/3 157/3/3
f 160/3/3 158/3/3 159/3/3
f 164/4/3 162/4/3 161/4/3
f 164/4/3 163/4/3 162/4/3
f 165/4/3 163/4/3 164/4/3
f 168/4/3 167/4/3 166/4/3
f 169/4/3 167/4/3 168/4/3
f 173/4/3 171/4/3 170/4/3
f 174/4/3 173/4/3 172/4/3
f 175/4/3 171/4/3 173/4/3
f 175/4/3 173/4/3 174/4/3
f 179/4/3 177/4/3 176/4/3
f 179/4/3 178/4/3 177/4/3
f 180/4/3 178/4/3 179/4/3
f 181/4/4 182/4/4 184/4/4
f 182/4/4 183/4/4 184/4/4
f 184/4/4 183/4/4 185/4/4
f 186/4/4 187/4/4 188/4/4
f 188/4/4 187/4/4 189/4/4
f 190/4/4 191/4/4 193/4/4
f 192/4/4 193/4/4 194/4/4
f 193/4/4 191/4/4 195/4/4
f 194/4/4 193/4/4 195/4/4
f 196/4/4 197/4/4 199/4/4
f 197/4/4 198/4/4 199/4/4
f 199/4/4 198/4/4 200/4/4
f 201/3/4 202/3/4 203/3/4
f 203/3/4 202/3/4 204/3/4
f 205/3/4 206/3/4 207/3/4
f 207/3/4 206/3/4 208/3/4
f 209/5/4 210/5/4 211/5/4
f 211/5/4 210/5/4 212/5/4
f 213/3/4 214/3/4 215/3/4
f 215/3/4 214/3/4 216/3/4
f 217/5/4 218/5/4 219/5/4
f 219/5/4 218/5/4 220/5/4
f 221/5/4 222/5/4 223/5/4
f 223/5/4 222/5/4 224/5/4
f 228/3/5 226/3/5 225/3/5
f 229/3/5 226/3/5 228/3/5
f 231/3/5 228/3/5 227/3/5
f 231/3/5 230/3/5 229/3/5
f 231/3/5 229/3/5 228/3/5
f 232/3/5 230/3/5 231/3/5
f 233/3/5 230/3/5 232/3/5
f 234/3/5 230/3/5 233/3/5
f 235/3/5 233/3/5 232/3/5
f 236/3/5 233/3/5 235/3/5
f 241/2/5 238/2/5 237/2/5
f 242/2/5 238/2/5 241/2/5
f 243/1/5 240/1/5 239/1/5
f 244/1/5 240/1/5 243/1/5
f 248/4/5 246/4/5 245/4/5
f 249/4/5 246/4/5 248/4/5
f 251/4/5 248/4/5 247/4/5
f 252/4/5 248/4/5 251/4/5
f 253/4/5 250/4/5 249/4/5
f 254/4/5 250/4/5 253/4/5
f 255/4/5 253/4/5 252/4/5
f 256/4/5 253/4/5 255/4/5
f 259/3/5 258/3/5 257/3/5
f 260/3/5 258/3/5 259/3/5
f 264/5/5 262/5/5 261/5/5
f 265/5/5 262/5/5 264/5/5
f 266/5/5 262/5/5 265/5/5
f 267/5/5 262/5/5 266/5/5
f 269/5/5 264/5/5 263/5/5
f 269/5/5 265/5/5 264/5/5
f 270/5/5 265/5/5 269/5/5
f 271/5/5 268/5/5 267/5/5
f 271/5/5 267/5/5 266/5/5
f 272/5/5 268/5/5 271/5/5
f 273/5/5 268/5/5 272/5/5
f 274/5/5 273/5/5 272/5/5
f 275/5/5 273/5/5 274/5/5
f 278/5/5 277/5/5 276/5/5
f 279/5/5 269/5/5 263/5/5
f 282/5/5 278/5/5 276/5/5
f 283/5/5 280/5/5 279/5/5
f 283/5/5 279/5/5 263/5/5
f 284/5/5 280/5/5 283/5/5
f 285/5/5 280/5/5 284/5/5
f 286/5/5 282/5/5 281/5/5
f 287/5/5 278/5/5 282/5/5
f 287/5/5 282/5/5 286/5/5
f 288/5/5 278/5/5 287/5/5
f 289/5/5 285/5/5 284/5/5
f 289/5/5 286/5/5 285/5/5
f 289/5/5 287/5/5 286/5/5
f 290/5/5 287/5/5 289/5/5
f 293/4/5 292/4/5 291/4/5
f 294/4/5 292/4/5 293/4/5
f 295/3/6 296/3/6 297/3/6
f 297/3/6 296/3/6 298/3/6
f 299/2/6 300/2/6 303/2/6
f 303/2/6 300/2/6 304/2/6
f 301/1/6 302/1/6 305/1/6
f 305/1/6 302/1/6 306/1/6
f 307/4/6 308/4/6 309/4/6
f 309/4/6 308/4/6 310/4/6
f 311/4/6 312/4/6 313/4/6
f 313/4/6 312/4/6 314/4/6
f 315/4/6 316/4/6 317/4/6
f 317/4/6 316/4/6 318/4/6
f 319/5/6 320/5/6 322/5/6
f 322/5/6 320/5/6 323/5/6
f 321/5/6 322/5/6 325/5/6
f 323/5/6 324/5/6 325/5/6
f 322/5/6 323/5/6 325/5/6
f 325/5/6 324/5/6 326/5/6
f 326/5/6 324/5/6 327/5/6
f 327/5/6 324/5/6 328/5/6
f 326/5/6 327/5/6 329/5/6
f 329/5/6 327/5/6 330/5/6
