# MagicaVoxel @ ephtracy

# material
mtllib WhiteBoardFull.mtl
usemtl palette

# normals
vn -1 0 0
vn 1 0 0
vn 0 0 1
vn 0 0 -1
vn 0 -1 0
vn 0 1 0

# texcoords
vt 0.00976563 0.5
vt 0.0332031 0.5
vt 0.0371094 0.5
vt 0.0449219 0.5
vt 0.0488281 0.5
vt 0.0722656 0.5

# verts
v -18 0 18
v -18 0 16
v -18 2 18
v -18 2 16
v -18 3 18
v -18 3 17
v -18 17 18
v -18 17 17
v -18 18 18
v -18 18 17
v -18 38 17
v -18 38 16
v -17 19 16
v -17 19 15
v -17 37 16
v -17 37 15
v 17 0 18
v 17 0 16
v 17 2 18
v 17 2 16
v 17 3 18
v 17 3 17
v 17 17 17
v 17 17 16
v -17 0 18
v -17 0 16
v -17 2 18
v -17 2 16
v -17 3 18
v -17 3 17
v -17 17 17
v -17 17 16
v 17 19 16
v 17 19 15
v 17 37 16
v 17 37 15
v 18 0 18
v 18 0 16
v 18 2 18
v 18 2 16
v 18 3 18
v 18 3 17
v 18 17 18
v 18 17 17
v 18 18 18
v 18 18 17
v 18 38 17
v 18 38 16
v -18 0 18
v -18 2 18
v -18 3 18
v -18 17 18
v -18 18 18
v -17 0 18
v -17 2 18
v -17 3 18
v 17 0 18
v 17 2 18
v 17 3 18
v 18 0 18
v 18 2 18
v 18 3 18
v 18 17 18
v 18 18 18
v -18 3 17
v -18 17 17
v -18 18 17
v -18 38 17
v -17 3 17
v -17 17 17
v -17 19 17
v -17 37 17
v -15 27 17
v -15 28 17
v -15 34 17
v -15 35 17
v -14 21 17
v -14 22 17
v -14 23 17
v -14 24 17
v -14 27 17
v -14 28 17
v -14 29 17
v -14 30 17
v -14 31 17
v -14 32 17
v -13 27 17
v -13 28 17
v -13 31 17
v -13 32 17
v -13 34 17
v -13 35 17
v -12 21 17
v -12 22 17
v -12 29 17
v -12 30 17
v -12 31 17
v -12 32 17
v -12 34 17
v -12 35 17
v -11 21 17
v -11 22 17
v -11 23 17
v -11 24 17
v -11 29 17
v -11 30 17
v -11 31 17
v -11 32 17
v -10 21 17
v -10 22 17
v -10 27 17
v -10 28 17
v -10 29 17
v -10 30 17
v -10 31 17
v -10 32 17
v -10 34 17
v -10 35 17
v -9 22 17
v -9 23 17
v -9 24 17
v -9 25 17
v -9 27 17
v -9 28 17
v -9 29 17
v -9 30 17
v -8 27 17
v -8 28 17
v -8 34 17
v -8 35 17
v -7 27 17
v -7 28 17
v -7 29 17
v -7 30 17
v -6 24 17
v -6 25 17
v -6 31 17
v -6 32 17
v -5 22 17
v -5 23 17
v -5 24 17
v -5 25 17
v -5 27 17
v -5 28 17
v -5 34 17
v -5 35 17
v -4 22 17
v -4 23 17
v -4 24 17
v -4 25 17
v -4 29 17
v -4 30 17
v -3 22 17
v -3 23 17
v -3 28 17
v -3 29 17
v -3 30 17
v -3 31 17
v -3 34 17
v -3 35 17
v -2 25 17
v -2 26 17
v -2 28 17
v -2 29 17
v -2 30 17
v -2 31 17
v -2 34 17
v -2 35 17
v -1 21 17
v -1 25 17
v -1 26 17
v -1 27 17
v -1 34 17
v -1 35 17
v 0 21 17
v 0 25 17
v 0 26 17
v 0 27 17
v 1 25 17
v 1 26 17
v 1 34 17
v 1 35 17
v 2 34 17
v 2 35 17
v 3 22 17
v 3 23 17
v 3 34 17
v 3 35 17
v 4 22 17
v 4 23 17
v 4 27 17
v 4 28 17
v 4 29 17
v 4 30 17
v 4 31 17
v 4 32 17
v 5 22 17
v 5 23 17
v 5 31 17
v 5 32 17
v 5 34 17
v 5 35 17
v 6 22 17
v 6 23 17
v 6 24 17
v 6 25 17
v 6 29 17
v 6 30 17
v 7 22 17
v 7 23 17
v 7 29 17
v 7 30 17
v 7 31 17
v 7 32 17
v 8 20 17
v 8 21 17
v 8 29 17
v 8 30 17
v 8 34 17
v 8 35 17
v 9 20 17
v 9 21 17
v 9 22 17
v 9 23 17
v 9 24 17
v 9 25 17
v 10 24 17
v 10 25 17
v 10 31 17
v 10 32 17
v 10 34 17
v 10 35 17
v 11 22 17
v 11 23 17
v 11 24 17
v 11 25 17
v 11 27 17
v 11 28 17
v 11 31 17
v 11 32 17
v 12 27 17
v 12 28 17
v 12 29 17
v 12 30 17
v 12 34 17
v 12 35 17
v 13 34 17
v 13 35 17
v 14 27 17
v 14 28 17
v 14 29 17
v 14 30 17
v 14 31 17
v 14 32 17
v 15 27 17
v 15 28 17
v 15 29 17
v 15 30 17
v 15 31 17
v 15 32 17
v 15 34 17
v 15 35 17
v 16 22 17
v 16 23 17
v 16 27 17
v 16 28 17
v 16 31 17
v 16 32 17
v 17 3 17
v 17 17 17
v 17 19 17
v 17 37 17
v 18 3 17
v 18 17 17
v 18 18 17
v 18 38 17
v -18 0 16
v -18 2 16
v -18 38 16
v -17 0 16
v -17 2 16
v -17 17 16
v -17 19 16
v -17 37 16
v 17 0 16
v 17 2 16
v 17 17 16
v 17 19 16
v 17 37 16
v 18 0 16
v 18 2 16
v 18 38 16
v -17 19 15
v -17 37 15
v 17 19 15
v 17 37 15
v -18 0 18
v -17 0 18
v 17 0 18
v 18 0 18
v -18 0 16
v -17 0 16
v 17 0 16
v 18 0 16
v -18 17 18
v 18 17 18
v -18 17 17
v -17 17 17
v 17 17 17
v 18 17 17
v -17 17 16
v 17 17 16
v -17 19 16
v 17 19 16
v -17 19 15
v 17 19 15
v -18 3 18
v -17 3 18
v 17 3 18
v 18 3 18
v -18 3 17
v -17 3 17
v 17 3 17
v 18 3 17
v -18 18 18
v 18 18 18
v -18 18 17
v 18 18 17
v -17 37 16
v 17 37 16
v -17 37 15
v 17 37 15
v -18 38 17
v 18 38 17
v -18 38 16
v 18 38 16

# faces
f 3/1/1 2/1/1 1/1/1
f 4/1/1 2/1/1 3/1/1
f 5/5/1 4/5/1 3/5/1
f 6/5/1 4/5/1 5/5/1
f 8/5/1 4/5/1 6/5/1
f 9/5/1 8/5/1 7/5/1
f 10/5/1 4/5/1 8/5/1
f 10/5/1 8/5/1 9/5/1
f 11/5/1 4/5/1 10/5/1
f 12/5/1 4/5/1 11/5/1
f 15/4/1 14/4/1 13/4/1
f 16/4/1 14/4/1 15/4/1
f 19/1/1 18/1/1 17/1/1
f 20/1/1 18/1/1 19/1/1
f 21/5/1 20/5/1 19/5/1
f 22/5/1 20/5/1 21/5/1
f 23/5/1 20/5/1 22/5/1
f 24/5/1 20/5/1 23/5/1
f 25/1/2 26/1/2 27/1/2
f 27/1/2 26/1/2 28/1/2
f 27/5/2 28/5/2 29/5/2
f 29/5/2 28/5/2 30/5/2
f 30/5/2 28/5/2 31/5/2
f 31/5/2 28/5/2 32/5/2
f 33/4/2 34/4/2 35/4/2
f 35/4/2 34/4/2 36/4/2
f 37/1/2 38/1/2 39/1/2
f 39/1/2 38/1/2 40/1/2
f 39/5/2 40/5/2 41/5/2
f 41/5/2 40/5/2 42/5/2
f 42/5/2 40/5/2 44/5/2
f 43/5/2 44/5/2 45/5/2
f 44/5/2 40/5/2 46/5/2
f 45/5/2 44/5/2 46/5/2
f 46/5/2 40/5/2 47/5/2
f 47/5/2 40/5/2 48/5/2
f 54/1/3 50/1/3 49/1/3
f 55/5/3 51/5/3 50/5/3
f 55/1/3 50/1/3 54/1/3
f 56/5/3 51/5/3 55/5/3
f 60/1/3 58/1/3 57/1/3
f 61/5/3 59/5/3 58/5/3
f 61/1/3 58/1/3 60/1/3
f 62/5/3 59/5/3 61/5/3
f 63/5/3 53/5/3 52/5/3
f 64/5/3 53/5/3 63/5/3
f 69/5/3 66/5/3 65/5/3
f 70/5/3 66/5/3 69/5/3
f 71/5/3 68/5/3 67/5/3
f 72/5/3 68/5/3 71/5/3
f 73/4/3 72/4/3 71/4/3
f 74/4/3 72/4/3 73/4/3
f 75/4/3 72/4/3 74/4/3
f 76/4/3 72/4/3 75/4/3
f 77/4/3 73/4/3 71/4/3
f 78/4/3 73/4/3 77/4/3
f 79/4/3 73/4/3 78/4/3
f 80/4/3 73/4/3 79/4/3
f 81/2/3 74/2/3 73/2/3
f 81/4/3 73/4/3 80/4/3
f 82/4/3 75/4/3 74/4/3
f 82/2/3 74/2/3 81/2/3
f 83/4/3 75/4/3 82/4/3
f 84/4/3 75/4/3 83/4/3
f 85/4/3 75/4/3 84/4/3
f 86/4/3 75/4/3 85/4/3
f 87/4/3 81/4/3 80/4/3
f 87/4/3 82/4/3 81/4/3
f 87/4/3 83/4/3 82/4/3
f 88/4/3 83/4/3 87/4/3
f 89/2/3 86/2/3 85/2/3
f 89/4/3 85/4/3 84/4/3
f 90/4/3 75/4/3 86/4/3
f 90/2/3 86/2/3 89/2/3
f 91/2/3 76/2/3 75/2/3
f 91/4/3 75/4/3 90/4/3
f 92/4/3 72/4/3 76/4/3
f 92/2/3 76/2/3 91/2/3
f 93/4/3 77/4/3 71/4/3
f 93/3/3 78/3/3 77/3/3
f 94/4/3 79/4/3 78/4/3
f 94/3/3 78/3/3 93/3/3
f 95/4/3 83/4/3 88/4/3
f 95/2/3 84/2/3 83/2/3
f 96/4/3 91/4/3 90/4/3
f 96/2/3 84/2/3 95/2/3
f 96/4/3 89/4/3 84/4/3
f 96/4/3 90/4/3 89/4/3
f 96/4/3 92/4/3 91/4/3
f 97/4/3 92/4/3 96/4/3
f 98/4/3 92/4/3 97/4/3
f 99/4/3 92/4/3 98/4/3
f 100/4/3 72/4/3 92/4/3
f 100/4/3 92/4/3 99/4/3
f 101/4/3 94/4/3 93/4/3
f 101/4/3 93/4/3 71/4/3
f 102/4/3 79/4/3 94/4/3
f 102/4/3 94/4/3 101/4/3
f 103/3/3 80/3/3 79/3/3
f 103/4/3 79/4/3 102/4/3
f 104/4/3 87/4/3 80/4/3
f 104/3/3 80/3/3 103/3/3
f 105/4/3 95/4/3 88/4/3
f 105/4/3 96/4/3 95/4/3
f 105/4/3 97/4/3 96/4/3
f 106/4/3 97/4/3 105/4/3
f 107/2/3 98/2/3 97/2/3
f 107/4/3 97/4/3 106/4/3
f 108/4/3 99/4/3 98/4/3
f 108/2/3 98/2/3 107/2/3
f 109/3/3 102/3/3 101/3/3
f 109/4/3 101/4/3 71/4/3
f 110/4/3 103/4/3 102/4/3
f 110/3/3 102/3/3 109/3/3
f 110/4/3 104/4/3 103/4/3
f 111/4/3 87/4/3 104/4/3
f 111/4/3 104/4/3 110/4/3
f 111/2/3 88/2/3 87/2/3
f 112/4/3 105/4/3 88/4/3
f 112/2/3 88/2/3 111/2/3
f 113/2/3 106/2/3 105/2/3
f 113/4/3 105/4/3 112/4/3
f 114/4/3 107/4/3 106/4/3
f 114/2/3 106/2/3 113/2/3
f 114/4/3 108/4/3 107/4/3
f 115/4/3 108/4/3 114/4/3
f 116/4/3 99/4/3 108/4/3
f 116/4/3 108/4/3 115/4/3
f 117/2/3 100/2/3 99/2/3
f 117/4/3 99/4/3 116/4/3
f 118/4/3 72/4/3 100/4/3
f 118/2/3 100/2/3 117/2/3
f 119/4/3 110/4/3 109/4/3
f 119/4/3 115/4/3 114/4/3
f 119/4/3 113/4/3 112/4/3
f 119/4/3 114/4/3 113/4/3
f 119/4/3 111/4/3 110/4/3
f 119/4/3 112/4/3 111/4/3
f 120/4/3 115/4/3 119/4/3
f 121/4/3 115/4/3 120/4/3
f 122/4/3 115/4/3 121/4/3
f 123/4/3 115/4/3 122/4/3
f 124/4/3 115/4/3 123/4/3
f 125/4/3 115/4/3 124/4/3
f 126/4/3 115/4/3 125/4/3
f 127/4/3 123/4/3 122/4/3
f 127/2/3 124/2/3 123/2/3
f 128/4/3 125/4/3 124/4/3
f 128/2/3 124/2/3 127/2/3
f 129/4/3 118/4/3 117/4/3
f 129/4/3 117/4/3 116/4/3
f 130/4/3 72/4/3 118/4/3
f 130/4/3 118/4/3 129/4/3
f 131/4/3 128/4/3 127/4/3
f 131/4/3 127/4/3 122/4/3
f 132/4/3 125/4/3 128/4/3
f 132/4/3 128/4/3 131/4/3
f 133/2/3 126/2/3 125/2/3
f 133/4/3 125/4/3 132/4/3
f 134/4/3 115/4/3 126/4/3
f 134/2/3 126/2/3 133/2/3
f 135/4/3 121/4/3 120/4/3
f 135/3/3 122/3/3 121/3/3
f 136/4/3 131/4/3 122/4/3
f 136/3/3 122/3/3 135/3/3
f 137/2/3 116/2/3 115/2/3
f 137/4/3 115/4/3 134/4/3
f 137/4/3 134/4/3 133/4/3
f 137/4/3 133/4/3 132/4/3
f 138/4/3 129/4/3 116/4/3
f 138/2/3 116/2/3 137/2/3
f 139/4/3 119/4/3 109/4/3
f 139/3/3 120/3/3 119/3/3
f 140/4/3 135/4/3 120/4/3
f 140/3/3 120/3/3 139/3/3
f 140/4/3 136/4/3 135/4/3
f 141/4/3 136/4/3 140/4/3
f 142/4/3 131/4/3 136/4/3
f 142/4/3 136/4/3 141/4/3
f 143/2/3 132/2/3 131/2/3
f 143/4/3 131/4/3 142/4/3
f 144/4/3 137/4/3 132/4/3
f 144/2/3 132/2/3 143/2/3
f 144/4/3 138/4/3 137/4/3
f 145/4/3 129/4/3 138/4/3
f 145/4/3 138/4/3 144/4/3
f 145/2/3 130/2/3 129/2/3
f 146/4/3 72/4/3 130/4/3
f 146/2/3 130/2/3 145/2/3
f 147/4/3 139/4/3 109/4/3
f 147/4/3 141/4/3 140/4/3
f 147/4/3 140/4/3 139/4/3
f 148/4/3 141/4/3 147/4/3
f 149/3/3 142/3/3 141/3/3
f 149/4/3 141/4/3 148/4/3
f 150/4/3 143/4/3 142/4/3
f 150/3/3 142/3/3 149/3/3
f 150/4/3 145/4/3 144/4/3
f 150/4/3 146/4/3 145/4/3
f 150/4/3 144/4/3 143/4/3
f 151/4/3 146/4/3 150/4/3
f 152/4/3 146/4/3 151/4/3
f 153/4/3 147/4/3 109/4/3
f 153/3/3 148/3/3 147/3/3
f 154/4/3 149/4/3 148/4/3
f 154/3/3 148/3/3 153/3/3
f 154/4/3 150/4/3 149/4/3
f 154/4/3 151/4/3 150/4/3
f 155/4/3 151/4/3 154/4/3
f 156/6/3 152/6/3 151/6/3
f 156/4/3 151/4/3 155/4/3
f 157/4/3 146/4/3 152/4/3
f 157/6/3 152/6/3 156/6/3
f 158/4/3 146/4/3 157/4/3
f 159/4/3 146/4/3 158/4/3
f 160/4/3 72/4/3 146/4/3
f 160/4/3 146/4/3 159/4/3
f 161/4/3 155/4/3 154/4/3
f 161/4/3 154/4/3 153/4/3
f 162/4/3 155/4/3 161/4/3
f 163/6/3 156/6/3 155/6/3
f 163/4/3 155/4/3 162/4/3
f 163/6/3 157/6/3 156/6/3
f 163/6/3 158/6/3 157/6/3
f 164/6/3 158/6/3 163/6/3
f 165/6/3 158/6/3 164/6/3
f 166/4/3 159/4/3 158/4/3
f 166/6/3 158/6/3 165/6/3
f 167/2/3 160/2/3 159/2/3
f 167/4/3 159/4/3 166/4/3
f 168/4/3 72/4/3 160/4/3
f 168/2/3 160/2/3 167/2/3
f 169/4/3 153/4/3 109/4/3
f 169/4/3 109/4/3 71/4/3
f 169/4/3 161/4/3 153/4/3
f 170/3/3 162/3/3 161/3/3
f 170/4/3 161/4/3 169/4/3
f 171/4/3 164/4/3 163/4/3
f 171/3/3 162/3/3 170/3/3
f 171/4/3 163/4/3 162/4/3
f 172/4/3 164/4/3 171/4/3
f 173/4/3 168/4/3 167/4/3
f 173/4/3 167/4/3 166/4/3
f 173/4/3 166/4/3 165/4/3
f 174/4/3 72/4/3 168/4/3
f 174/4/3 168/4/3 173/4/3
f 175/4/3 169/4/3 71/4/3
f 175/3/3 172/3/3 171/3/3
f 175/3/3 171/3/3 170/3/3
f 175/3/3 170/3/3 169/3/3
f 176/3/3 172/3/3 175/3/3
f 177/3/3 172/3/3 176/3/3
f 178/4/3 164/4/3 172/4/3
f 178/3/3 172/3/3 177/3/3
f 179/3/3 177/3/3 176/3/3
f 179/4/3 176/4/3 175/4/3
f 180/4/3 178/4/3 177/4/3
f 180/3/3 177/3/3 179/3/3
f 181/4/3 173/4/3 165/4/3
f 181/2/3 174/2/3 173/2/3
f 182/4/3 72/4/3 174/4/3
f 182/2/3 174/2/3 181/2/3
f 183/4/3 181/4/3 165/4/3
f 183/4/3 182/4/3 181/4/3
f 184/4/3 72/4/3 182/4/3
f 184/4/3 182/4/3 183/4/3
f 185/4/3 180/4/3 179/4/3
f 185/4/3 179/4/3 175/4/3
f 186/4/3 180/4/3 185/4/3
f 187/4/3 183/4/3 165/4/3
f 187/2/3 184/2/3 183/2/3
f 188/4/3 72/4/3 184/4/3
f 188/2/3 184/2/3 187/2/3
f 189/3/3 186/3/3 185/3/3
f 189/4/3 185/4/3 175/4/3
f 190/4/3 180/4/3 186/4/3
f 190/3/3 186/3/3 189/3/3
f 191/4/3 178/4/3 180/4/3
f 191/4/3 180/4/3 190/4/3
f 191/4/3 164/4/3 178/4/3
f 192/4/3 164/4/3 191/4/3
f 193/6/3 165/6/3 164/6/3
f 193/4/3 164/4/3 192/4/3
f 194/4/3 188/4/3 187/4/3
f 194/6/3 165/6/3 193/6/3
f 194/4/3 187/4/3 165/4/3
f 195/4/3 188/4/3 194/4/3
f 196/4/3 188/4/3 195/4/3
f 197/4/3 190/4/3 189/4/3
f 197/4/3 189/4/3 175/4/3
f 197/4/3 191/4/3 190/4/3
f 198/4/3 191/4/3 197/4/3
f 199/4/3 193/4/3 192/4/3
f 199/6/3 196/6/3 195/6/3
f 199/4/3 195/4/3 194/4/3
f 199/4/3 194/4/3 193/4/3
f 200/4/3 188/4/3 196/4/3
f 200/6/3 196/6/3 199/6/3
f 201/4/3 188/4/3 200/4/3
f 202/4/3 72/4/3 188/4/3
f 202/4/3 188/4/3 201/4/3
f 203/3/3 198/3/3 197/3/3
f 203/4/3 197/4/3 175/4/3
f 204/4/3 191/4/3 198/4/3
f 204/3/3 198/3/3 203/3/3
f 205/4/3 191/4/3 204/4/3
f 206/4/3 191/4/3 205/4/3
f 207/4/3 199/4/3 192/4/3
f 207/4/3 201/4/3 200/4/3
f 207/4/3 200/4/3 199/4/3
f 208/4/3 201/4/3 207/4/3
f 209/4/3 203/4/3 175/4/3
f 209/4/3 205/4/3 204/4/3
f 209/4/3 204/4/3 203/4/3
f 210/4/3 205/4/3 209/4/3
f 211/6/3 208/6/3 207/6/3
f 211/4/3 207/4/3 192/4/3
f 212/4/3 201/4/3 208/4/3
f 212/6/3 208/6/3 211/6/3
f 213/4/3 201/4/3 212/4/3
f 214/4/3 201/4/3 213/4/3
f 215/4/3 175/4/3 71/4/3
f 215/4/3 209/4/3 175/4/3
f 216/4/3 209/4/3 215/4/3
f 217/4/3 211/4/3 192/4/3
f 217/4/3 212/4/3 211/4/3
f 217/4/3 213/4/3 212/4/3
f 218/4/3 213/4/3 217/4/3
f 219/2/3 202/2/3 201/2/3
f 219/4/3 201/4/3 214/4/3
f 220/4/3 72/4/3 202/4/3
f 220/2/3 202/2/3 219/2/3
f 221/3/3 216/3/3 215/3/3
f 221/4/3 215/4/3 71/4/3
f 222/4/3 209/4/3 216/4/3
f 222/3/3 216/3/3 221/3/3
f 223/3/3 210/3/3 209/3/3
f 223/4/3 209/4/3 222/4/3
f 224/4/3 205/4/3 210/4/3
f 224/3/3 210/3/3 223/3/3
f 225/3/3 206/3/3 205/3/3
f 225/4/3 205/4/3 224/4/3
f 226/4/3 191/4/3 206/4/3
f 226/3/3 206/3/3 225/3/3
f 227/4/3 225/4/3 224/4/3
f 227/4/3 224/4/3 223/4/3
f 227/4/3 226/4/3 225/4/3
f 227/4/3 223/4/3 222/4/3
f 227/4/3 222/4/3 221/4/3
f 228/4/3 191/4/3 226/4/3
f 228/4/3 226/4/3 227/4/3
f 229/4/3 213/4/3 218/4/3
f 229/6/3 214/6/3 213/6/3
f 230/4/3 219/4/3 214/4/3
f 230/6/3 214/6/3 229/6/3
f 230/4/3 220/4/3 219/4/3
f 231/4/3 220/4/3 230/4/3
f 232/4/3 72/4/3 220/4/3
f 232/4/3 220/4/3 231/4/3
f 233/4/3 227/4/3 221/4/3
f 234/4/3 227/4/3 233/4/3
f 235/3/3 228/3/3 227/3/3
f 235/4/3 227/4/3 234/4/3
f 236/4/3 191/4/3 228/4/3
f 236/3/3 228/3/3 235/3/3
f 237/6/3 192/6/3 191/6/3
f 237/4/3 191/4/3 236/4/3
f 238/4/3 217/4/3 192/4/3
f 238/6/3 192/6/3 237/6/3
f 239/4/3 229/4/3 218/4/3
f 239/4/3 231/4/3 230/4/3
f 239/4/3 230/4/3 229/4/3
f 240/4/3 231/4/3 239/4/3
f 241/4/3 236/4/3 235/4/3
f 241/4/3 235/4/3 234/4/3
f 241/4/3 237/4/3 236/4/3
f 241/4/3 238/4/3 237/4/3
f 242/4/3 217/4/3 238/4/3
f 242/4/3 238/4/3 241/4/3
f 243/6/3 218/6/3 217/6/3
f 243/4/3 217/4/3 242/4/3
f 244/4/3 239/4/3 218/4/3
f 244/6/3 218/6/3 243/6/3
f 245/4/3 231/4/3 240/4/3
f 245/2/3 232/2/3 231/2/3
f 246/4/3 72/4/3 232/4/3
f 246/2/3 232/2/3 245/2/3
f 247/4/3 245/4/3 240/4/3
f 247/4/3 246/4/3 245/4/3
f 248/4/3 72/4/3 246/4/3
f 248/4/3 246/4/3 247/4/3
f 249/4/3 241/4/3 234/4/3
f 249/6/3 242/6/3 241/6/3
f 250/4/3 243/4/3 242/4/3
f 250/6/3 242/6/3 249/6/3
f 250/4/3 244/4/3 243/4/3
f 251/4/3 244/4/3 250/4/3
f 252/4/3 239/4/3 244/4/3
f 252/4/3 244/4/3 251/4/3
f 253/6/3 240/6/3 239/6/3
f 253/4/3 239/4/3 252/4/3
f 254/4/3 247/4/3 240/4/3
f 254/6/3 240/6/3 253/6/3
f 255/4/3 251/4/3 250/4/3
f 255/4/3 249/4/3 234/4/3
f 255/4/3 250/4/3 249/4/3
f 256/4/3 251/4/3 255/4/3
f 257/6/3 252/6/3 251/6/3
f 257/4/3 251/4/3 256/4/3
f 258/4/3 253/4/3 252/4/3
f 258/6/3 252/6/3 257/6/3
f 258/4/3 254/4/3 253/4/3
f 259/4/3 254/4/3 258/4/3
f 260/4/3 247/4/3 254/4/3
f 260/4/3 254/4/3 259/4/3
f 261/2/3 248/2/3 247/2/3
f 261/4/3 247/4/3 260/4/3
f 262/4/3 72/4/3 248/4/3
f 262/2/3 248/2/3 261/2/3
f 263/3/3 234/3/3 233/3/3
f 263/4/3 233/4/3 221/4/3
f 264/4/3 255/4/3 234/4/3
f 264/3/3 234/3/3 263/3/3
f 265/6/3 256/6/3 255/6/3
f 265/4/3 255/4/3 264/4/3
f 266/4/3 257/4/3 256/4/3
f 266/6/3 256/6/3 265/6/3
f 266/4/3 259/4/3 258/4/3
f 266/4/3 258/4/3 257/4/3
f 267/6/3 260/6/3 259/6/3
f 267/4/3 259/4/3 266/4/3
f 268/4/3 262/4/3 261/4/3
f 268/6/3 260/6/3 267/6/3
f 268/4/3 261/4/3 260/4/3
f 271/5/3 71/5/3 67/5/3
f 271/4/3 265/4/3 264/4/3
f 271/4/3 267/4/3 266/4/3
f 271/4/3 268/4/3 267/4/3
f 271/4/3 263/4/3 221/4/3
f 271/4/3 266/4/3 265/4/3
f 271/4/3 264/4/3 263/4/3
f 271/4/3 221/4/3 71/4/3
f 272/5/3 68/5/3 72/5/3
f 272/4/3 268/4/3 271/4/3
f 272/4/3 262/4/3 268/4/3
f 272/4/3 72/4/3 262/4/3
f 273/5/3 270/5/3 269/5/3
f 274/5/3 270/5/3 273/5/3
f 275/5/3 271/5/3 67/5/3
f 275/5/3 272/5/3 271/5/3
f 276/5/3 68/5/3 272/5/3
f 276/5/3 272/5/3 275/5/3
f 277/1/4 278/1/4 280/1/4
f 278/5/4 279/5/4 281/5/4
f 280/1/4 278/1/4 281/1/4
f 281/5/4 279/5/4 282/5/4
f 282/5/4 279/5/4 283/5/4
f 283/5/4 279/5/4 284/5/4
f 282/5/4 283/5/4 287/5/4
f 287/5/4 283/5/4 288/5/4
f 284/5/4 279/5/4 289/5/4
f 285/1/4 286/1/4 290/1/4
f 287/5/4 288/5/4 291/5/4
f 290/1/4 286/1/4 291/1/4
f 288/5/4 289/5/4 291/5/4
f 286/5/4 287/5/4 291/5/4
f 289/5/4 279/5/4 292/5/4
f 291/5/4 289/5/4 292/5/4
f 293/4/4 294/4/4 295/4/4
f 295/4/4 294/4/4 296/4/4
f 301/1/5 298/1/5 297/1/5
f 302/1/5 298/1/5 301/1/5
f 303/1/5 300/1/5 299/1/5
f 304/1/5 300/1/5 303/1/5
f 307/5/5 306/5/5 305/5/5
f 308/5/5 306/5/5 307/5/5
f 309/5/5 306/5/5 308/5/5
f 310/5/5 306/5/5 309/5/5
f 311/5/5 309/5/5 308/5/5
f 312/5/5 309/5/5 311/5/5
f 315/4/5 314/4/5 313/4/5
f 316/4/5 314/4/5 315/4/5
f 317/5/6 318/5/6 321/5/6
f 321/5/6 318/5/6 322/5/6
f 319/5/6 320/5/6 323/5/6
f 323/5/6 320/5/6 324/5/6
f 325/5/6 326/5/6 327/5/6
f 327/5/6 326/5/6 328/5/6
f 329/4/6 330/4/6 331/4/6
f 331/4/6 330/4/6 332/4/6
f 333/5/6 334/5/6 335/5/6
f 335/5/6 334/5/6 336/5/6
